<?xml version="1.0" standalone="no"?>
<!DOCTYPE svg PUBLIC "-//W3C//DTD SVG 20010904//EN"
 "http://www.w3.org/TR/2001/REC-SVG-20010904/DTD/svg10.dtd">
<svg version="1.0" xmlns="http://www.w3.org/2000/svg"
 width="1248.000000pt" height="801.000000pt" viewBox="0 0 1248.000000 801.000000"
 preserveAspectRatio="xMidYMid meet">

<g transform="translate(0.000000,801.000000) scale(0.100000,-0.100000)"
fill="#000000" stroke="none">
<path d="M0 7031 c0 -774 3 -981 13 -985 9 -5 9 -7 -1 -12 -17 -8 -15 -24 3
-24 10 0 15 -10 15 -34 0 -19 5 -38 10 -41 14 -9 -7 -35 -26 -35 -22 0 -18
-50 4 -50 16 -1 16 -2 0 -13 -14 -12 -17 -38 -18 -200 0 -154 2 -187 14 -187
7 0 19 -7 26 -15 13 -15 108 -65 124 -65 5 0 21 -9 37 -21 16 -11 29 -18 29
-15 0 3 16 -6 36 -19 24 -16 51 -25 75 -25 22 0 39 -4 39 -9 0 -16 93 -37 152
-35 46 2 63 -2 90 -22 18 -14 32 -28 30 -32 -2 -4 7 -29 19 -55 17 -36 28 -47
40 -44 12 3 19 -3 23 -19 8 -29 -15 -104 -30 -104 -7 0 -10 -8 -7 -20 4 -14
-4 -25 -28 -39 -19 -12 -41 -21 -50 -21 -8 0 -26 -11 -39 -25 -13 -14 -29 -25
-36 -25 -6 0 -17 -7 -24 -15 -7 -8 -21 -15 -32 -15 -11 0 -33 -10 -50 -21 -26
-19 -46 -22 -166 -25 -76 -2 -153 -6 -172 -10 -19 -4 -48 -8 -65 -8 l-30 -1
-3 -803 c-2 -708 0 -805 13 -826 21 -31 27 -66 12 -66 -11 -1 11 -22 41 -39
18 -10 -13 -69 -44 -83 l-24 -11 2 -1151 3 -1150 23 -12 c13 -6 29 -17 35 -23
6 -6 19 -11 29 -11 9 0 22 -9 28 -20 6 -11 17 -20 24 -20 8 0 19 -7 27 -16 8
-10 23 -14 41 -12 15 3 28 1 28 -2 0 -4 14 -10 30 -14 17 -3 29 -11 28 -18 -2
-6 5 -14 16 -16 16 -3 18 0 12 32 l-7 35 54 0 c30 -1 65 5 78 12 44 23 77 21
95 -6 9 -14 22 -25 30 -25 7 0 19 -8 26 -19 7 -10 23 -21 36 -25 23 -8 44 -41
68 -110 23 -64 38 -96 46 -96 5 0 8 -6 8 -14 0 -8 10 -22 21 -30 14 -9 19 -21
15 -31 -3 -9 1 -27 10 -40 9 -14 19 -48 23 -77 l6 -53 62 -3 62 -3 -13 33 c-7
18 -17 42 -21 53 -5 11 -9 23 -9 26 -1 3 -15 18 -31 32 l-30 26 34 1 c32 0 33
1 19 22 -13 20 -13 24 7 44 43 43 59 40 122 -23 37 -37 63 -73 72 -100 8 -23
17 -40 22 -38 4 3 10 -3 14 -14 3 -10 15 -21 25 -24 11 -3 20 -12 20 -21 0
-15 82 -16 925 -16 841 1 925 2 925 17 0 13 -7 14 -40 9 -43 -7 -55 9 -25 34
9 7 14 19 11 26 -3 7 -1 16 5 20 6 3 4 10 -6 17 -13 10 -13 18 -3 47 21 63 39
100 48 100 6 0 10 5 10 10 0 16 -27 12 -34 -5 -11 -30 -29 -16 -21 18 4 17 7
46 6 64 -2 32 20 63 45 63 8 0 14 7 14 15 0 8 -7 15 -15 15 -35 0 9 132 59
179 20 18 23 27 14 33 -10 6 -10 10 1 17 8 5 22 34 31 63 11 34 24 56 38 63
14 6 20 16 16 27 -3 10 3 24 15 35 12 10 21 25 21 33 0 9 5 21 11 27 6 6 13
25 15 42 3 24 0 31 -14 32 -9 0 8 11 38 25 30 14 57 29 58 34 2 6 13 10 24 10
15 0 18 5 13 20 -5 14 -2 20 10 20 28 0 66 47 63 77 -2 20 3 30 21 39 29 15
41 33 34 51 -3 8 2 13 15 13 12 0 24 11 32 30 7 17 25 43 41 57 15 15 25 31
22 36 -4 6 3 8 15 5 18 -5 22 -2 22 16 0 15 15 32 44 53 24 17 51 46 60 64 16
32 16 34 -1 46 -16 12 -16 13 1 13 9 0 15 4 11 10 -3 5 17 33 45 62 27 29 50
61 50 71 0 11 8 17 23 17 13 0 29 6 35 12 8 8 43 13 92 14 44 0 83 4 87 7 3 4
1 7 -5 7 -7 0 -12 5 -12 11 0 6 9 8 20 4 11 -4 20 -2 20 4 0 14 -59 28 -152
36 -43 4 -78 10 -78 15 0 4 13 13 30 20 23 10 40 10 75 1 26 -6 69 -8 101 -5
l56 7 -23 19 c-14 10 -33 16 -46 13 -12 -3 -23 0 -26 8 -2 7 -22 12 -51 12
-36 0 -46 3 -43 15 2 11 16 15 52 14 28 -1 41 0 30 3 -29 7 -47 33 -34 49 14
17 -27 28 -74 21 -18 -3 -47 2 -67 11 l-35 16 33 4 c25 2 31 6 23 16 -21 25
100 109 130 90 17 -10 9 -34 -10 -34 -22 0 -81 -31 -81 -42 0 -15 79 -8 112
10 47 24 51 35 20 51 l-26 14 22 15 c29 19 28 35 -3 30 -34 -7 -32 15 3 37 15
10 31 24 35 32 4 7 15 13 22 13 8 0 15 5 15 11 0 8 5 7 16 -1 13 -11 16 -10
21 8 3 12 13 22 23 22 10 0 23 7 30 15 7 8 19 15 26 15 8 0 14 7 14 16 0 9 8
29 18 46 l17 29 -33 30 c-35 31 -34 51 1 47 12 -2 22 2 22 7 0 6 -8 9 -19 7
-16 -2 -17 0 -5 15 28 35 40 45 47 38 4 -4 1 -10 -5 -12 -17 -6 -16 -30 1 -36
8 -3 16 2 19 13 4 15 13 18 48 15 24 -2 52 -6 63 -10 10 -5 21 -4 25 1 11 16
72 56 78 51 2 -3 0 -22 -6 -42 -8 -31 -8 -35 4 -25 11 9 23 9 50 0 28 -9 35
-16 30 -31 -9 -27 3 -43 21 -28 11 9 21 9 37 1 12 -6 29 -11 37 -11 32 0 106
-14 123 -23 9 -5 17 -16 17 -25 0 -12 3 -14 11 -6 8 8 21 8 46 0 26 -8 40 -8
54 1 10 7 29 12 41 12 24 1 59 22 59 37 1 16 9 16 9 0 0 -22 30 -29 145 -33
104 -3 204 -18 242 -36 12 -6 40 -11 62 -11 22 0 38 -4 35 -8 -3 -5 2 -9 12
-9 9 0 43 -14 76 -30 33 -17 64 -28 69 -24 6 3 13 -4 16 -15 5 -20 7 -21 28
-7 13 8 26 12 30 8 13 -13 83 -29 95 -22 7 4 24 4 39 -1 14 -4 55 -15 91 -24
36 -9 85 -22 110 -29 48 -15 77 -15 98 -2 7 4 24 5 38 2 15 -4 24 -2 24 5 0 8
4 8 15 -1 10 -8 15 -9 15 -2 0 6 18 11 43 11 69 -1 138 7 145 17 14 20 37 8
42 -21 6 -29 6 -28 13 13 6 33 11 42 27 42 12 0 23 6 26 14 4 10 16 14 35 11
23 -3 29 0 29 15 0 13 5 17 15 14 8 -4 27 2 43 12 15 10 31 17 36 16 5 -2 6 7
2 20 -3 13 -6 27 -6 32 0 4 -7 6 -15 2 -19 -7 -19 8 0 24 12 10 15 10 15 -2 0
-8 9 -23 20 -33 11 -10 20 -14 20 -9 0 6 12 9 28 9 15 -1 44 8 65 19 30 16 38
25 34 43 -4 20 -2 21 16 8 17 -12 24 -12 48 1 15 7 41 14 57 14 16 0 35 7 42
15 7 8 21 15 31 15 16 0 18 -5 13 -27 l-6 -28 18 25 c34 46 48 60 61 60 7 0
13 12 14 28 0 24 1 25 9 7 6 -13 8 0 5 40 -2 33 -2 52 1 42 3 -9 10 -17 16
-17 7 0 9 -25 5 -72 -5 -71 -5 -72 6 -26 7 25 15 50 19 54 4 4 5 25 1 47 -4
29 -3 38 5 33 7 -4 12 -27 12 -51 0 -33 3 -43 14 -39 9 4 11 14 7 37 -4 18 -3
49 2 70 9 36 11 37 43 31 27 -5 34 -3 34 9 0 10 8 14 25 12 14 -1 25 2 25 6 0
5 6 9 13 9 6 0 21 13 32 29 10 16 22 28 26 25 4 -2 9 8 11 23 2 20 8 27 21 25
13 -2 17 4 17 24 0 21 4 25 20 21 11 -3 20 0 20 6 0 6 3 7 7 4 3 -4 11 -3 17
3 7 5 48 12 91 15 47 4 87 13 96 21 8 8 20 14 25 14 5 0 16 9 24 20 9 12 26
20 43 20 24 0 28 4 24 19 -3 13 3 23 18 31 13 7 21 18 19 25 -4 9 7 12 36 10
22 -1 43 2 46 6 3 5 1 9 -3 9 -5 0 -14 9 -21 21 -12 19 -11 20 7 14 18 -5 21
-2 21 19 0 14 5 26 11 26 6 0 9 7 5 15 -8 22 30 19 46 -3 14 -20 58 -48 70
-44 4 1 2 -9 -4 -23 -6 -14 -22 -28 -35 -31 -29 -8 -29 -18 -1 -33 l23 -11
-22 6 c-29 7 -29 -3 0 -34 12 -14 16 -22 10 -18 -29 16 -10 -24 25 -56 36 -33
55 -60 57 -83 0 -5 9 -22 19 -37 20 -31 50 -37 60 -12 3 9 11 12 18 8 32 -20
72 -4 49 19 -28 28 12 53 53 31 36 -18 36 -18 36 6 0 11 -4 20 -10 20 -5 0
-10 7 -10 16 0 11 5 14 16 10 14 -5 16 -1 11 24 -4 16 -5 30 -3 30 3 0 19 -15
37 -33 29 -28 34 -30 37 -14 2 10 -3 26 -11 35 -8 9 -18 27 -21 39 -6 18 -3
22 21 25 19 2 29 10 31 23 2 11 20 36 40 55 21 20 46 52 57 73 14 26 26 37 42
37 13 0 23 6 23 13 1 30 60 77 97 77 17 0 18 -7 13 -65 -3 -35 -11 -70 -18
-77 -6 -6 -12 -22 -12 -35 0 -13 -9 -32 -20 -43 -11 -11 -20 -24 -20 -28 0
-12 -41 -48 -62 -55 -10 -4 -18 -14 -18 -22 0 -10 5 -14 13 -10 6 4 -4 -7 -23
-24 -19 -17 -38 -31 -43 -31 -5 0 -6 -13 -2 -30 4 -19 3 -30 -4 -30 -6 0 -11
5 -11 10 0 21 -31 9 -41 -16 -11 -29 5 -64 45 -96 l21 -18 -28 0 c-23 0 -29 5
-34 30 -6 33 -24 51 -31 32 -5 -15 -44 -16 -59 -1 -6 6 -17 8 -23 4 -14 -8 30
-38 71 -48 17 -4 26 -13 25 -24 0 -10 4 -18 9 -18 37 -3 55 -18 55 -47 0 -29
-1 -30 -36 -25 -31 5 -34 4 -29 -14 5 -16 2 -19 -24 -19 -20 0 -31 -5 -31 -14
0 -8 3 -16 7 -18 5 -1 16 -19 26 -38 10 -19 36 -48 59 -63 49 -34 43 -45 -12
-23 -49 20 -51 20 -44 1 4 -8 1 -15 -5 -15 -18 0 -13 -28 9 -50 13 -13 33 -20
58 -20 36 0 174 -58 141 -60 -9 0 -19 -9 -22 -20 -3 -11 -13 -20 -24 -20 -15
0 -16 -2 -3 -10 10 -6 11 -10 3 -10 -27 0 -11 -19 30 -36 l42 -18 -35 -7 -35
-6 35 -3 c25 -2 29 -4 13 -7 -35 -7 -27 -22 21 -43 54 -25 69 -42 70 -85 1
-24 12 -45 39 -74 20 -22 37 -47 37 -55 0 -8 8 -17 18 -20 9 -4 46 -34 82 -67
36 -33 81 -69 100 -79 19 -10 45 -28 58 -40 12 -11 26 -19 31 -15 16 9 42 -7
36 -23 -8 -22 24 -52 57 -52 26 0 29 3 26 28 -2 21 -11 30 -38 39 -19 7 -27
12 -17 12 9 1 17 6 17 11 0 6 6 10 14 10 15 0 32 37 22 47 -8 8 13 43 27 43
18 1 57 36 57 52 0 13 48 48 67 48 4 0 6 -47 5 -105 -3 -93 -1 -114 23 -181
14 -42 24 -79 21 -81 -7 -7 31 -105 44 -113 7 -4 14 -33 16 -66 1 -32 8 -60
13 -62 6 -2 11 -12 11 -22 0 -9 7 -23 15 -30 8 -7 15 -18 15 -25 0 -7 11 -28
24 -47 13 -20 29 -53 36 -74 34 -106 78 -166 165 -230 78 -57 96 -62 149 -43
24 9 39 27 66 81 19 38 49 83 67 101 18 18 33 38 33 45 0 6 4 12 9 12 5 0 23
27 41 61 35 68 35 107 0 164 -11 18 -34 66 -51 106 -29 70 -30 79 -25 177 3
57 8 107 11 113 12 19 24 8 36 -31 7 -22 16 -40 21 -40 4 0 8 -8 8 -17 1 -21
33 -63 48 -63 6 0 12 -4 14 -8 2 -4 21 -22 43 -40 34 -27 46 -31 77 -25 24 3
40 12 43 24 4 11 15 24 26 29 10 6 19 17 19 24 0 7 9 21 20 31 11 10 20 22 20
27 0 5 7 16 15 24 17 17 21 74 5 74 -5 0 -10 7 -10 15 0 9 -11 21 -25 27 -14
6 -28 23 -31 37 -3 14 -10 39 -15 54 -15 48 10 103 80 181 35 39 79 88 98 109
43 47 86 51 110 9 9 -15 33 -40 54 -55 52 -37 81 -26 114 45 14 29 25 60 26
68 0 8 13 38 29 65 52 89 58 109 65 195 6 84 21 157 36 174 14 16 59 -4 72
-32 22 -49 56 -72 110 -72 26 0 40 8 65 36 18 20 32 38 32 40 0 2 14 27 31 56
18 29 47 82 67 118 19 36 40 72 47 80 7 8 21 31 30 50 19 37 34 52 46 44 4 -2
34 3 67 11 33 9 77 17 98 19 21 1 40 8 42 15 6 17 33 42 41 37 4 -3 16 12 26
32 18 34 33 53 75 101 37 41 100 124 100 132 0 5 6 9 13 9 7 0 18 9 25 20 7
11 17 20 24 20 6 0 26 16 44 36 35 40 73 50 132 34 17 -5 32 -5 32 -2 0 13 74
31 84 21 16 -15 26 -10 26 11 0 12 7 20 16 20 12 0 15 -6 10 -22 -4 -13 -8
-30 -10 -38 -3 -20 -18 -131 -21 -150 -2 -24 -17 -52 -37 -72 -10 -10 -18 -27
-18 -37 0 -11 -15 -30 -32 -42 -42 -29 -46 -35 -53 -81 -5 -27 -12 -38 -24
-38 -10 0 -28 -12 -42 -26 -13 -14 -35 -30 -48 -35 -23 -9 -23 -10 -6 -23 19
-14 13 -38 -8 -31 -7 3 -20 -7 -30 -20 -18 -25 -18 -25 8 -25 15 0 24 -4 20
-10 -3 -5 -22 -10 -41 -10 -25 0 -34 -4 -34 -16 0 -10 -5 -14 -16 -10 -8 3
-12 2 -9 -4 3 -6 -3 -10 -14 -10 -12 0 -21 -4 -21 -10 0 -5 -7 -10 -15 -10 -8
0 -15 -4 -15 -10 0 -13 37 -13 45 0 3 6 14 10 24 10 10 0 24 7 31 15 7 8 20
15 30 15 20 0 89 50 90 65 0 6 16 17 35 24 19 7 35 16 35 21 0 5 17 16 38 25
20 9 65 30 100 47 l62 30 0 1272 c-1 1136 -2 1269 -16 1251 -8 -11 -25 -33
-37 -49 -34 -46 -116 -124 -163 -157 -23 -16 -44 -32 -46 -36 -9 -21 -170
-144 -223 -171 -33 -16 -71 -41 -85 -54 -14 -13 -48 -39 -77 -57 -28 -18 -53
-36 -55 -40 -3 -7 -111 -79 -224 -148 -38 -24 -105 -79 -149 -124 -44 -45 -99
-101 -123 -125 -23 -24 -39 -44 -35 -44 12 -1 -97 -69 -137 -86 -19 -8 -46
-22 -60 -29 -14 -8 -42 -22 -62 -31 -21 -9 -38 -23 -38 -31 0 -8 -9 -17 -20
-20 -11 -3 -20 -9 -20 -14 0 -4 -10 -17 -21 -28 -12 -11 -27 -29 -33 -40 -6
-11 -27 -44 -47 -73 -20 -29 -58 -87 -85 -128 -26 -41 -52 -80 -58 -87 -6 -6
-20 -23 -31 -38 -52 -69 -145 -149 -145 -126 0 7 -9 7 -25 1 -20 -8 -29 -5
-48 14 -30 30 -29 79 2 149 11 27 21 54 21 61 0 7 19 38 42 67 45 59 159 149
276 217 40 24 76 50 79 58 3 9 13 14 24 11 11 -3 17 -1 14 3 -3 5 15 38 40 74
25 37 45 68 45 71 0 3 14 35 32 72 35 76 97 157 137 178 38 20 168 151 187
188 9 18 29 48 44 67 15 19 35 51 44 71 9 20 26 46 36 57 11 12 20 24 20 28 0
3 17 25 38 49 20 24 53 78 71 121 19 44 38 81 41 84 4 3 22 28 40 55 19 28 39
55 45 61 5 6 43 50 84 98 41 48 83 91 93 97 10 5 18 16 18 23 0 8 8 20 17 27
9 8 29 32 45 54 16 22 84 97 151 166 67 70 138 145 157 168 19 22 40 41 47 41
7 0 13 6 13 14 0 8 3 16 8 18 12 5 62 76 62 87 0 6 5 11 10 11 6 0 10 4 10 10
0 5 11 20 25 34 27 27 36 57 10 34 -20 -18 -34 -29 -80 -63 -43 -32 -44 -33
-120 -122 -80 -93 -172 -171 -226 -190 -27 -10 -49 -21 -49 -25 0 -3 -13 -9
-28 -13 -16 -3 -47 -23 -70 -43 -65 -59 -126 -108 -142 -115 -8 -4 -33 -18
-55 -32 -58 -37 -163 -85 -184 -85 -10 0 -26 9 -36 20 -16 18 -17 25 -6 63 16
57 53 137 63 137 4 0 8 6 8 13 0 6 15 29 33 49 17 21 50 62 72 92 22 31 43 55
47 56 3 0 23 24 44 53 21 28 46 58 56 65 10 7 18 18 18 23 0 5 5 15 10 22 6 7
28 39 50 73 38 58 84 106 204 207 31 27 56 54 56 61 0 7 16 28 35 47 19 19 35
37 35 41 0 30 208 229 275 263 20 10 20 21 23 473 l2 462 -1795 0 -1796 0 -24
-27 c-13 -16 -25 -33 -25 -38 0 -6 -17 -29 -37 -51 -21 -22 -72 -78 -113 -124
-97 -108 -93 -104 -135 -130 -23 -14 -42 -19 -53 -14 -9 4 -23 8 -30 10 -22 4
-67 49 -70 69 -19 107 -9 176 39 268 l20 37 -991 0 c-658 0 -989 -3 -985 -10
3 -6 12 -10 19 -10 16 0 35 -53 38 -107 1 -33 -3 -45 -22 -61 -24 -19 -24 -19
-8 -76 14 -48 14 -56 2 -56 -8 0 -14 -5 -14 -11 0 -7 7 -8 18 -4 9 4 24 9 33
12 9 3 22 16 28 29 15 35 49 45 86 27 17 -9 31 -17 33 -18 2 -1 -6 -27 -18
-56 -24 -64 -25 -79 -6 -104 13 -18 15 -17 47 13 19 18 37 32 42 32 4 0 7 18
7 40 0 22 -4 40 -10 40 -5 0 -10 -13 -10 -29 0 -35 -13 -46 -30 -26 -10 12
-10 18 0 30 7 9 9 26 5 45 -5 23 -3 30 8 30 17 0 47 -26 47 -41 0 -11 30 -12
30 -1 0 4 12 15 26 25 24 18 25 18 34 -10 8 -23 19 -31 55 -39 26 -6 48 -7 54
-1 5 5 22 2 41 -8 30 -16 32 -16 37 4 5 20 33 30 33 12 0 -12 39 -21 46 -10 9
16 40 10 88 -17 37 -21 56 -25 87 -21 36 5 43 2 71 -29 18 -19 39 -34 47 -33
31 3 38 -1 49 -26 9 -18 19 -25 41 -25 16 0 34 -7 41 -15 7 -9 20 -15 29 -14
38 4 82 -15 98 -42 10 -16 22 -29 29 -29 6 0 25 -7 42 -15 23 -12 36 -30 52
-73 24 -64 61 -101 102 -102 17 0 31 -8 38 -20 7 -13 21 -20 38 -20 16 0 37
-6 48 -14 17 -13 22 -13 42 0 22 14 24 14 29 -5 3 -12 12 -21 20 -21 8 0 19
-13 24 -29 6 -16 17 -32 25 -35 8 -3 14 -12 14 -21 0 -8 5 -15 11 -15 26 0 71
-58 76 -99 3 -24 13 -47 24 -55 14 -9 18 -23 16 -58 -3 -40 -9 -52 -43 -83
-27 -25 -32 -33 -15 -24 14 6 34 20 45 30 21 20 56 26 56 10 0 -5 -9 -13 -20
-16 -11 -3 -20 -11 -20 -16 0 -6 -5 -7 -12 -3 -7 5 -8 3 -3 -6 10 -15 -61 -83
-77 -74 -6 4 -8 2 -4 -4 3 -6 20 -13 36 -17 39 -8 38 -30 0 -44 -36 -12 -38
-19 -6 -31 18 -7 23 -14 19 -30 -8 -29 -20 -33 -45 -16 -32 23 -58 20 -58 -5
0 -18 4 -20 25 -15 15 4 25 2 25 -4 0 -7 10 -9 23 -6 12 3 17 3 10 0 -10 -4
-10 -10 0 -25 10 -18 8 -24 -16 -45 -15 -13 -37 -24 -48 -24 -12 0 -19 -7 -19
-20 0 -11 -6 -20 -13 -20 -7 0 -26 -13 -42 -30 -16 -17 -32 -30 -36 -30 -4 0
-25 -17 -46 -37 -21 -21 -60 -57 -85 -80 -25 -23 -49 -52 -53 -63 -6 -20 -4
-19 25 7 44 38 50 44 87 86 18 21 44 42 58 47 14 5 25 16 25 25 0 8 4 15 9 15
5 0 31 16 57 36 39 30 51 35 66 25 10 -6 23 -11 30 -11 7 0 18 -11 24 -24 9
-20 8 -23 -6 -19 -29 8 -32 -14 -5 -35 29 -23 32 -32 10 -32 -8 0 -15 5 -15
10 0 13 -47 13 -55 0 -8 -12 -47 -3 -57 14 -4 6 -10 8 -13 4 -11 -10 19 -48
37 -48 10 0 18 -4 18 -10 0 -5 -11 -10 -24 -10 -13 0 -27 -7 -30 -16 -7 -19
-9 -17 24 -34 l24 -13 -24 -9 c-13 -5 -30 -6 -37 -3 -8 3 -11 0 -8 -6 4 -6 -1
-19 -11 -30 -16 -18 -16 -19 0 -19 10 0 25 4 35 9 9 5 23 6 30 2 9 -6 -3 -14
-35 -25 -54 -18 -78 -20 -69 -6 9 14 -20 12 -60 -4 -21 -9 -37 -11 -40 -5 -4
5 -10 7 -15 4 -10 -6 -40 5 -40 15 0 5 10 6 23 4 15 -3 14 -1 -6 7 -24 10 -32
8 -51 -10 -12 -12 -29 -21 -37 -21 -8 0 -10 3 -4 8 6 4 19 18 30 31 l20 24
-25 -13 c-14 -7 -37 -24 -52 -38 -30 -28 -39 -20 -11 10 15 17 15 20 1 34 -14
14 -17 14 -32 -1 -9 -9 -16 -11 -16 -5 0 13 40 72 57 83 7 4 10 14 7 22 -4 8
-1 15 5 15 6 0 11 6 11 14 0 8 8 13 18 11 9 -1 11 0 4 2 -8 3 -11 11 -8 18 9
24 -20 6 -45 -28 -13 -18 -32 -48 -41 -67 -9 -19 -17 -28 -17 -20 -1 9 4 21
11 28 9 9 4 11 -20 8 -23 -3 -29 -1 -25 10 6 16 -12 19 -22 4 -3 -5 -10 -10
-15 -10 -11 0 0 32 14 42 6 4 7 10 4 14 -4 3 -14 -1 -23 -10 -20 -19 -32 -20
-38 -3 -5 13 -57 -36 -57 -54 0 -5 -11 -7 -25 -3 -16 4 -25 2 -25 -6 0 -7 -11
-25 -25 -42 -29 -35 -32 -62 -7 -80 17 -13 18 -18 4 -118 -5 -41 -12 -56 -24
-58 -14 -3 -18 3 -18 24 0 27 -1 27 -14 8 -14 -18 -15 -17 -30 16 l-15 35 -1
-31 c0 -37 -26 -66 -36 -40 -3 8 -4 21 -1 28 5 15 -22 73 -30 64 -3 -3 -8 -20
-12 -38 -5 -23 -13 -33 -24 -32 -13 1 -16 -3 -12 -16 3 -10 -2 -25 -10 -34
-20 -19 -32 -20 -38 -3 -4 9 -8 9 -15 -2 -8 -11 -12 -6 -17 22 -4 20 -11 37
-16 37 -5 0 -9 11 -9 24 0 14 -5 28 -11 31 -6 4 -10 19 -9 33 4 49 0 85 -7 79
-4 -4 -6 -50 -5 -102 0 -53 -3 -95 -9 -95 -5 0 -9 12 -9 26 l0 26 -19 -23
c-23 -29 -42 -17 -44 27 -1 16 -5 32 -10 35 -4 3 -3 18 4 32 13 29 4 51 -11
27 -8 -12 -10 -12 -10 4 0 18 -1 18 -18 3 -18 -16 -18 -15 -10 40 4 32 10 95
12 139 2 45 9 91 15 102 13 25 15 95 2 72 -5 -8 -11 -31 -15 -50 -3 -20 -19
-51 -35 -70 l-29 -35 10 48 c7 35 7 52 -1 60 -8 8 -11 6 -11 -6 0 -21 -26 -22
-46 -3 -18 19 -18 34 1 52 13 14 15 11 15 -21 0 -22 4 -34 10 -30 6 3 10 22
10 41 0 28 4 34 21 34 20 0 21 4 17 58 -6 62 0 124 11 118 4 -3 5 11 3 30 -3
20 0 34 7 34 10 0 14 -12 24 -65 3 -14 7 -9 15 20 15 49 43 101 38 70 -1 -11
-6 -32 -9 -47 -4 -16 -10 -40 -13 -55 l-6 -28 21 24 c12 13 21 30 21 38 0 16
17 17 23 1 3 -8 6 -6 6 5 1 9 6 17 11 17 6 0 10 7 10 15 0 8 5 15 11 15 8 0
10 -14 5 -42 -5 -40 -5 -41 9 -24 8 11 15 26 15 33 0 8 7 27 15 43 15 28 14
30 -4 30 -11 0 -23 -5 -27 -11 -4 -8 -13 -4 -25 12 -10 13 -19 20 -20 14 -4
-46 -6 -56 -12 -62 -9 -8 -9 40 -1 61 5 13 14 15 41 10 33 -6 34 -6 22 14 -7
12 -9 25 -5 29 5 4 11 2 13 -4 3 -7 9 -13 14 -13 6 0 7 6 2 13 -11 17 -4 59
13 77 12 12 13 7 9 -43 -4 -36 -2 -57 5 -57 5 0 10 12 11 28 0 15 2 49 4 76 1
26 -1 71 -5 100 -4 28 -8 41 -9 28 0 -12 -7 -21 -13 -20 -8 2 -14 -9 -16 -27
-3 -42 -22 -107 -35 -123 -16 -20 -27 14 -16 51 10 35 0 102 -14 88 -5 -5 -11
-24 -12 -43 -2 -18 -4 -42 -5 -53 l-1 -20 -9 20 c-7 17 -9 15 -9 -12 -1 -17
-6 -35 -12 -38 -13 -9 -38 23 -39 50 l-1 20 -9 -20 c-5 -11 -10 -40 -11 -65
-1 -34 -3 -38 -6 -15 -7 52 -15 63 -23 30 l-8 -30 -1 33 c-1 21 4 32 13 32 8
0 12 8 9 23 -3 14 3 29 16 41 22 20 28 51 11 61 -6 4 -10 -5 -10 -19 0 -14 -4
-26 -10 -26 -5 0 -10 11 -10 25 0 16 -6 25 -16 25 -9 0 -14 6 -11 13 7 20 -24
37 -40 21 -19 -18 -45 -6 -38 17 8 25 -11 25 -24 0 -7 -13 -6 -24 4 -37 22
-29 19 -64 -6 -64 -11 0 -29 -5 -39 -10 -13 -7 -21 -7 -25 0 -13 21 -25 8 -25
-27 0 -29 -3 -34 -12 -25 -9 9 -9 20 1 47 9 25 9 40 2 54 -6 11 -11 35 -11 53
0 25 -3 29 -10 18 -5 -8 -10 -26 -11 -40 -1 -23 -2 -22 -10 7 -9 31 -10 31
-36 18 -26 -14 -28 -13 -41 10 -7 14 -16 25 -21 25 -5 0 -12 10 -15 23 -7 21
-7 21 -15 2 -8 -19 -8 -19 -15 2 -4 13 -5 27 -2 32 3 5 0 14 -8 20 -11 10 -13
4 -8 -34 3 -35 0 -50 -13 -65 -14 -15 -16 -29 -11 -60 3 -23 2 -40 -3 -40 -6
0 -6 -12 0 -32 12 -43 12 -68 0 -49 -5 7 -11 9 -14 4 -3 -5 -2 -15 4 -23 5 -8
9 -10 9 -5 1 26 20 -24 20 -52 0 -18 4 -42 9 -55 6 -13 13 -44 16 -70 4 -32
11 -48 21 -48 8 0 14 7 14 15 0 14 11 19 38 16 6 -1 12 5 12 14 0 8 -7 15 -15
15 -8 0 -15 9 -15 19 0 17 3 18 25 8 20 -10 25 -19 25 -49 0 -39 8 -46 28 -26
13 13 14 11 31 -64 6 -26 11 -62 11 -80 0 -24 3 -29 9 -19 8 12 11 9 16 -12 4
-15 5 -41 3 -57 -6 -43 9 -23 21 25 9 39 9 39 11 -25 1 -36 1 -69 -1 -75 -2
-5 -4 -32 -5 -60 0 -27 -4 -65 -9 -84 -5 -22 -4 -31 3 -27 6 3 13 2 17 -4 3
-5 1 -10 -6 -10 -8 0 -8 -4 -1 -13 6 -7 9 -24 6 -38 -2 -13 -2 -18 2 -11 10
21 26 13 18 -10 -9 -32 -14 -35 -25 -18 -8 11 -9 9 -4 -9 7 -24 -39 -131 -56
-131 -12 0 -12 1 7 46 9 22 21 42 28 46 6 5 2 8 -11 8 -14 0 -23 -6 -23 -15 0
-19 -40 -95 -50 -95 -10 0 -54 -69 -57 -88 -1 -8 -4 -16 -7 -20 -11 -10 -6 37
6 64 10 21 10 28 1 31 -7 3 -9 12 -6 21 4 15 3 15 -6 2 -6 -8 -11 -28 -12 -45
l-1 -30 -9 30 c-5 18 -5 31 1 35 12 7 -7 80 -20 80 -6 0 -10 -4 -10 -10 0 -5
-5 -10 -10 -10 -7 0 -8 22 -5 59 4 36 2 62 -5 66 -6 3 -10 -3 -10 -14 0 -12
-4 -21 -10 -21 -5 0 -10 -9 -10 -19 0 -11 -4 -23 -10 -26 -6 -3 -10 3 -10 14
0 11 4 23 10 26 6 3 10 13 10 22 0 9 -3 13 -7 9 -5 -4 -14 9 -20 31 l-13 38 3
-55 c2 -49 0 -55 -18 -55 -14 0 -22 -10 -29 -35 -6 -19 -16 -41 -23 -48 -11
-11 -13 -9 -13 13 0 15 -4 24 -10 20 -6 -3 -10 1 -10 9 0 24 -15 19 -28 -9
-16 -35 -32 -31 -33 8 0 26 -2 29 -9 12 -7 -18 -8 -19 -15 -2 -4 9 -13 17 -21
17 -14 0 -15 53 -1 67 10 10 8 23 -3 23 -5 0 -10 -6 -10 -14 0 -7 -7 -19 -15
-26 -13 -11 -14 -6 -10 40 6 60 11 71 29 64 11 -4 13 5 10 42 -3 25 -9 55 -15
66 -9 16 -8 19 3 16 7 -3 15 -15 16 -29 2 -13 8 -28 13 -33 5 -6 9 -19 10 -30
0 -17 2 -16 11 7 5 15 14 25 18 22 5 -3 7 -12 3 -20 -3 -8 0 -15 7 -15 7 0 10
-8 7 -20 -6 -23 12 -39 23 -20 9 15 30 4 30 -16 0 -27 17 -14 24 17 11 58 7
116 -9 123 -18 7 -22 116 -4 116 7 0 8 -14 4 -40 -4 -24 -3 -40 3 -40 14 0 21
62 9 88 -13 28 -24 28 -33 0 -3 -12 -13 -28 -20 -36 -12 -11 -14 -11 -14 1 0
8 -6 20 -14 26 -10 9 -13 31 -11 81 2 54 0 70 -10 70 -8 0 -21 10 -31 23 -12
16 -15 17 -10 4 3 -10 6 -25 6 -34 0 -10 6 -13 15 -9 22 8 30 -20 12 -39 -23
-22 -32 -19 -44 18 -5 17 -8 22 -6 9 5 -30 -7 -73 -18 -66 -5 3 -7 17 -4 32 3
15 2 21 -1 14 -4 -9 -13 1 -25 27 -19 42 -32 54 -27 24 2 -15 -5 -18 -39 -20
-24 0 -46 -2 -50 -3 -5 -1 -18 -1 -30 0 -38 3 -48 -11 -22 -30 l23 -18 -35 3
c-19 2 -40 4 -46 4 -7 1 -20 15 -28 32 -9 17 -19 29 -22 26 -2 -3 0 -14 6 -25
7 -14 7 -27 -2 -45 l-12 -25 -17 36 c-10 21 -17 30 -18 22 0 -8 -16 2 -41 25
l-40 40 16 -39 c9 -22 28 -48 42 -59 22 -17 23 -21 10 -35 -9 -9 -20 -11 -29
-6 -7 5 -21 7 -32 5 -15 -2 -18 2 -14 22 4 21 0 26 -25 31 -16 3 -34 3 -39 0
-6 -4 -9 -1 -6 7 2 8 14 18 26 24 26 12 29 25 5 26 -42 2 -69 11 -81 27 -11
14 -10 18 3 20 9 2 21 0 28 -5 17 -13 97 -17 97 -4 0 5 -4 13 -10 16 -6 3 -10
13 -10 21 0 12 4 12 35 0 19 -8 35 -14 35 -12 0 9 -39 46 -50 46 -6 0 -10 6
-7 13 6 19 30 14 42 -8 19 -37 72 -104 78 -99 3 3 -10 28 -30 55 -19 27 -31
49 -27 49 4 0 -4 12 -17 28 -47 51 -58 76 -52 120 3 23 9 39 14 36 5 -3 9 -2
9 1 0 12 -56 56 -104 81 -35 19 -45 29 -37 37 7 7 18 7 37 -2 33 -15 42 -7 25
20 -14 24 -14 24 18 34 16 5 21 4 17 -4 -4 -6 -3 -11 3 -11 5 0 13 5 16 10 3
6 1 10 -6 10 -6 0 -9 8 -6 20 3 13 0 20 -8 20 -7 0 -15 3 -17 8 -4 11 -97 67
-138 84 -71 30 -136 48 -171 48 -25 0 -42 7 -59 25 -13 14 -29 25 -37 25 -7 0
-13 5 -13 11 0 5 4 8 9 4 6 -3 15 3 21 14 9 17 6 23 -19 35 -25 14 -30 14 -35
1 -7 -20 -29 -10 -71 32 -45 45 -45 58 2 52 3 0 10 6 15 15 5 9 15 16 23 16
19 0 81 63 90 90 5 15 12 19 23 15 40 -17 50 -16 70 9 11 14 25 26 30 26 6 0
15 7 20 15 4 9 28 26 53 39 26 14 43 30 41 39 -4 22 61 46 73 27 13 -21 26 -8
23 23 -3 29 0 32 27 35 16 2 46 -2 67 -9 30 -9 40 -9 52 1 15 11 35 11 138 -3
25 -3 41 0 49 9 6 8 20 14 30 14 11 0 19 5 19 10 0 6 10 10 23 10 26 0 96 70
98 98 1 9 5 4 8 -13 l7 -30 11 37 c6 21 28 66 49 100 20 35 39 66 41 71 2 4
-1099 7 -2447 7 l-2451 0 44 -52 c59 -72 112 -131 175 -196 28 -30 52 -57 52
-61 0 -3 16 -23 35 -44 19 -21 35 -41 35 -45 0 -4 16 -24 36 -45 20 -20 33
-37 28 -37 -4 0 2 -10 13 -22 11 -13 33 -47 49 -77 30 -55 69 -105 85 -107 5
-1 12 -2 16 -3 3 0 -1 -9 -11 -19 -15 -18 -15 -19 9 -30 15 -7 25 -20 25 -32
0 -12 12 -31 27 -44 l27 -23 -23 -13 c-29 -15 -44 -2 -44 39 0 27 -3 29 -26
25 -19 -4 -32 1 -45 15 -11 12 -25 21 -33 21 -7 0 -13 7 -13 15 0 8 -6 15 -13
15 -23 0 -284 253 -433 421 -33 36 -99 110 -149 163 -49 54 -96 107 -103 117
-13 18 -37 19 -618 19 l-604 0 0 -979z m5259 232 c25 -14 56 -36 67 -49 15
-15 29 -21 43 -17 14 4 23 0 28 -13 9 -26 34 -43 61 -44 24 0 152 -56 152 -66
0 -4 -18 -4 -40 0 -39 6 -57 -8 -25 -20 8 -4 15 -12 15 -20 0 -10 -16 -6 -57
15 -32 16 -71 33 -88 37 -28 7 -29 7 -12 -10 25 -25 21 -28 -18 -12 -35 15
-45 10 -24 -11 9 -9 1 -9 -27 -3 -21 5 -39 8 -40 7 -1 -1 -4 -12 -8 -23 -5
-16 -2 -23 14 -27 11 -3 20 -12 20 -21 0 -19 -26 -22 -32 -4 -3 8 -20 11 -44
10 -26 -2 -45 2 -53 11 -15 19 1 31 28 22 21 -6 55 21 45 37 -4 6 -10 6 -17
-1 -16 -16 -74 -14 -80 4 -9 21 14 31 25 11 13 -23 38 -20 38 5 0 17 3 19 14
10 13 -11 46 -5 46 8 0 4 -12 14 -27 22 -16 8 -37 22 -48 33 -20 18 -20 18 15
11 l35 -7 -40 21 c-21 12 -46 21 -55 21 -21 0 -23 36 -3 66 20 31 36 30 92 -3z
m-3139 -148 c0 -8 -2 -15 -4 -15 -2 0 -6 7 -10 15 -3 8 -1 15 4 15 6 0 10 -7
10 -15z m9720 -23 c48 -21 58 -38 55 -97 -2 -48 -8 -67 -61 -184 -49 -109
-135 -204 -276 -308 -71 -52 -91 -72 -133 -128 -16 -22 -34 -44 -40 -50 -7 -5
-29 -35 -50 -65 -66 -92 -142 -173 -184 -194 -14 -7 -50 -21 -78 -30 -29 -10
-53 -22 -53 -28 0 -6 -7 -8 -14 -5 -22 9 -65 -16 -125 -73 -36 -34 -61 -50
-73 -47 -13 4 -18 0 -18 -14 0 -14 -7 -19 -26 -19 -26 0 -26 2 -20 42 9 54 36
98 106 169 30 32 65 70 77 86 12 15 34 42 50 58 16 17 42 52 57 78 15 26 47
71 72 100 57 66 59 69 73 95 6 12 19 22 27 22 11 0 13 6 9 20 -5 14 -2 20 10
20 18 0 47 25 39 33 -3 3 4 10 15 17 12 6 21 17 21 25 0 7 10 15 23 17 12 2
22 10 22 18 0 8 9 24 20 36 11 11 27 31 35 43 8 13 23 32 33 43 9 12 17 24 17
27 0 3 22 29 50 56 27 28 50 54 50 60 0 14 160 165 175 165 7 0 18 6 24 14 15
18 46 18 91 -2z m-7010 -3 c0 -8 4 -8 13 -1 14 12 79 1 102 -18 8 -6 13 -29
13 -52 0 -31 -5 -42 -19 -45 -13 -4 -18 -11 -14 -23 9 -27 -8 -32 -49 -15 -20
9 -40 13 -45 11 -4 -3 -15 3 -24 12 -38 41 -64 54 -53 27 3 -10 -1 -15 -12
-15 -9 0 -23 -9 -30 -21 -17 -27 -75 -23 -81 6 -2 11 0 17 4 13 8 -8 35 35 35
56 0 6 20 18 45 25 24 7 49 19 55 26 6 8 18 11 26 8 8 -3 14 0 14 6 0 6 5 11
10 11 6 0 10 -5 10 -11z m-2657 -24 c-3 -8 0 -15 6 -15 6 0 11 -10 11 -22 0
-21 -1 -21 -15 6 -17 32 -20 60 -5 51 5 -3 7 -12 3 -20z m2345 -12 c-10 -2
-26 -2 -35 0 -10 3 -2 5 17 5 19 0 27 -2 18 -5z m1192 -9 c0 -2 -9 -4 -21 -4
-11 0 -18 4 -14 10 5 8 35 3 35 -6z m-1154 -15 c8 -14 -15 -39 -37 -39 -11 0
-19 -7 -19 -16 0 -10 -6 -14 -15 -10 -15 5 -19 -5 -15 -33 1 -9 -4 -12 -14 -8
-15 6 -71 -19 -102 -44 -7 -6 -16 -9 -20 -8 -22 4 -35 -3 -64 -31 -26 -26 -33
-28 -50 -18 -28 18 -16 55 34 102 27 26 36 41 28 44 -27 9 44 34 111 40 38 2
71 10 73 16 6 15 81 19 90 5z m1101 -5 c-3 -3 -12 -4 -19 -1 -8 3 -5 6 6 6 11
1 17 -2 13 -5z m103 -14 c14 -11 22 -20 18 -20 -14 0 -58 23 -58 32 0 13 13 9
40 -12z m-3543 -32 c-3 -7 -5 -2 -5 12 0 14 2 19 5 13 2 -7 2 -19 0 -25z
m3213 7 c7 -8 18 -15 26 -15 7 0 25 -5 41 -11 21 -8 24 -12 13 -19 -8 -5 -27
-1 -49 11 -39 21 -61 24 -61 9 0 -5 -5 -10 -11 -10 -5 0 -7 5 -4 10 3 6 1 10
-4 10 -6 0 -11 7 -11 15 0 9 9 15 24 15 13 0 29 -7 36 -15z m1170 -62 c0 -7 5
-13 10 -13 13 0 13 -11 0 -30 -9 -13 -11 -13 -20 0 -5 8 -10 33 -11 55 0 32
-2 36 -9 20 -10 -24 -13 -5 -3 21 6 16 9 14 19 -11 7 -17 13 -36 14 -42z m20
57 c0 -5 -5 -10 -11 -10 -5 0 -7 5 -4 10 3 6 8 10 11 10 2 0 4 -4 4 -10z m87
-52 c-3 -7 -5 -2 -5 12 0 14 2 19 5 13 2 -7 2 -19 0 -25z m253 22 c0 -5 -5
-10 -11 -10 -5 0 -7 5 -4 10 3 6 8 10 11 10 2 0 4 -4 4 -10z m-1285 -21 c11
-17 0 -20 -21 -4 -17 13 -17 14 -2 15 9 0 20 -5 23 -11z m-1031 -27 c3 -5 -7
-9 -22 -10 -15 0 -40 -4 -57 -8 l-30 -6 35 24 c34 24 59 24 74 0z m756 8 c0
-5 -7 -10 -15 -10 -8 0 -15 5 -15 10 0 6 7 10 15 10 8 0 15 -4 15 -10z m1559
-16 c-13 -14 -25 -20 -27 -14 -7 20 7 40 29 40 l22 0 -24 -26z m-2049 6 c0 -5
-5 -10 -11 -10 -5 0 -7 5 -4 10 3 6 8 10 11 10 2 0 4 -4 4 -10z m570 -15 c0
-1 -10 -5 -23 -7 -14 -3 -24 0 -24 7 0 7 10 10 24 7 13 -2 23 -6 23 -7z m-75
-15 c-3 -5 -17 -10 -31 -10 -13 0 -24 5 -24 10 0 6 14 10 31 10 17 0 28 -4 24
-10z m1510 -9 c3 -5 1 -12 -5 -16 -5 -3 -10 1 -10 9 0 18 6 21 15 7z m-1455
-5 c0 -2 -7 -7 -16 -10 -8 -3 -12 -2 -9 4 6 10 25 14 25 6z m-65 -16 c-3 -5
-13 -10 -21 -10 -8 0 -12 5 -9 10 3 6 13 10 21 10 8 0 12 -4 9 -10z m1555 -11
c0 -5 -4 -9 -10 -9 -5 0 -10 7 -10 16 0 8 5 12 10 9 6 -3 10 -10 10 -16z
m-240 -32 c0 -10 -4 -15 -10 -12 -5 3 -10 18 -10 33 0 21 2 24 10 12 5 -8 10
-23 10 -33z m-2140 12 c0 -6 -6 -9 -12 -6 -7 2 -18 -3 -25 -12 -11 -14 -12
-14 -13 1 0 9 8 21 17 27 19 10 33 6 33 -10z m770 12 c0 -16 -19 -23 -40 -16
-30 10 -24 25 10 25 17 0 30 -4 30 -9z m1249 -66 c0 -29 0 -28 -14 10 -19 52
-19 78 0 45 8 -14 14 -38 14 -55z m342 28 c-12 -20 -14 -14 -5 12 4 9 9 14 11
11 3 -2 0 -13 -6 -23z m-1526 7 c-3 -5 -10 -10 -16 -10 -5 0 -9 5 -9 10 0 6 7
10 16 10 8 0 12 -4 9 -10z m-75 -9 c0 -13 -34 -23 -54 -15 -9 3 -13 10 -10 15
7 12 64 12 64 0z m3183 -5 c3 -8 24 -20 46 -27 22 -7 38 -15 36 -19 -2 -4 10
-7 27 -7 17 0 36 -7 42 -15 8 -10 22 -14 43 -11 21 4 38 0 48 -11 9 -9 23 -16
31 -16 8 0 14 -4 14 -8 0 -5 18 -15 39 -22 36 -11 75 -42 109 -84 18 -23 15
-29 -14 -22 -15 4 -32 2 -40 -5 -7 -6 -39 -13 -71 -16 -47 -4 -63 -11 -92 -39
-40 -38 -53 -41 -71 -19 -7 8 -16 13 -20 10 -4 -2 -17 4 -30 15 -12 10 -28 16
-36 13 -8 -3 -14 0 -14 7 0 8 -11 11 -30 8 -16 -3 -30 -1 -30 4 0 5 -11 6 -25
2 -43 -11 -26 27 28 60 16 10 26 20 22 24 -3 4 -10 0 -14 -7 -5 -7 -14 -10
-20 -7 -6 4 -11 2 -11 -3 0 -6 -7 -11 -15 -11 -8 0 -15 -4 -15 -10 0 -5 -4
-10 -10 -10 -15 0 -12 16 9 60 21 43 20 45 -25 54 -26 6 -31 11 -31 37 0 25 7
34 38 50 21 10 40 23 44 29 9 15 32 12 38 -4z m-3283 -6 c0 -5 -15 -10 -32
-10 -25 0 -29 3 -18 10 20 13 50 13 50 0z m1740 -24 c0 -49 -13 -116 -23 -116
-6 0 -7 18 -3 48 4 26 8 57 8 70 0 12 4 22 9 22 5 0 9 -11 9 -24z m-5007 -17
c46 -23 63 -39 208 -184 61 -60 117 -122 125 -137 8 -16 19 -28 24 -28 5 0 27
-24 48 -52 22 -29 54 -69 71 -88 18 -19 44 -52 57 -72 14 -20 32 -39 40 -42 8
-3 14 -13 14 -22 0 -10 15 -31 34 -48 24 -23 35 -43 40 -77 6 -40 10 -46 39
-55 22 -6 35 -18 42 -39 5 -16 15 -34 22 -38 14 -8 18 -77 6 -77 -18 0 -75 42
-80 58 -2 9 -19 24 -36 33 -20 10 -33 25 -35 39 -4 28 -17 41 -56 58 -16 7
-68 54 -115 104 -47 50 -114 119 -147 153 -34 35 -70 75 -79 89 -10 15 -31 34
-46 42 -16 8 -29 21 -29 29 0 8 -16 26 -35 41 -19 14 -35 31 -35 38 0 6 -21
31 -45 55 -25 25 -45 49 -45 53 0 4 -14 20 -31 35 -39 35 -69 100 -62 137 5
25 9 27 37 22 17 -4 48 -16 69 -27z m3617 21 c0 -5 -17 -10 -37 -10 -21 0 -49
-3 -63 -7 -14 -3 -22 -3 -19 1 6 6 74 22 107 25 6 1 12 -3 12 -9z m1120 0 c0
-5 -4 -10 -10 -10 -5 0 -10 5 -10 10 0 6 5 10 10 10 6 0 10 -4 10 -10z m436
-17 c-10 -10 -19 5 -10 18 6 11 8 11 12 0 2 -7 1 -15 -2 -18z m-1314 -43 l28
-38 -25 -16 c-30 -20 -39 -20 -55 -1 -10 12 -9 15 5 15 15 0 15 3 5 15 -7 9
-18 14 -25 12 -6 -3 -19 1 -30 9 -10 8 -42 14 -69 15 -46 0 -48 1 -26 11 14 6
33 10 44 9 10 -2 22 3 27 10 6 10 13 7 29 -12 13 -15 20 -19 19 -9 -5 51 29
42 73 -20z m-1321 17 c-8 -8 -11 -7 -11 4 0 20 13 34 18 19 3 -7 -1 -17 -7
-23z m2157 1 c-7 -19 -21 -12 -23 9 -1 18 1 20 12 11 8 -6 12 -15 11 -20z
m-2174 -39 c16 -79 -6 -142 -45 -132 -13 4 -17 9 -11 15 6 6 6 24 1 46 -10 42
-3 72 20 89 24 18 28 16 35 -18z m2333 -11 c-3 -7 -5 -2 -5 12 0 14 2 19 5 13
2 -7 2 -19 0 -25z m-3067 -78 c0 -5 -7 -10 -15 -10 -8 0 -15 5 -15 10 0 6 7
10 15 10 8 0 15 -4 15 -10z m2035 -18 c-3 -3 -11 0 -18 7 -9 10 -8 11 6 5 10
-3 15 -9 12 -12z m-131 -12 c42 -16 31 -31 -16 -24 -51 8 -57 12 -38 24 19 12
23 12 54 0z m-1919 -11 c8 -13 -31 -50 -90 -84 -24 -15 -62 -43 -83 -63 -53
-50 -65 -58 -92 -67 -14 -5 -20 -4 -16 3 4 6 -5 12 -20 14 -25 3 -24 5 35 66
34 34 66 62 71 62 6 0 10 7 10 15 0 8 7 15 15 15 8 0 15 6 15 14 0 26 141 49
155 25z m707 -46 c8 -10 18 -26 21 -36 8 -23 -17 -73 -43 -87 -11 -6 -20 -17
-20 -25 0 -7 -6 -15 -12 -18 -10 -4 -10 -7 0 -18 15 -16 16 -85 1 -94 -6 -4
-8 -13 -5 -20 9 -24 -10 -70 -27 -67 -12 2 -17 -4 -17 -20 0 -19 2 -20 11 -8
9 12 10 12 5 -3 -3 -10 -6 -23 -6 -28 0 -5 -4 -9 -10 -9 -5 0 -10 6 -10 14 0
8 -5 16 -11 18 -26 9 -2 171 30 212 5 6 12 33 15 59 11 75 35 147 50 147 7 0
20 -8 28 -17z m1025 11 c-3 -3 -12 -4 -19 -1 -8 3 -5 6 6 6 11 1 17 -2 13 -5z
m743 -64 c0 -5 -2 -10 -4 -10 -3 0 -8 5 -11 10 -3 6 -1 10 4 10 6 0 11 -4 11
-10z m687 -22 c-3 -7 -5 -2 -5 12 0 14 2 19 5 13 2 -7 2 -19 0 -25z m-1077
-23 c0 -10 -12 -13 -42 -11 -24 2 -51 -1 -60 -6 -12 -6 -18 -5 -18 2 0 6 7 13
15 16 8 4 12 11 8 17 -4 6 2 8 15 5 12 -4 22 -2 22 2 0 5 14 4 30 -1 17 -6 30
-17 30 -24z m1107 3 c-3 -7 -5 -2 -5 12 0 14 2 19 5 13 2 -7 2 -19 0 -25z
m1343 -8 c0 -5 -5 -10 -11 -10 -5 0 -7 5 -4 10 3 6 8 10 11 10 2 0 4 -4 4 -10z
m1039 -53 c19 -23 -9 -36 -38 -18 -15 10 -7 31 13 31 8 0 19 -6 25 -13z
m-5818 -48 c-11 -9 -21 -21 -21 -26 0 -10 -88 -53 -108 -53 -18 0 -14 24 6 40
34 28 137 77 141 67 2 -6 -6 -18 -18 -28z m2561 16 c3 -13 2 -22 -2 -20 -11 7
-20 45 -10 45 4 0 10 -11 12 -25z m235 3 c-3 -8 -6 -5 -6 6 -1 11 2 17 5 13 3
-3 4 -12 1 -19z m63 7 c0 -9 -6 -12 -15 -9 -8 4 -15 10 -15 15 0 5 7 9 15 9 8
0 15 -7 15 -15z m-1933 -37 c-3 -7 -5 -2 -5 12 0 14 2 19 5 13 2 -7 2 -19 0
-25z m1498 22 c3 -5 1 -10 -4 -10 -6 0 -11 5 -11 10 0 6 2 10 4 10 3 0 8 -4
11 -10z m65 -11 c0 -6 -4 -7 -10 -4 -5 3 -10 11 -10 16 0 6 5 7 10 4 6 -3 10
-11 10 -16z m-2330 -4 c-7 -9 -15 -13 -19 -10 -3 3 1 10 9 15 21 14 24 12 10
-5z m2310 -30 c0 -5 -5 -3 -10 5 -5 8 -10 20 -10 25 0 6 5 3 10 -5 5 -8 10
-19 10 -25z m-2280 15 c0 -5 -5 -10 -11 -10 -6 0 -3 -7 6 -16 12 -13 18 -14
31 -4 20 17 24 11 31 -50 6 -49 5 -52 -14 -46 -23 7 -69 -27 -58 -43 10 -18
-5 -34 -20 -21 -9 8 -14 6 -19 -5 -3 -8 -11 -15 -18 -15 -7 0 -40 -11 -72 -25
-33 -13 -62 -22 -64 -20 -3 2 13 20 34 40 21 19 33 35 27 35 -7 0 -13 -3 -13
-7 0 -15 -48 -31 -59 -20 -13 13 -61 -28 -62 -52 0 -11 -2 -12 -6 -3 -2 6 -11
12 -19 12 -10 0 -13 -7 -9 -23 4 -16 0 -29 -15 -42 -19 -17 -22 -17 -37 -2
-13 13 -14 19 -4 31 7 8 10 19 7 24 -3 5 4 22 16 37 14 19 23 23 28 15 4 -7
13 -9 19 -5 9 5 7 11 -5 20 -20 14 -13 42 13 52 10 4 41 21 68 38 28 18 75 40
105 51 30 10 66 29 79 41 25 24 41 29 41 13z m2130 -18 c-17 -6 -42 7 -35 18
4 6 13 5 26 -3 10 -6 15 -13 9 -15z m110 -2 c0 -5 -4 -10 -9 -10 -6 0 -13 5
-16 10 -3 6 1 10 9 10 9 0 16 -4 16 -10z m-353 -6 c-3 -3 -12 -4 -19 -1 -8 3
-5 6 6 6 11 1 17 -2 13 -5z m146 -16 c17 -9 24 -28 10 -28 -29 0 -83 23 -83
36 0 15 35 11 73 -8z m-93 3 c0 -5 -7 -11 -15 -15 -15 -5 -20 5 -8 17 9 10 23
9 23 -2z m745 -11 c3 -5 1 -10 -4 -10 -6 0 -11 5 -11 10 0 6 2 10 4 10 3 0 8
-4 11 -10z m515 6 c0 -3 -4 -8 -10 -11 -5 -3 -10 -1 -10 4 0 6 5 11 10 11 6 0
10 -2 10 -4z m-1357 -23 c-7 -3 -13 -9 -13 -14 0 -6 5 -7 10 -4 6 3 10 -1 10
-9 0 -9 -9 -16 -20 -16 -22 0 -26 -20 -8 -38 9 -9 8 -12 -5 -12 -9 0 -17 7
-17 16 0 9 -9 18 -19 21 -12 3 -17 11 -14 19 4 10 10 11 23 4 13 -7 21 -7 25
0 3 5 2 10 -2 10 -5 0 -13 8 -19 18 -10 16 -8 17 25 13 20 -2 30 -6 24 -8z
m3831 -13 c15 -17 24 -35 21 -40 -9 -15 -45 8 -45 28 0 10 -5 23 -12 30 -7 7
-8 12 -2 12 6 0 23 -14 38 -30z m-2488 -22 c-4 7 -2 12 5 12 8 0 9 -14 4 -47
-8 -56 -11 -63 -30 -63 -14 0 -17 21 -9 78 5 30 7 32 22 20 11 -9 14 -10 8 0z
m-1436 -28 c0 -5 -4 -10 -10 -10 -5 0 -10 5 -10 10 0 6 5 10 10 10 6 0 10 -4
10 -10z m2790 0 c0 -5 -5 -10 -11 -10 -5 0 -7 5 -4 10 3 6 8 10 11 10 2 0 4
-4 4 -10z m1205 -10 c10 -11 16 -22 14 -25 -7 -6 -49 24 -49 36 0 15 16 10 35
-11z m-3955 -10 c0 -5 -4 -10 -10 -10 -5 0 -10 5 -10 10 0 6 5 10 10 10 6 0
10 -4 10 -10z m-75 -10 c-3 -5 -15 -10 -26 -10 -10 0 -19 5 -19 10 0 6 12 10
26 10 14 0 23 -4 19 -10z m2118 -30 c-3 -11 -10 -23 -16 -27 -7 -4 -8 0 -4 11
4 10 7 22 7 27 0 5 4 9 9 9 5 0 7 -9 4 -20z m-2046 -16 c-3 -3 -12 -4 -19 -1
-8 3 -5 6 6 6 11 1 17 -2 13 -5z m4288 -21 c-5 -23 -4 -25 9 -14 19 16 53 5
61 -20 4 -10 15 -24 26 -29 14 -8 18 -17 13 -36 -5 -18 0 -32 17 -50 12 -13
27 -24 32 -24 20 0 67 -43 67 -61 0 -22 -11 -24 -28 -7 -9 9 -12 8 -12 -5 0
-23 29 -54 55 -58 21 -5 33 -35 34 -94 l1 -40 -21 43 c-14 27 -28 42 -40 42
-25 0 -24 -25 2 -51 28 -28 24 -86 -6 -81 -11 2 -25 10 -31 18 -10 12 -13 12
-23 0 -23 -27 8 -94 51 -109 10 -4 15 -12 12 -21 -3 -8 -1 -17 5 -21 17 -10
13 -34 -9 -62 -11 -14 -20 -21 -20 -14 0 16 -32 51 -47 51 -7 0 -21 17 -32 38
-11 21 -26 44 -35 51 -20 17 -81 128 -90 163 -3 15 -2 30 4 33 5 3 10 1 10 -4
0 -21 16 -11 26 17 8 22 7 33 -8 57 -10 17 -18 38 -18 49 0 10 -10 27 -22 38
l-22 19 21 5 c21 6 21 6 2 25 -24 24 -24 46 1 87 19 31 19 32 0 32 -28 0 -35
19 -14 40 27 27 37 24 29 -7z m-4135 -13 c11 -7 6 -10 -20 -10 -26 0 -31 3
-20 10 8 5 17 10 20 10 3 0 12 -5 20 -10z m-178 -13 c13 -20 9 -27 -13 -27
-20 0 -52 23 -44 32 10 9 50 6 57 -5z m103 3 c-3 -5 -16 -10 -28 -10 -18 0
-19 2 -7 10 20 13 43 13 35 0z m2595 1 c-21 -6 -16 -9 30 -15 108 -16 102 -40
-9 -38 -83 1 -82 1 -46 17 19 9 24 14 13 15 -18 0 -23 11 -11 23 3 4 16 7 27
6 18 -1 18 -2 -4 -8z m-4524 -36 c-15 -19 -25 -39 -22 -44 3 -5 -4 -9 -17 -9
-12 0 -33 -3 -46 -8 l-25 -7 22 23 c22 24 26 34 23 58 -2 16 16 16 21 0 4 -10
11 -8 29 4 38 27 44 21 15 -17z m1749 25 c-3 -5 -1 -10 5 -10 6 0 8 -5 4 -11
-4 -7 -10 -7 -16 -1 -9 9 -3 32 8 32 3 0 2 -4 -1 -10z m311 -15 c10 -8 14 -15
8 -15 -5 0 -19 7 -30 15 -10 8 -14 15 -8 15 5 0 19 -7 30 -15z m-41 -25 c-3
-5 -14 -6 -26 -3 -15 4 -17 8 -8 13 15 10 41 1 34 -10z m-1958 -12 c-3 -8 -6
-5 -6 6 -1 11 2 17 5 13 3 -3 4 -12 1 -19z m3204 -5 c-8 -15 -10 -15 -11 -2 0
17 10 32 18 25 2 -3 -1 -13 -7 -23z m-1193 -9 c22 -15 31 -54 12 -54 -5 0 -10
7 -10 15 0 16 -18 26 -53 30 -39 4 -42 7 -17 15 37 12 44 11 68 -6z m1859 7
c10 9 13 7 13 -9 0 -11 3 -29 6 -39 4 -13 3 -15 -4 -4 -12 17 -23 -1 -11 -19
5 -8 9 -19 9 -23 0 -14 -21 4 -30 27 -9 21 -9 21 -9 -2 -1 -33 -21 -16 -21 18
0 41 10 64 23 51 7 -7 15 -7 24 0z m738 -1 c-3 -5 -15 -10 -26 -10 -11 0 -17
5 -14 10 3 6 15 10 26 10 11 0 17 -4 14 -10z m-63 -11 c2 -6 16 -11 30 -11 23
0 25 -3 13 -14 -18 -18 -40 -18 -56 2 -7 8 -21 13 -31 11 -10 -3 -20 -1 -23 3
-3 5 7 11 22 13 16 2 31 5 35 6 3 0 8 -4 10 -10z m-4725 -5 c-3 -3 -12 -4 -19
-1 -8 3 -5 6 6 6 11 1 17 -2 13 -5z m823 -26 c0 -23 -3 -29 -9 -19 -8 12 -4
51 5 51 2 0 4 -15 4 -32z m2160 5 c0 -5 -11 -21 -25 -37 -14 -16 -25 -24 -25
-18 0 11 39 62 47 62 2 0 3 -3 3 -7z m-2867 -25 c-13 -6 -25 -19 -28 -28 -5
-15 -54 -34 -63 -25 -5 4 45 52 60 58 7 3 22 5 33 6 19 0 18 -1 -2 -11z m2057
8 c0 -11 -19 -15 -25 -6 -3 5 1 10 9 10 9 0 16 -2 16 -4z m900 -6 c0 -5 -5
-10 -11 -10 -5 0 -7 5 -4 10 3 6 8 10 11 10 2 0 4 -4 4 -10z m1625 -10 c9 -14
48 -13 63 2 9 9 12 8 12 -4 0 -9 9 -19 19 -23 11 -3 22 -12 25 -20 3 -8 14
-15 25 -15 12 0 18 -6 17 -17 -1 -14 5 -17 24 -15 14 1 43 -6 65 -17 l40 -20
-35 6 c-19 3 -43 10 -52 14 -23 12 -31 11 -22 -2 4 -8 -1 -9 -17 -5 -23 6 -23
6 1 -6 52 -26 72 -66 41 -85 -15 -10 -20 -9 -25 2 -3 8 -13 15 -23 15 -15 0
-16 2 -3 10 12 7 8 10 -15 10 -16 0 -48 3 -70 6 l-40 6 25 -21 c14 -11 30 -21
36 -21 7 0 14 -9 17 -20 5 -18 0 -20 -39 -20 -47 0 -54 9 -28 34 14 15 14 16
-1 16 -9 0 -23 -7 -32 -15 -20 -20 -39 -14 -35 11 3 17 1 17 -20 -4 -19 -19
-21 -24 -8 -32 8 -5 11 -12 8 -16 -12 -11 -40 5 -45 26 -5 20 -33 28 -33 10 0
-6 -6 -5 -14 2 -8 7 -12 16 -9 21 2 4 -7 7 -21 7 -19 0 -24 4 -19 16 5 14 16
15 65 10 50 -6 58 -5 58 9 0 13 -6 15 -32 10 l-33 -7 28 27 c16 15 26 29 23
32 -8 9 -64 -8 -77 -23 -6 -8 -19 -14 -27 -14 -12 0 -9 5 8 17 14 9 31 23 38
30 7 7 19 13 26 13 8 0 19 7 26 15 10 12 10 15 -1 15 -16 1 50 39 68 40 6 0
15 -4 18 -10z m125 -11 c0 -5 -7 -9 -15 -9 -15 0 -20 12 -9 23 8 8 24 -1 24
-14z m-2713 5 c-3 -3 -12 -4 -19 -1 -8 3 -5 6 6 6 11 1 17 -2 13 -5z m163 2
c0 -3 -4 -8 -10 -11 -5 -3 -10 -1 -10 4 0 6 5 11 10 11 6 0 10 -2 10 -4z
m-1449 -29 c-10 -9 -11 -8 -5 6 3 10 9 15 12 12 3 -3 0 -11 -7 -18z m2419 -38
c0 -5 -4 -9 -10 -9 -5 0 -10 7 -10 16 0 8 5 12 10 9 6 -3 10 -10 10 -16z m407
-1 c-3 -8 -6 -5 -6 6 -1 11 2 17 5 13 3 -3 4 -12 1 -19z m-5005 -5 c10 -9 18
-24 18 -34 0 -13 5 -16 16 -12 16 6 74 -42 74 -61 0 -6 -5 -4 -10 4 -5 8 -10
11 -10 5 0 -18 15 -34 43 -44 24 -9 26 -14 17 -31 -8 -16 -8 -20 4 -20 13 0
26 -20 26 -41 0 -19 -30 7 -48 40 -10 18 -20 32 -22 30 -13 -7 -49 23 -44 36
4 8 1 15 -5 15 -17 0 -71 52 -65 61 3 5 -2 16 -10 25 -16 15 -22 44 -9 44 3 0
15 -7 25 -17z m5345 -20 c-3 -10 -5 -4 -5 12 0 17 2 24 5 18 2 -7 2 -21 0 -30z
m-17 23 c0 -3 -4 -8 -10 -11 -5 -3 -10 -1 -10 4 0 6 5 11 10 11 6 0 10 -2 10
-4z m-3730 -25 c0 -13 -39 -58 -40 -46 0 10 31 55 38 55 1 0 2 -4 2 -9z m-104
-8 c-15 -4 -17 -11 -12 -44 4 -24 2 -39 -4 -39 -5 0 -10 -6 -10 -12 -1 -16
-46 -68 -59 -68 -5 0 -11 -3 -14 -7 -2 -5 -2 -3 -1 4 7 30 -21 22 -52 -13 -20
-24 -33 -33 -34 -23 0 8 6 21 13 28 10 10 9 15 -5 25 -24 18 -23 23 7 30 22 6
23 9 13 26 -10 16 -9 23 12 45 13 14 32 25 42 25 10 0 18 4 18 9 0 9 39 17 85
18 18 1 18 0 1 -4z m-830 -60 c4 -13 12 -23 20 -23 8 0 14 -4 14 -10 0 -17
-17 -11 -52 17 -18 15 -34 28 -36 29 -1 0 0 8 4 17 5 13 9 14 25 4 11 -7 22
-22 25 -34z m3074 12 c10 -12 10 -18 0 -30 -25 -30 -80 -5 -66 30 7 19 50 19
66 0z m2098 -5 c-13 -20 -28 -27 -28 -12 0 10 22 32 32 32 5 0 3 -9 -4 -20z
m-6991 -2 c15 -7 35 -20 43 -29 8 -9 29 -23 45 -32 35 -18 75 -51 75 -62 0 -5
6 -16 13 -24 7 -9 22 -36 32 -61 10 -25 27 -57 37 -72 25 -36 23 -55 -9 -83
-31 -27 -74 -32 -120 -14 -15 6 -45 11 -65 11 -21 -1 -38 3 -38 9 0 5 -6 9
-13 9 -16 0 -55 41 -94 101 -50 76 -56 243 -9 252 42 8 76 7 103 -5z m8753 2
c0 -5 -5 -10 -11 -10 -5 0 -7 5 -4 10 3 6 8 10 11 10 2 0 4 -4 4 -10z m-5426
-16 c21 -8 20 -43 -3 -73 l-19 -24 -7 31 c-6 28 0 72 10 72 2 0 10 -3 19 -6z
m5171 -14 c3 -5 1 -10 -4 -10 -6 0 -11 5 -11 10 0 6 2 10 4 10 3 0 8 -4 11
-10z m-5825 -4 c0 -3 -4 -8 -10 -11 -5 -3 -10 -1 -10 4 0 6 5 11 10 11 6 0 10
-2 10 -4z m4705 -44 c-7 -8 -35 7 -35 18 0 6 7 6 20 -2 10 -7 17 -14 15 -16z
m-1625 3 c0 -8 -4 -15 -10 -15 -5 0 -10 7 -10 15 0 8 5 15 10 15 6 0 10 -7 10
-15z m92 -27 c-7 -7 -12 -8 -12 -2 0 14 12 26 19 19 2 -3 -1 -11 -7 -17z
m-3943 -13 c3 -17 2 -17 -13 -3 -19 20 -21 31 -3 26 6 -3 14 -13 16 -23z
m1476 -3 c-3 -3 -11 0 -18 7 -9 10 -8 11 6 5 10 -3 15 -9 12 -12z m3943 -27
c26 -25 42 -45 35 -45 -7 0 -27 16 -46 35 -19 19 -39 35 -45 35 -6 0 -14 5
-17 10 -3 6 1 10 9 10 9 0 37 -20 64 -45z m-364 19 c19 -19 20 -26 4 -42 -30
-30 -78 0 -58 37 13 25 33 27 54 5z m-1069 -4 c3 -5 1 -10 -4 -10 -6 0 -11 5
-11 10 0 6 2 10 4 10 3 0 8 -4 11 -10z m-2505 -26 c0 -8 -4 -12 -10 -9 -5 3
-10 13 -10 21 0 8 5 12 10 9 6 -3 10 -13 10 -21z m4290 -78 c0 -7 7 -20 17
-27 15 -13 16 -11 9 15 -6 26 -5 28 8 17 9 -8 16 -20 16 -27 0 -8 4 -14 9 -14
5 0 12 -11 15 -24 3 -13 9 -31 12 -40 4 -11 0 -16 -12 -16 -17 -1 -17 -2 -4
-13 25 -20 43 -60 45 -94 1 -28 -3 -33 -21 -33 -40 0 -74 18 -74 40 0 16 -7
20 -35 20 -24 0 -35 5 -35 15 0 8 6 15 13 15 22 0 34 20 29 46 -2 13 -10 24
-18 24 -21 0 -84 60 -84 81 0 22 3 22 47 10 26 -7 31 -7 26 5 -3 9 2 14 16 14
12 0 21 -6 21 -14z m-4383 -28 c-3 -7 -5 -2 -5 12 0 14 2 19 5 13 2 -7 2 -19
0 -25z m3486 -55 c5 -45 3 -63 -5 -63 -15 0 -58 40 -58 55 0 11 51 78 55 73 1
-2 5 -31 8 -65z m1787 32 c0 -14 -2 -25 -4 -25 -2 0 -6 11 -8 25 -3 14 -1 25
3 25 5 0 9 -11 9 -25z m280 -35 c0 -5 -4 -10 -10 -10 -5 0 -10 5 -10 10 0 6 5
10 10 10 6 0 10 -4 10 -10z m-3053 -22 c-3 -8 -6 -5 -6 6 -1 11 2 17 5 13 3
-3 4 -12 1 -19z m396 -23 c-3 -9 -8 -14 -10 -11 -3 3 -2 9 2 15 9 16 15 13 8
-4z m147 -45 c-6 -12 -14 -20 -17 -17 -2 3 1 14 8 26 17 26 24 19 9 -9z m2541
10 c19 -11 27 -50 10 -50 -11 0 -41 39 -41 52 0 11 8 10 31 -2z m-7221 -50 c0
-11 -4 -20 -9 -20 -11 0 -22 26 -14 34 12 12 23 5 23 -14z m1580 -11 c0 -17
-4 -28 -10 -24 -5 3 -10 17 -10 31 0 13 5 24 10 24 6 0 10 -14 10 -31z m1920
21 c0 -5 -4 -10 -10 -10 -5 0 -10 5 -10 10 0 6 5 10 10 10 6 0 10 -4 10 -10z
m1480 -30 c0 -5 -5 -10 -11 -10 -5 0 -7 5 -4 10 3 6 8 10 11 10 2 0 4 -4 4
-10z m-4940 -26 c0 -8 -9 -14 -20 -14 -22 0 -28 26 -7 33 16 6 27 -1 27 -19z
m5000 2 c0 -3 -4 -8 -10 -11 -5 -3 -10 -1 -10 4 0 6 5 11 10 11 6 0 10 -2 10
-4z m2230 -6 c0 -5 -4 -10 -10 -10 -5 0 -10 5 -10 10 0 6 5 10 10 10 6 0 10
-4 10 -10z m-7178 -30 c7 -11 21 -20 30 -20 11 0 18 -8 18 -20 0 -13 7 -20 20
-20 11 0 20 -4 20 -9 0 -4 18 -20 40 -35 22 -14 39 -30 38 -34 -3 -7 49 -62
58 -62 9 0 34 -28 34 -37 0 -4 9 -14 20 -21 11 -7 20 -19 20 -27 0 -9 6 -12
15 -9 8 4 15 2 15 -4 0 -5 16 -26 35 -46 62 -66 155 -184 155 -198 0 -7 9 -24
20 -38 11 -14 20 -29 20 -33 0 -4 9 -17 20 -29 11 -12 20 -30 20 -39 0 -10 6
-19 14 -21 12 -2 12 -6 2 -20 -11 -16 -14 -15 -39 6 -15 13 -27 29 -27 36 0 7
-7 10 -15 6 -16 -6 -55 26 -55 44 0 6 -5 10 -11 10 -14 0 -69 56 -69 70 0 5
-7 10 -15 10 -8 0 -15 4 -15 10 0 5 -25 35 -55 67 -30 32 -55 61 -55 66 0 4
-16 21 -35 38 -19 17 -35 37 -35 45 0 7 -10 24 -22 37 -46 50 -83 101 -88 120
-3 12 -19 28 -35 37 -20 11 -32 27 -35 46 -3 16 -10 29 -15 30 -24 2 -45 18
-45 33 0 36 33 42 52 11z m4878 0 c0 -5 -2 -10 -4 -10 -3 0 -8 5 -11 10 -3 6
-1 10 4 10 6 0 11 -4 11 -10z m2305 -39 c-10 -32 -35 -26 -35 7 0 36 10 46 28
28 9 -8 11 -22 7 -35z m-2895 9 c0 -5 -4 -10 -10 -10 -5 0 -10 5 -10 10 0 6 5
10 10 10 6 0 10 -4 10 -10z m-1139 -53 c-13 -13 -15 1 -4 30 7 17 8 17 11 -1
2 -10 -1 -23 -7 -29z m2049 33 c10 -6 11 -10 3 -10 -7 0 -13 -8 -13 -17 0 -16
-1 -16 -16 -1 -9 9 -13 21 -10 27 9 13 16 14 36 1z m-194 -44 c8 -8 14 -22 14
-31 0 -12 -6 -15 -22 -9 -31 9 -35 14 -19 23 7 5 10 14 7 20 -10 16 3 14 20
-3z m-341 -36 c-3 -5 -11 -10 -16 -10 -6 0 -7 5 -4 10 3 6 11 10 16 10 6 0 7
-4 4 -10z m770 0 c3 -5 -1 -10 -9 -10 -9 0 -16 5 -16 10 0 6 4 10 9 10 6 0 13
-4 16 -10z m-2312 -20 c-6 -24 -23 -37 -23 -18 0 12 18 38 26 38 1 0 0 -9 -3
-20z m2207 10 c0 -5 -2 -10 -4 -10 -3 0 -8 5 -11 10 -3 6 -1 10 4 10 6 0 11
-4 11 -10z m-5260 -4 c0 -11 -19 -15 -25 -6 -3 5 1 10 9 10 9 0 16 -2 16 -4z
m1345 -6 c-3 -5 -10 -10 -16 -10 -5 0 -9 5 -9 10 0 6 7 10 16 10 8 0 12 -4 9
-10z m-55 -14 c0 -3 -4 -8 -10 -11 -5 -3 -10 -1 -10 4 0 6 5 11 10 11 6 0 10
-2 10 -4z m3320 -5 c0 -6 -4 -13 -10 -16 -5 -3 -10 1 -10 9 0 9 5 16 10 16 6
0 10 -4 10 -9z m50 -1 c0 -5 -4 -10 -10 -10 -5 0 -10 5 -10 10 0 6 5 10 10 10
6 0 10 -4 10 -10z m1045 0 c3 -5 19 -10 34 -10 39 0 43 -9 21 -40 -27 -38 -26
-43 18 -65 l37 -19 -27 -4 c-32 -4 -39 -32 -9 -32 36 0 73 19 67 35 -3 9 0 15
9 15 25 0 27 -19 6 -49 -12 -16 -21 -34 -21 -40 0 -6 -3 -11 -7 -10 -5 1 -18
-2 -30 -6 -18 -6 -23 -15 -23 -39 0 -24 3 -27 10 -16 5 8 10 13 11 10 10 -62
8 -80 -11 -92 -11 -7 -20 -23 -20 -35 0 -33 -21 -72 -42 -78 -22 -8 -22 -14
-2 -43 18 -27 11 -42 -20 -42 -13 0 -29 -6 -35 -14 -19 -23 -9 -69 17 -82 21
-10 21 -12 5 -17 -10 -2 -27 -8 -37 -13 -14 -5 -17 -4 -11 6 5 8 3 11 -6 8 -8
-3 -13 -10 -12 -17 2 -6 -21 -25 -50 -42 -49 -29 -46 -31 23 -13 14 4 22 3 18
-1 -8 -9 33 -45 54 -46 7 0 -15 -7 -49 -16 -35 -8 -63 -19 -63 -25 0 -6 7 -7
18 -2 31 13 95 17 88 5 -4 -6 -18 -11 -31 -11 -22 0 -24 -2 -15 -26 8 -19 6
-31 -5 -47 -8 -12 -15 -33 -15 -47 0 -14 -5 -31 -11 -37 -6 -6 -12 -33 -14
-60 -3 -41 0 -51 16 -62 18 -11 21 -9 26 8 3 12 9 21 14 21 13 0 11 -14 -6
-36 -8 -10 -15 -27 -15 -36 0 -9 -7 -21 -17 -26 -14 -8 -13 -11 7 -17 19 -6
27 -3 38 14 17 24 32 28 32 6 0 -9 6 -12 15 -9 19 8 20 24 1 24 -7 0 -16 10
-19 23 -2 12 -8 31 -13 42 -7 18 -6 18 9 6 11 -9 17 -10 17 -2 0 6 9 11 19 11
10 0 21 6 24 13 3 8 19 14 36 15 41 1 40 -19 -4 -63 -19 -20 -32 -41 -29 -49
7 -19 -24 -66 -45 -66 -14 0 -14 -2 -1 -11 11 -8 8 -9 -15 -4 -16 4 -32 10
-35 14 -3 5 -39 9 -80 10 -82 2 -88 -5 -14 -19 60 -11 162 -37 150 -39 -5 -1
-3 -8 4 -16 9 -10 9 -15 1 -15 -6 0 -11 4 -11 9 0 4 -15 11 -32 14 -94 17
-264 60 -273 69 -7 7 -1 9 18 4 44 -10 23 12 -23 24 -38 10 -38 11 -25 38 8
15 29 32 47 39 18 6 25 12 15 12 -9 1 -26 6 -36 13 -15 9 -17 16 -10 31 6 10
12 42 13 70 2 39 7 52 22 58 16 6 15 8 -11 15 -16 4 -37 7 -45 6 -13 -3 -13
-2 0 7 8 6 22 11 30 11 9 0 33 9 55 20 22 11 46 20 54 20 8 0 12 3 9 6 -4 3
-34 -2 -69 -10 -34 -9 -64 -14 -68 -11 -3 3 5 8 17 12 12 3 20 8 17 12 -2 4
26 23 61 42 36 19 68 37 70 41 5 8 -114 -46 -124 -56 -3 -3 -15 -6 -27 -6 -13
0 -28 -6 -34 -14 -12 -14 -61 -28 -59 -17 2 22 -4 32 -16 28 -21 -8 -28 4 -10
18 14 10 15 14 3 33 -8 12 -20 22 -27 22 -8 0 -12 8 -10 18 3 13 12 16 38 14
l35 -2 -28 18 c-15 10 -24 21 -21 25 4 4 -5 11 -20 17 -27 10 -31 38 -6 32 15
-3 31 18 24 30 -3 4 -14 8 -24 8 -19 0 -47 37 -36 47 3 3 21 -8 40 -25 19 -17
43 -35 53 -41 15 -9 16 -12 3 -20 -10 -7 -6 -10 18 -9 38 1 38 3 12 46 -11 18
-18 37 -15 43 9 14 -4 49 -18 49 -7 0 -24 10 -38 23 -14 12 -34 27 -44 33 -31
17 -32 37 -1 23 14 -7 26 -15 26 -18 0 -13 133 -70 164 -71 6 0 0 9 -12 20
-12 11 -28 20 -37 20 -25 0 -56 20 -49 32 4 6 34 8 83 5 42 -3 66 -3 53 0 -23
4 -23 5 -5 19 16 13 14 14 -20 8 -25 -4 -44 -1 -60 8 -27 18 -91 78 -84 78 14
0 57 -24 57 -32 0 -4 9 -8 21 -8 11 0 18 -4 15 -8 -3 -5 14 -7 37 -6 60 2 61
2 48 18 -9 10 -9 16 -1 21 8 5 8 10 0 20 -20 24 3 65 36 65 14 0 15 3 6 12
-15 15 -85 -20 -77 -39 2 -8 -3 -13 -14 -13 -27 0 -33 11 -13 27 15 12 13 13
-16 8 -25 -5 -41 -1 -67 17 -19 12 -35 29 -35 36 0 6 -9 12 -20 12 -11 0 -20
4 -20 9 0 5 -10 12 -22 16 -15 4 -19 8 -10 12 17 7 80 -25 110 -55 18 -19 29
-22 55 -16 17 3 35 11 38 17 4 5 23 7 43 4 22 -4 41 -1 48 7 7 7 22 15 32 19
15 6 17 10 8 19 -20 20 -14 47 13 54 14 3 25 10 25 15 0 5 9 18 20 29 11 11
16 20 10 20 -22 0 -3 26 30 42 39 19 96 23 105 8z m-1186 -41 c-26 -20 -38
-17 -21 4 7 8 19 14 28 14 12 0 10 -5 -7 -18z m141 11 c0 -5 -9 -10 -21 -10
-11 0 -17 5 -14 10 3 6 13 10 21 10 8 0 14 -4 14 -10z m1204 -6 c3 -9 4 -19 1
-24 -7 -11 -55 12 -55 28 0 18 47 15 54 -4z m-1299 -14 c3 -5 1 -10 -4 -10 -6
0 -11 5 -11 10 0 6 2 10 4 10 3 0 8 -4 11 -10z m30 -20 c3 -5 1 -10 -4 -10 -6
0 -11 5 -11 10 0 6 2 10 4 10 3 0 8 -4 11 -10z m503 -14 c16 -15 14 -16 -18
-10 -19 4 -37 10 -40 14 -3 4 -12 10 -20 13 -8 3 2 5 23 3 21 -2 46 -11 55
-20z m-463 -6 c-3 -5 -10 -10 -16 -10 -5 0 -9 5 -9 10 0 6 7 10 16 10 8 0 12
-4 9 -10z m-125 -4 c0 -2 -7 -6 -15 -10 -8 -3 -15 -1 -15 4 0 6 7 10 15 10 8
0 15 -2 15 -4z m510 -27 c0 -6 -4 -7 -10 -4 -5 3 -10 11 -10 16 0 6 5 7 10 4
6 -3 10 -11 10 -16z m-2433 5 c-3 -3 -12 -4 -19 -1 -8 3 -5 6 6 6 11 1 17 -2
13 -5z m2495 -16 c2 -13 8 -23 13 -23 6 0 17 -6 25 -13 8 -7 24 -20 35 -28 20
-15 20 -15 -2 -11 -12 3 -22 2 -21 -2 0 -3 0 -21 -1 -38 -1 -32 -2 -32 -21
-16 -11 10 -20 24 -20 31 0 12 3 12 14 2 12 -9 15 -8 13 9 0 11 -5 17 -10 14
-5 -3 -22 9 -39 26 -17 17 -25 31 -19 31 8 0 10 8 6 20 -4 14 -2 20 9 20 8 0
16 -10 18 -22z m-382 -4 c0 -8 -4 -12 -10 -9 -5 3 -10 10 -10 16 0 5 5 9 10 9
6 0 10 -7 10 -16z m641 -18 c49 7 60 -12 18 -30 -25 -11 -37 -11 -53 -2 -53
30 -79 67 -28 40 17 -9 40 -12 63 -8z m97 2 c-6 -18 -28 -21 -28 -4 0 9 7 16
16 16 9 0 14 -5 12 -12z m-2708 -7 c0 -5 -7 -12 -16 -15 -14 -5 -15 -4 -4 9
14 17 20 19 20 6z m-1570 -5 c0 -3 -4 -8 -10 -11 -5 -3 -10 -1 -10 4 0 6 5 11
10 11 6 0 10 -2 10 -4z m3368 -1 c-11 -11 -68 -23 -68 -15 0 5 12 11 28 13 15
2 31 5 36 6 5 0 7 -1 4 -4z m56 -31 c3 -8 1 -14 -4 -14 -6 0 -10 -8 -10 -17 0
-25 -20 -2 -25 29 -4 22 -2 25 14 21 11 -3 22 -11 25 -19z m166 22 c0 -2 -9
-6 -20 -9 -11 -3 -20 -1 -20 4 0 5 9 9 20 9 11 0 20 -2 20 -4z m-580 -49 c0
-20 -25 1 -28 24 -2 23 -2 23 13 5 8 -11 15 -24 15 -29z m270 33 c0 -5 -5 -10
-11 -10 -5 0 -7 5 -4 10 3 6 8 10 11 10 2 0 4 -4 4 -10z m-355 -18 c-3 -3 -11
0 -18 7 -9 10 -8 11 6 5 10 -3 15 -9 12 -12z m315 3 c-7 -9 -15 -13 -19 -10
-3 3 1 10 9 15 21 14 24 12 10 -5z m121 8 c-11 -5 -11 -7 0 -14 10 -6 11 -9 2
-9 -7 0 -13 -7 -13 -15 0 -8 5 -15 10 -15 6 0 10 -4 10 -10 0 -5 -5 -10 -11
-10 -14 0 -39 25 -39 39 0 14 -13 14 -28 -1 -9 -9 -12 -8 -12 5 0 12 8 17 29
17 17 0 33 5 36 10 3 6 12 10 18 9 8 0 7 -3 -2 -6z m219 -44 c0 -5 -9 -9 -20
-9 -22 0 -27 16 -7 23 15 5 27 -1 27 -14z m-473 -15 c-9 -9 -28 6 -21 18 4 6
10 6 17 -1 6 -6 8 -13 4 -17z m43 -7 c0 -5 -4 -5 -10 -2 -5 3 -10 14 -10 23 0
15 2 15 10 2 5 -8 10 -19 10 -23z m-80 13 c0 -5 -4 -10 -10 -10 -5 0 -10 5
-10 10 0 6 5 10 10 10 6 0 10 -4 10 -10z m160 -7 c0 -8 -4 -12 -9 -8 -5 3 -12
-3 -14 -12 -3 -12 -5 -9 -6 8 -1 17 4 26 14 26 8 0 15 -7 15 -14z m300 -3 c0
-5 -5 -10 -11 -10 -5 0 -7 5 -4 10 3 6 8 10 11 10 2 0 4 -4 4 -10z m-270 -10
c0 -5 -5 -10 -11 -10 -5 0 -7 5 -4 10 3 6 8 10 11 10 2 0 4 -4 4 -10z m57 -12
c-3 -8 -6 -5 -6 6 -1 11 2 17 5 13 3 -3 4 -12 1 -19z m745 -2 c11 7 58 -15 58
-27 0 -11 -74 18 -76 30 -2 7 0 7 3 1 2 -5 9 -7 15 -4z m-652 -6 c-20 -13 -43
-13 -35 0 3 6 16 10 28 10 18 0 19 -2 7 -10z m-390 -10 c0 -5 -2 -10 -4 -10
-3 0 -8 5 -11 10 -3 6 -1 10 4 10 6 0 11 -4 11 -10z m315 -9 c-3 -6 -11 -11
-17 -11 -6 0 -6 6 2 15 14 17 26 13 15 -4z m132 3 c-3 -3 -12 -4 -19 -1 -8 3
-5 6 6 6 11 1 17 -2 13 -5z m-212 -13 c3 -5 1 -12 -5 -16 -5 -3 -10 1 -10 9 0
18 6 21 15 7z m-810 -11 c3 -6 -1 -7 -9 -4 -18 7 -21 14 -7 14 6 0 13 -4 16
-10z m855 6 c0 -3 -4 -8 -10 -11 -5 -3 -10 -1 -10 4 0 6 5 11 10 11 6 0 10 -2
10 -4z m86 -22 c-11 -7 -22 -12 -25 -9 -2 3 4 12 15 19 10 8 21 12 24 9 3 -2
-4 -11 -14 -19z m-306 -16 c0 -5 -4 -8 -10 -8 -5 0 -10 10 -10 23 0 18 2 19
10 7 5 -8 10 -18 10 -22z m375 22 c3 -5 1 -10 -4 -10 -6 0 -11 5 -11 10 0 6 2
10 4 10 3 0 8 -4 11 -10z m785 -30 c13 -8 13 -10 -2 -10 -9 0 -20 5 -23 10 -8
13 5 13 25 0z m-825 -18 c-3 -3 -11 0 -18 7 -9 10 -8 11 6 5 10 -3 15 -9 12
-12z m293 -5 c10 -8 10 -12 0 -18 -7 -5 -21 -1 -33 9 -19 16 -19 16 -6 0 12
-16 11 -18 -3 -18 -9 0 -16 4 -16 9 0 5 -3 17 -6 26 -5 13 -2 15 22 9 16 -4
35 -11 42 -17z m307 13 c-3 -5 -1 -10 6 -10 7 0 10 -3 6 -6 -10 -10 -39 5 -32
16 3 5 11 10 16 10 6 0 7 -4 4 -10z m-448 -32 c-3 -8 -6 -5 -6 6 -1 11 2 17 5
13 3 -3 4 -12 1 -19z m53 12 c8 -5 11 -12 7 -16 -4 -4 -15 0 -24 9 -18 18 -8
23 17 7z m-240 -10 c0 -5 -2 -10 -4 -10 -3 0 -8 5 -11 10 -3 6 -1 10 4 10 6 0
11 -4 11 -10z m110 -5 c0 -8 -7 -15 -16 -15 -10 0 -14 -6 -11 -14 3 -8 0 -20
-8 -26 -11 -9 -13 -6 -11 16 2 15 11 33 21 41 24 16 25 16 25 -2z m628 -9 c5
-6 -7 -26 -16 -26 -4 0 -18 10 -32 21 l-25 21 34 -6 c19 -4 36 -8 39 -10z
m-578 -34 c-8 -3 -21 -9 -27 -15 -18 -14 -16 -1 3 17 8 9 21 13 27 9 7 -4 6
-8 -3 -11z m47 2 c-3 -3 -12 -4 -19 -1 -8 3 -5 6 6 6 11 1 17 -2 13 -5z m-97
-18 c0 -3 -4 -8 -10 -11 -5 -3 -10 -1 -10 4 0 6 5 11 10 11 6 0 10 -2 10 -4z
m565 -36 c22 -10 40 -22 40 -27 0 -4 5 -7 11 -7 6 1 11 -11 11 -26 l0 -27 -53
41 c-49 38 -73 66 -56 66 4 -1 25 -9 47 -20z m3541 -100 c27 0 32 -21 9 -40
-8 -7 -17 -28 -21 -49 -7 -43 -51 -160 -68 -181 -7 -8 -25 -40 -41 -70 -15
-30 -41 -71 -57 -91 -15 -20 -28 -42 -28 -49 0 -6 -53 -65 -118 -130 -65 -64
-129 -133 -142 -151 -13 -19 -37 -50 -52 -69 -34 -41 -33 -40 -83 -107 -22
-29 -43 -53 -47 -53 -4 0 -38 -15 -76 -33 -45 -22 -75 -31 -88 -27 -10 4 -22
6 -26 3 -4 -2 -5 3 -2 11 3 9 1 16 -5 16 -17 0 -29 62 -18 100 18 67 78 158
153 231 41 41 85 90 97 109 21 35 84 121 110 150 7 8 24 32 36 53 12 20 30 43
39 50 10 6 29 28 43 47 57 75 269 268 269 245 0 -4 14 5 31 19 17 14 35 24 40
20 5 -3 9 1 10 8 0 10 2 10 6 1 2 -7 16 -13 29 -13z m-4334 -37 c0 -7 1 -18 2
-25 1 -7 -9 -15 -22 -18 -13 -3 -23 -9 -22 -15 0 -5 -14 -13 -32 -16 l-33 -6
38 -2 c20 0 37 -5 37 -11 0 -5 7 -10 15 -10 8 0 15 -5 15 -11 0 -7 -7 -8 -17
-4 -10 4 -24 9 -30 12 -7 3 -13 0 -13 -6 0 -6 9 -11 20 -11 11 0 20 -6 20 -14
0 -8 4 -18 10 -21 5 -3 7 0 4 8 -3 8 2 17 11 21 9 3 13 2 10 -4 -4 -6 5 -10
20 -10 18 0 24 4 19 13 -5 7 -1 7 10 -2 15 -13 19 -13 26 -1 7 12 12 11 29 -4
12 -11 21 -15 21 -10 0 15 -35 41 -48 36 -19 -6 -14 16 6 26 29 15 109 -26 82
-43 -5 -3 -10 -1 -10 4 0 6 -8 11 -17 11 -17 -1 -17 -1 0 -11 9 -5 17 -16 17
-24 0 -8 9 -20 20 -27 11 -7 20 -19 20 -27 0 -11 3 -10 13 3 12 16 14 14 27
-25 7 -24 14 -53 17 -64 2 -11 6 -35 9 -53 7 -36 -12 -85 -30 -79 -6 2 -9 21
-8 43 2 44 -37 112 -76 129 -12 5 -22 15 -22 22 0 7 -8 13 -17 13 -16 0 -16
-2 -3 -11 12 -9 12 -10 -3 -5 -10 3 -25 6 -33 6 -8 0 -11 6 -8 15 5 11 -1 13
-29 8 -19 -3 -37 -1 -41 5 -7 12 -46 4 -46 -9 0 -5 -11 -2 -25 7 -17 11 -25
12 -25 5 0 -7 -4 -9 -10 -6 -13 8 -13 55 0 55 5 0 7 -8 4 -17 -5 -16 -4 -16 6
0 6 10 9 25 6 32 -3 8 0 18 7 22 7 5 -1 10 -21 13 l-34 5 22 25 c12 14 27 32
34 41 23 33 75 47 78 22z m31 -7 c4 -10 1 -13 -9 -9 -7 3 -14 9 -14 14 0 14
17 10 23 -5z m-473 -30 c0 -8 7 -17 16 -20 8 -3 12 -10 9 -16 -3 -5 -1 -10 5
-10 7 0 9 8 5 20 -7 22 18 29 30 9 4 -6 19 -10 33 -9 46 3 54 1 48 -15 -7 -20
1 -19 31 5 31 24 44 18 20 -8 -10 -10 -14 -22 -11 -25 4 -4 15 3 26 15 10 12
21 18 24 15 4 -3 -11 -23 -32 -43 -22 -21 -32 -32 -24 -26 17 12 33 5 44 -18
3 -8 4 0 1 18 -3 20 0 32 7 32 6 0 9 -3 6 -6 -4 -3 0 -21 8 -40 8 -19 12 -45
8 -59 -7 -27 -24 -34 -24 -9 0 8 -5 12 -11 9 -5 -4 -19 1 -30 11 -10 9 -19 12
-19 6 0 -8 -7 -9 -24 -2 -13 5 -27 6 -32 2 -4 -4 -4 1 0 12 4 12 2 17 -6 13
-48 -19 -51 -20 -44 -9 4 7 1 12 -8 12 -8 0 -18 -4 -21 -10 -10 -16 -25 -12
-25 7 0 13 -3 12 -19 -6 l-19 -21 -7 22 c-6 22 -7 22 -13 3 -4 -11 -13 -20
-19 -21 -33 -3 -35 -5 -30 -36 3 -18 3 -27 0 -20 -7 17 -28 15 -44 -4 -12 -14
-14 -14 -20 3 -9 23 0 63 19 86 14 15 13 19 -2 36 -17 19 -17 19 3 14 17 -4
20 -2 15 11 -4 12 -2 15 9 10 10 -3 18 2 22 17 5 14 3 25 -4 27 -6 2 -11 8
-11 14 0 6 7 4 17 -3 9 -8 19 -14 22 -14 3 0 6 -8 6 -17 2 -28 15 -34 15 -7 0
17 3 20 9 10 5 -8 14 -10 21 -6 9 6 6 12 -11 21 l-24 13 25 1 c20 0 22 2 10
10 -13 8 -12 10 3 10 9 0 17 -6 17 -14z m465 -36 c-5 -15 -2 -20 13 -20 11 0
23 6 25 13 3 7 6 4 6 -7 1 -16 -4 -18 -34 -13 -29 5 -65 26 -65 39 0 2 14 4
31 5 26 2 29 -1 24 -17z m-575 0 c0 -5 -7 -7 -15 -4 -8 4 -15 8 -15 10 0 2 7
4 15 4 8 0 15 -4 15 -10z m865 1 c3 -5 1 -12 -5 -16 -5 -3 -10 1 -10 9 0 18 6
21 15 7z m295 -1 c0 -5 -4 -10 -10 -10 -5 0 -10 5 -10 10 0 6 5 10 10 10 6 0
10 -4 10 -10z m-773 -60 c-1 -45 -12 -53 -19 -15 -3 14 -1 25 3 25 5 0 9 5 9
11 0 5 -5 7 -12 3 -7 -4 -8 -3 -4 4 14 24 25 11 23 -28z m773 20 c0 -5 -7 -10
-16 -10 -8 0 -12 5 -9 10 3 6 10 10 16 10 5 0 9 -4 9 -10z m-748 -34 c3 -14 1
-31 -3 -38 -6 -8 -9 1 -9 25 0 42 6 48 12 13z m-455 -19 c-10 -6 -19 -22 -22
-34 -2 -13 -8 -31 -14 -40 -9 -15 -10 -13 -11 15 0 23 8 40 27 58 14 13 28 22
31 19 3 -3 -2 -11 -11 -18z m1213 13 c-8 -5 -19 -10 -25 -10 -5 0 -3 5 5 10 8
5 20 10 25 10 6 0 3 -5 -5 -10z m-767 -67 c-3 -7 0 -13 7 -13 7 0 10 -7 6 -15
-3 -9 0 -15 9 -15 8 0 15 -9 15 -19 0 -14 -5 -18 -20 -14 -11 3 -27 0 -35 -7
-10 -8 -15 -9 -15 -2 0 6 4 13 9 16 5 3 11 15 14 26 3 11 1 18 -4 14 -5 -3 -8
6 -7 19 1 13 7 24 14 24 7 0 10 -6 7 -14z m977 -17 c-14 -14 -22 -2 -14 18 5
14 9 15 15 4 4 -7 4 -17 -1 -22z m-4040 -24 l0 -26 -16 22 c-8 12 -12 27 -9
32 10 17 25 1 25 -28z m3855 16 c6 -4 2 -8 -7 -8 -10 0 -18 7 -18 17 0 9 3 12
8 7 4 -5 12 -12 17 -16z m-925 2 c0 -5 -4 -10 -10 -10 -5 0 -10 5 -10 10 0 6
5 10 10 10 6 0 10 -4 10 -10z m293 3 c-7 -2 -19 -2 -25 0 -7 3 -2 5 12 5 14 0
19 -2 13 -5z m904 1 c-3 -3 -12 -4 -19 -1 -8 3 -5 6 6 6 11 1 17 -2 13 -5z
m-968 -29 c16 5 21 2 22 -12 1 -16 2 -16 6 -1 4 16 7 16 31 4 15 -7 33 -11 40
-9 6 3 12 0 12 -6 0 -6 -4 -10 -9 -8 -5 1 -18 -8 -29 -21 -13 -15 -23 -19 -27
-12 -4 6 -15 8 -26 5 -11 -4 -19 -2 -19 6 0 8 -4 8 -15 -1 -20 -16 -22 -14
-29 40 -5 40 -4 43 9 27 9 -13 20 -17 34 -12z m-5649 0 c0 -10 -10 -15 -32
-15 -31 1 -32 1 -14 15 25 19 46 19 46 0z m5493 -6 c4 -16 3 -18 -9 -8 -16 13
-19 29 -5 29 5 0 11 -9 14 -21z m37 11 c0 -5 -4 -10 -10 -10 -5 0 -10 5 -10
10 0 6 5 10 10 10 6 0 10 -4 10 -10z m210 0 c0 -5 -2 -10 -4 -10 -3 0 -8 5
-11 10 -3 6 -1 10 4 10 6 0 11 -4 11 -10z m247 -12 c-3 -8 -6 -5 -6 6 -1 11 2
17 5 13 3 -3 4 -12 1 -19z m-5947 2 c0 -5 -4 -10 -10 -10 -5 0 -10 5 -10 10 0
6 5 10 10 10 6 0 10 -4 10 -10z m120 -19 c0 -23 6 -30 26 -35 20 -5 24 -11 18
-24 -4 -9 -9 -34 -12 -54 -4 -34 -32 -77 -32 -49 0 6 -15 11 -34 11 l-33 0 -9
90 -10 90 43 0 c41 0 43 -2 43 -29z m2375 19 c3 -5 -3 -10 -15 -10 -12 0 -18
5 -15 10 3 6 10 10 15 10 5 0 12 -4 15 -10z m-2509 -45 c14 -13 14 -17 0 -30
-8 -8 -24 -15 -35 -15 -18 0 -21 -6 -21 -37 0 -48 -10 -63 -41 -62 -13 0 -43
-3 -66 -6 -35 -6 -43 -5 -52 14 -7 11 -27 28 -47 36 -30 12 -34 18 -30 42 2
15 5 31 5 36 2 13 29 7 35 -8 3 -8 1 -15 -4 -15 -6 0 -10 -4 -10 -10 0 -21 31
-9 40 15 8 21 14 24 44 20 25 -3 42 2 58 15 28 24 103 27 124 5z m6520 -17 c5
-8 2 -9 -9 -5 -9 3 -19 2 -22 -3 -4 -6 -14 -10 -23 -10 -13 0 -13 2 4 15 23
18 40 19 50 3z m-866 -13 c-7 -9 -15 -13 -17 -11 -7 7 7 26 19 26 6 0 6 -6 -2
-15z m-3031 -86 c-11 -7 -10 -9 4 -9 21 0 20 -31 -1 -38 -7 -2 -10 2 -6 12 4
10 0 18 -10 22 -13 5 -14 9 -5 20 6 8 16 11 21 8 6 -4 5 -10 -3 -15z m3341
-53 c0 -8 -7 -19 -15 -26 -13 -10 -15 -9 -15 12 0 14 3 28 6 31 9 9 24 -2 24
-17z m-3300 -10 c0 -2 -7 -6 -15 -10 -8 -3 -15 -1 -15 4 0 6 7 10 15 10 8 0
15 -2 15 -4z m3296 -56 c8 0 14 -4 14 -10 0 -5 -6 -10 -14 -10 -8 0 -16 -4
-18 -10 -2 -5 -9 -6 -17 -1 -11 7 -11 13 0 32 7 15 14 19 17 11 2 -6 10 -12
18 -12z m-111 -10 c-3 -5 -13 -10 -21 -10 -8 0 -14 5 -14 10 0 6 9 10 21 10
11 0 17 -4 14 -10z m-25 -39 c0 -6 -4 -13 -10 -16 -5 -3 -10 1 -10 9 0 9 5 16
10 16 6 0 10 -4 10 -9z m930 -28 c30 -8 60 -21 66 -29 6 -8 18 -12 26 -9 8 3
27 1 41 -4 23 -9 27 -16 27 -50 0 -22 -6 -44 -15 -51 -8 -7 -14 -20 -13 -28 5
-28 -31 -26 -42 2 -5 14 -14 26 -19 26 -16 0 -30 -25 -21 -40 5 -8 6 -18 4
-22 -3 -5 2 -15 11 -24 12 -12 13 -19 4 -30 -14 -17 -39 -18 -39 -2 0 6 -10 2
-23 -10 -13 -12 -31 -22 -40 -22 -12 0 -17 -9 -17 -31 0 -25 -3 -30 -16 -25
-14 5 -15 4 -4 -9 7 -8 9 -15 5 -15 -4 0 -2 -7 5 -15 7 -8 9 -15 6 -15 -19 0
-104 52 -126 77 -14 15 -21 25 -16 21 14 -11 40 20 28 35 -14 18 -21 56 -12
62 5 3 11 1 15 -5 4 -6 11 -8 16 -5 5 4 9 2 9 -4 0 -5 14 -12 30 -16 17 -4 30
-11 30 -16 0 -5 7 -9 15 -9 35 0 8 33 -36 43 -14 4 -38 18 -53 32 -21 20 -25
29 -17 43 7 13 7 22 0 29 -10 10 2 44 21 63 14 14 6 40 -11 40 -22 0 -24 5 -6
26 14 17 78 12 167 -13z m-960 7 c0 -5 -7 -10 -15 -10 -8 0 -15 -6 -15 -14 0
-7 -7 -20 -17 -27 -14 -13 -15 -12 -5 6 6 11 13 28 16 38 6 18 36 24 36 7z
m1197 4 c-3 -3 -12 -4 -19 -1 -8 3 -5 6 6 6 11 1 17 -2 13 -5z m-1093 -19 c-4
-8 -8 -15 -10 -15 -2 0 -4 7 -4 15 0 8 4 15 10 15 5 0 7 -7 4 -15z m613 9 c-3
-3 -12 -4 -19 -1 -8 3 -5 6 6 6 11 1 17 -2 13 -5z m-640 -64 c1 -11 -2 -18 -8
-15 -11 7 -12 35 -1 35 4 0 8 -9 9 -20z m-6110 -149 c12 -6 48 -11 80 -10 41
1 51 3 33 8 l-25 7 22 12 c16 9 22 9 25 1 2 -7 37 -14 83 -17 44 -2 86 -9 93
-14 8 -7 17 -6 28 3 13 11 19 10 37 0 15 -10 22 -11 25 -2 6 19 30 12 37 -10
5 -14 10 -18 17 -11 13 13 76 4 106 -16 12 -8 22 -24 22 -37 0 -12 11 -35 25
-51 14 -16 25 -33 25 -38 0 -4 11 -21 25 -38 14 -16 25 -35 25 -42 0 -7 11
-19 25 -26 20 -11 27 -11 40 0 8 7 14 15 11 17 -3 4 6 56 20 108 4 16 3 17 -5
5 -5 -8 -13 -11 -18 -7 -4 5 -1 12 7 17 20 13 43 13 35 0 -3 -6 1 -13 9 -16 9
-3 16 -12 16 -20 0 -8 8 -14 18 -15 39 -2 58 -9 74 -31 10 -13 23 -29 28 -35
6 -7 19 -28 30 -46 20 -33 70 -77 90 -77 5 0 10 -4 10 -8 0 -5 11 -14 25 -20
14 -6 25 -18 25 -26 0 -9 9 -20 20 -26 11 -6 18 -15 15 -20 -6 -10 36 -79 50
-80 6 0 19 -19 29 -42 10 -22 31 -55 46 -72 37 -43 70 -103 70 -127 0 -11 5
-29 10 -39 7 -14 7 -34 -1 -67 -17 -75 -19 -79 -28 -65 -4 7 -33 13 -69 14
-38 1 -67 7 -73 15 -7 7 -21 13 -32 13 -31 0 -100 22 -119 38 -14 12 -38 13
-125 8 -152 -10 -161 -10 -186 1 -51 24 -79 33 -102 33 -14 0 -25 4 -25 9 0
13 -76 41 -113 41 -18 0 -37 4 -43 9 -5 5 -38 15 -74 21 -36 7 -73 16 -82 21
-10 5 -31 9 -47 9 -16 0 -44 6 -62 14 -19 8 -72 19 -119 25 -47 6 -96 14 -110
17 -71 15 -72 15 -255 46 -11 2 -24 9 -28 16 -4 6 -18 12 -30 12 -12 0 -42 12
-66 25 -67 39 -110 16 -111 -57 0 -29 6 -41 25 -54 14 -9 34 -36 44 -60 11
-24 25 -44 30 -44 6 0 11 -4 11 -9 0 -16 58 -71 74 -71 9 0 30 -10 46 -21 17
-13 35 -19 45 -15 18 7 85 -21 85 -35 0 -5 7 -9 15 -9 8 0 19 -9 25 -20 8 -16
21 -20 60 -20 38 0 50 -4 50 -15 0 -11 -11 -15 -40 -15 -23 0 -40 -5 -40 -11
0 -8 -17 -10 -55 -6 -30 3 -55 1 -55 -3 0 -5 -13 -16 -29 -24 -22 -12 -31 -12
-40 -3 -9 9 -14 8 -21 -3 -13 -20 -13 -120 0 -120 6 0 3 -14 -6 -31 -9 -17
-18 -43 -20 -57 -3 -13 -12 -38 -20 -55 -9 -16 -22 -51 -30 -77 -18 -61 -68
-144 -116 -192 -21 -20 -38 -44 -38 -53 0 -8 -6 -15 -14 -15 -8 0 -21 -6 -28
-14 -20 -20 -74 -46 -96 -46 -10 0 -22 -4 -27 -9 -6 -6 -58 -11 -117 -12 -86
-3 -110 0 -125 13 -10 8 -37 25 -61 37 -23 12 -42 26 -42 31 0 6 -11 8 -25 4
-21 -5 -25 -3 -26 17 -1 26 -4 20 -13 -23 -4 -16 -13 -28 -21 -28 -9 0 -15
-10 -15 -25 0 -18 -5 -25 -20 -25 -18 0 -20 7 -20 63 0 73 12 101 29 69 6 -11
11 -28 11 -36 0 -9 7 -16 15 -16 11 0 15 11 15 38 0 29 5 39 25 48 18 9 25 9
28 0 11 -32 57 118 57 184 0 22 7 58 16 80 l17 41 -32 39 c-24 31 -31 48 -31
84 0 25 5 46 10 46 6 0 10 24 10 53 0 29 6 61 14 72 16 25 30 79 18 71 -5 -3
-17 2 -25 12 -14 15 -15 28 -6 82 5 34 14 71 19 81 6 10 7 25 4 33 -4 10 1 19
15 24 31 11 141 199 123 211 -14 10 15 71 32 65 8 -3 17 0 22 7 4 7 3 10 -4 5
-6 -3 -14 -1 -18 6 -4 7 -4 10 0 7 13 -12 111 27 121 49 5 12 15 22 22 22 7 0
13 6 13 14 0 12 61 33 83 28 4 -1 7 5 7 13 0 15 37 36 70 40 8 1 34 20 56 44
33 33 52 43 90 50 27 4 69 17 93 29 25 12 51 22 58 22 8 0 16 7 20 16 3 8 11
13 19 10 7 -3 24 4 37 14 13 11 27 17 30 14 12 -12 44 8 56 33 7 16 15 22 19
16 4 -5 17 -15 29 -22z m170 23 c-3 -3 -12 -4 -19 -1 -8 3 -5 6 6 6 11 1 17
-2 13 -5z m6590 -140 c-3 -3 -12 -4 -19 -1 -8 3 -5 6 6 6 11 1 17 -2 13 -5z
m293 -9 c0 -17 -2 -18 -24 -9 -23 9 -20 24 4 24 11 0 20 -7 20 -15z m485 5 c3
-5 1 -10 -4 -10 -6 0 -11 5 -11 10 0 6 2 10 4 10 3 0 8 -4 11 -10z m-710 -34
c31 -26 37 -37 28 -46 -12 -13 -37 -4 -28 10 3 5 -9 23 -27 39 -46 42 -22 39
27 -3z m185 -19 c0 -18 -35 -58 -43 -50 -4 3 2 12 13 20 11 8 20 21 20 29 0 8
2 14 5 14 3 0 5 -6 5 -13z m-2961 -9 c-2 -2 -20 -16 -39 -33 l-35 -30 34 37
c19 21 37 36 39 33 3 -3 3 -6 1 -7z m2676 2 c3 -5 -1 -10 -9 -10 -9 0 -16 5
-16 10 0 6 4 10 9 10 6 0 13 -4 16 -10z m102 -55 c19 -19 30 -35 24 -35 -6 0
-16 9 -23 19 -6 10 -17 17 -24 14 -7 -2 -17 5 -24 16 -17 33 7 26 47 -14z
m128 -15 c3 -5 2 -10 -4 -10 -5 0 -13 5 -16 10 -3 6 -2 10 4 10 5 0 13 -4 16
-10z m-30 -21 c-7 -10 -35 -1 -35 11 0 5 9 6 20 3 11 -3 17 -9 15 -14z m2275
2 c21 -6 22 -8 8 -14 -12 -4 -18 -17 -18 -35 0 -19 -18 -54 -52 -102 -29 -40
-64 -89 -78 -109 -14 -20 -31 -61 -38 -92 -16 -72 -55 -133 -135 -212 -64 -63
-164 -123 -202 -122 -11 1 -32 7 -47 15 -31 15 -35 41 -13 80 8 14 14 35 15
48 0 21 44 71 63 72 9 0 176 171 175 179 -3 14 41 107 75 162 25 41 90 102
133 124 30 16 72 18 114 6z m-3670 -76 c0 -8 -7 -15 -15 -15 -16 0 -20 12 -8
23 11 12 23 8 23 -8z m970 -5 c0 -5 -5 -10 -11 -10 -5 0 -7 5 -4 10 3 6 8 10
11 10 2 0 4 -4 4 -10z m-610 -75 c-6 -30 -15 -57 -19 -59 -4 -3 0 26 8 65 9
38 17 65 19 59 2 -5 -2 -34 -8 -65z m-356 45 c-10 -4 -21 -6 -24 -3 -8 7 24
22 34 16 5 -4 1 -10 -10 -13z m111 -20 c3 -5 -1 -10 -10 -10 -9 0 -13 5 -10
10 3 6 8 10 10 10 2 0 7 -4 10 -10z m-265 -10 c0 -5 -7 -10 -16 -10 -8 0 -12
5 -9 10 3 6 10 10 16 10 5 0 9 -4 9 -10z m-204 -41 c-8 -21 -15 -27 -15 -16
-1 17 20 59 27 53 1 -2 -4 -19 -12 -37z m365 27 c6 3 7 -5 3 -20 -4 -16 -2
-26 5 -26 6 0 8 -8 5 -17 -5 -15 -4 -15 4 -3 6 8 8 26 5 40 -4 23 -2 27 19 25
17 -1 22 -7 20 -23 -2 -12 2 -22 8 -22 7 0 9 -8 4 -22 -6 -20 -2 -19 24 9 38
39 62 45 77 17 8 -17 15 -19 34 -12 30 11 42 0 35 -30 -7 -26 -31 -29 -37 -4
-4 14 -5 13 -6 -4 0 -11 -5 -24 -10 -30 -4 -5 -14 -30 -21 -56 -7 -27 -16 -48
-20 -48 -5 0 -2 21 6 46 15 51 9 75 -11 47 -13 -17 -15 -17 -31 5 -16 23 -17
23 -29 5 -8 -11 -15 -35 -18 -54 l-4 -34 -1 39 c-2 35 -4 38 -27 32 -15 -4
-25 -2 -25 4 0 6 -4 8 -10 5 -5 -3 -10 2 -10 12 -1 14 -4 13 -15 -7 l-14 -25
-7 33 c-6 29 -8 31 -20 15 -7 -10 -14 -28 -14 -40 0 -13 -4 -23 -9 -23 -5 0
-9 6 -8 13 1 39 -4 67 -12 63 -5 -4 -12 0 -14 6 -3 8 -6 6 -6 -4 -1 -10 -8
-18 -16 -18 -8 0 -15 -7 -15 -15 0 -8 -4 -15 -10 -15 -5 0 -10 7 -10 15 0 8
-4 15 -10 15 -5 0 -10 12 -10 26 l0 27 -25 -27 c-23 -25 -25 -25 -35 -7 -14
28 -13 48 5 55 8 3 16 5 18 4 1 -1 12 4 24 10 17 10 22 9 27 -5 6 -15 8 -14
20 2 9 12 15 14 20 7 4 -6 13 -9 21 -6 10 4 12 0 8 -17 -5 -18 -3 -21 10 -16
9 3 19 1 23 -5 10 -15 34 20 27 38 -3 8 0 14 6 14 6 0 11 -5 11 -11 0 -6 7
-18 17 -27 15 -15 16 -14 10 23 -4 22 -4 34 -1 27 3 -6 10 -9 15 -6z m-75 -33
c-4 -4 -11 -1 -16 7 -16 25 -11 35 7 17 9 -9 13 -20 9 -24z m-215 -27 c-11
-13 -3 -105 13 -151 4 -11 0 -8 -8 6 -20 34 -36 165 -22 179 15 15 31 -17 17
-34z m554 -74 c-3 -3 -5 1 -5 9 0 11 -2 11 -10 -1 -11 -17 -13 0 -3 26 6 15 7
14 15 -6 5 -13 6 -25 3 -28z m94 5 c-1 -31 -1 -31 -9 -7 -11 36 -11 52 0 45 6
-3 10 -21 9 -38z m-67 8 c3 -13 1 -22 -3 -19 -9 5 -13 44 -5 44 2 0 6 -11 8
-25z m3725 3 c6 -7 18 -36 27 -64 18 -56 15 -85 -15 -146 -11 -21 -19 -49 -19
-62 0 -14 -9 -49 -20 -78 -11 -29 -20 -60 -20 -68 0 -24 -71 -86 -130 -113
-30 -14 -79 -27 -109 -30 -52 -6 -56 -4 -88 29 -27 29 -33 43 -33 80 0 66 27
109 142 225 87 88 127 134 158 179 6 9 82 59 91 59 4 1 11 -5 16 -11z m-2520
-70 c-3 -8 -6 -5 -6 6 -1 11 2 17 5 13 3 -3 4 -12 1 -19z m-1160 -40 c-3 -8
-6 -5 -6 6 -1 11 2 17 5 13 3 -3 4 -12 1 -19z m-270 -10 c-3 -8 -6 -5 -6 6 -1
11 2 17 5 13 3 -3 4 -12 1 -19z m54 -51 c-10 -9 -11 -8 -5 6 3 10 9 15 12 12
3 -3 0 -11 -7 -18z m-1294 -19 c-3 -7 -5 -2 -5 12 0 14 2 19 5 13 2 -7 2 -19
0 -25z m1103 -62 c0 -2 -7 -7 -16 -10 -8 -3 -12 -2 -9 4 6 10 25 14 25 6z m93
-101 c-3 -9 -8 -14 -10 -11 -3 3 -2 9 2 15 9 16 15 13 8 -4z m-63 -85 c-22
-31 -40 -46 -40 -34 0 8 51 64 58 64 2 0 -6 -13 -18 -30z m-5320 -26 c25 -3
55 -13 67 -20 12 -8 29 -14 37 -14 8 0 42 -18 75 -40 33 -22 68 -40 77 -40 13
0 14 -3 4 -15 -17 -21 -4 -37 19 -23 15 9 22 8 34 -4 9 -8 37 -21 64 -28 26
-7 52 -17 57 -21 6 -5 16 -9 24 -9 14 0 90 -56 108 -80 7 -9 28 -22 47 -29 28
-11 37 -21 42 -48 10 -53 -4 -62 -98 -62 -45 0 -76 4 -69 8 7 4 -8 14 -38 26
-28 11 -50 25 -50 32 0 7 -9 13 -20 13 -11 0 -20 -4 -20 -10 0 -5 -7 -10 -15
-10 -8 0 -15 5 -15 10 0 6 -8 10 -18 10 -10 0 -23 5 -30 12 -9 9 -12 9 -13 -2
-1 -8 -4 -4 -8 10 -5 19 -15 26 -41 30 -23 3 -38 12 -45 27 -11 25 -23 32
-120 63 -38 13 -75 27 -82 32 -7 6 -17 7 -22 4 -11 -7 -106 37 -116 54 -3 5
-16 10 -28 10 -19 0 -77 56 -77 74 0 4 32 6 70 6 40 0 70 4 70 10 0 6 8 10 18
10 11 0 27 9 37 20 11 12 21 16 25 11 3 -6 26 -13 50 -17z m2759 -70 c-8 -10
-15 -12 -23 -4 -7 7 -4 14 10 24 22 17 32 3 13 -20z m-44 6 c10 -16 -10 -42
-44 -56 -31 -13 -31 -13 -19 9 7 12 14 27 14 32 1 6 2 13 3 18 2 11 39 9 46
-3z m5929 -230 c6 -129 14 -250 21 -311 4 -38 2 -49 -17 -66 -25 -23 -95 -43
-84 -24 4 6 0 21 -8 33 -18 25 -23 148 -6 148 6 0 10 45 10 114 0 118 10 166
33 166 8 0 19 12 26 26 6 15 14 25 16 22 2 -2 6 -51 9 -108z m-9817 -2 c-3 -8
-6 -5 -6 6 -1 11 2 17 5 13 3 -3 4 -12 1 -19z m3713 -292 c0 -2 -9 -6 -20 -9
-11 -3 -18 -1 -14 4 5 9 34 13 34 5z m-3930 -122 c0 -36 -23 -73 -35 -54 -3 5
-1 10 4 10 6 0 11 18 11 40 0 22 5 40 10 40 6 0 10 -16 10 -36z m98 -55 c-2
-6 -8 -10 -13 -10 -5 0 -11 4 -13 10 -2 6 4 11 13 11 9 0 15 -5 13 -11z m9959
-61 c-3 -7 -5 -2 -5 12 0 14 2 19 5 13 2 -7 2 -19 0 -25z"/>
<path d="M5290 7143 c8 -3 27 -15 43 -25 15 -11 27 -15 27 -9 0 5 -9 13 -20
16 -11 3 -20 11 -20 16 0 5 -10 9 -22 8 -15 0 -18 -2 -8 -6z"/>
<path d="M4855 6980 c-3 -5 -1 -10 4 -10 6 0 11 5 11 10 0 6 -2 10 -4 10 -3 0
-8 -4 -11 -10z"/>
<path d="M5805 6660 c3 -5 10 -10 16 -10 5 0 9 5 9 10 0 6 -7 10 -16 10 -8 0
-12 -4 -9 -10z"/>
<path d="M4460 6594 c0 -8 5 -12 10 -9 6 3 10 10 10 16 0 5 -4 9 -10 9 -5 0
-10 -7 -10 -16z"/>
<path d="M3522 6415 c-11 -13 -8 -15 19 -15 27 0 30 2 19 15 -15 18 -21 18
-38 0z"/>
<path d="M3475 6090 c-3 -6 1 -7 9 -4 18 7 21 14 7 14 -6 0 -13 -4 -16 -10z"/>
<path d="M9955 5380 c-3 -5 -1 -10 4 -10 6 0 11 5 11 10 0 6 -2 10 -4 10 -3 0
-8 -4 -11 -10z"/>
<path d="M8145 5850 c-17 -7 -16 -9 10 -9 17 0 37 4 45 9 12 8 10 10 -10 9
-14 0 -34 -4 -45 -9z"/>
<path d="M8190 5804 c0 -8 4 -12 10 -9 18 11 50 14 50 4 0 -5 5 -9 10 -9 6 0
10 7 10 15 0 11 -11 15 -40 15 -30 0 -40 -4 -40 -16z"/>
<path d="M8165 5790 c3 -5 8 -10 11 -10 2 0 4 5 4 10 0 6 -5 10 -11 10 -5 0
-7 -4 -4 -10z"/>
<path d="M8168 5713 c7 -3 16 -2 19 1 4 3 -2 6 -13 5 -11 0 -14 -3 -6 -6z"/>
<path d="M8370 5700 c0 -5 7 -7 15 -4 8 4 15 8 15 10 0 2 -7 4 -15 4 -8 0 -15
-4 -15 -10z"/>
<path d="M8095 4500 c3 -5 11 -10 16 -10 6 0 7 5 4 10 -3 6 -11 10 -16 10 -6
0 -7 -4 -4 -10z"/>
<path d="M8100 4455 c0 -8 5 -15 10 -15 6 0 10 7 10 15 0 8 -4 15 -10 15 -5 0
-10 -7 -10 -15z"/>
<path d="M8280 3889 c64 -11 100 -11 100 1 0 6 -30 9 -72 9 -69 -1 -71 -2 -28
-10z"/>
<path d="M8440 3804 c0 -8 5 -12 10 -9 6 3 10 10 10 16 0 5 -4 9 -10 9 -5 0
-10 -7 -10 -16z"/>
<path d="M7165 4230 c3 -5 10 -10 16 -10 5 0 9 5 9 10 0 6 -7 10 -16 10 -8 0
-12 -4 -9 -10z"/>
<path d="M7250 4210 c0 -5 11 -9 25 -8 14 1 25 6 25 10 0 4 -11 8 -25 8 -14 0
-25 -4 -25 -10z"/>
<path d="M7310 4210 c0 -5 7 -10 16 -10 8 0 12 5 9 10 -3 6 -10 10 -16 10 -5
0 -9 -4 -9 -10z"/>
<path d="M6836 4286 c5 -27 3 -41 -7 -48 -12 -8 -11 -9 1 -5 19 5 25 50 10 74
-8 14 -9 9 -4 -21z"/>
<path d="M6815 4270 c3 -5 8 -10 11 -10 2 0 4 5 4 10 0 6 -5 10 -11 10 -5 0
-7 -4 -4 -10z"/>
<path d="M6936 4263 c-4 -5 -12 -9 -17 -9 -5 -1 -15 -2 -21 -3 -8 -1 -7 -5 4
-12 11 -6 15 -16 11 -26 -4 -11 -3 -14 5 -9 7 4 12 13 12 21 0 7 7 15 15 19 8
3 15 10 15 16 0 12 -13 13 -24 3z"/>
<path d="M6800 4220 c0 -5 5 -10 11 -10 5 0 7 5 4 10 -3 6 -8 10 -11 10 -2 0
-4 -4 -4 -10z"/>
<path d="M6670 4200 c-13 -8 -12 -10 3 -10 9 0 17 5 17 10 0 12 -1 12 -20 0z"/>
<path d="M6632 4160 c0 -14 2 -19 5 -12 2 6 2 18 0 25 -3 6 -5 1 -5 -13z"/>
<path d="M8295 3530 c-3 -6 1 -7 9 -4 18 7 21 14 7 14 -6 0 -13 -4 -16 -10z"/>
<path d="M2126 2985 c4 -8 8 -15 10 -15 2 0 4 7 4 15 0 8 -4 15 -10 15 -5 0
-7 -7 -4 -15z"/>
<path d="M2175 2872 c10 -17 22 -29 27 -26 11 7 10 44 -1 44 -5 0 -17 3 -27 7
-16 6 -16 4 1 -25z"/>
<path d="M6965 3010 c3 -5 8 -10 11 -10 2 0 4 5 4 10 0 6 -5 10 -11 10 -5 0
-7 -4 -4 -10z"/>
<path d="M6402 7720 c0 -14 2 -19 5 -12 2 6 2 18 0 25 -3 6 -5 1 -5 -13z"/>
<path d="M6607 7663 c-4 -3 -7 -12 -7 -20 0 -15 26 -18 34 -4 7 11 -18 33 -27
24z"/>
<path d="M6890 7540 c0 -5 5 -10 11 -10 5 0 7 5 4 10 -3 6 -8 10 -11 10 -2 0
-4 -4 -4 -10z"/>
<path d="M6845 7477 c-4 -10 -5 -21 -1 -24 10 -10 18 4 13 24 -4 17 -4 17 -12
0z"/>
<path d="M7087 7456 c-4 -10 -5 -21 -2 -24 9 -9 17 6 13 25 -3 17 -4 17 -11
-1z"/>
<path d="M6833 7424 c-4 -10 0 -22 10 -29 10 -7 17 -26 17 -44 0 -38 -20 -42
-21 -3 0 15 -3 21 -6 15 -10 -25 -23 -12 -23 21 0 19 -4 38 -10 41 -6 4 -10
-5 -10 -20 0 -15 -7 -42 -16 -61 -9 -19 -13 -38 -9 -42 4 -4 10 -1 12 6 8 21
40 14 47 -10 9 -35 8 -38 -14 -38 -11 0 -20 4 -20 9 0 5 -9 7 -20 4 -25 -7
-25 -18 1 -51 20 -26 49 -38 49 -21 0 22 39 7 48 -18 l10 -28 11 28 c13 34 14
67 2 67 -18 0 -22 39 -10 80 13 43 34 57 23 15 -14 -56 -8 -83 19 -87 17 -2
23 -11 27 -41 3 -21 9 -36 15 -35 5 2 9 9 7 16 -2 6 1 12 7 12 11 0 -14 86
-30 106 -7 8 -9 29 -6 49 7 40 -7 54 -31 31 -20 -17 -38 -10 -43 18 -5 26 -27
32 -36 10z m27 -178 c0 -3 -4 -8 -10 -11 -5 -3 -10 -1 -10 4 0 6 5 11 10 11 6
0 10 -2 10 -4z"/>
<path d="M7180 7420 c0 -5 5 -10 10 -10 6 0 10 5 10 10 0 6 -4 10 -10 10 -5 0
-10 -4 -10 -10z"/>
<path d="M6118 7380 c2 -16 8 -27 13 -24 13 8 11 30 -4 43 -11 8 -13 5 -9 -19z"/>
<path d="M7001 7384 c0 -11 3 -14 6 -6 3 7 2 16 -1 19 -3 4 -6 -2 -5 -13z"/>
<path d="M6610 7313 c-1 -54 -2 -57 -16 -38 -14 19 -15 17 -9 -25 4 -32 3 -39
-4 -25 -5 11 -10 34 -11 50 -1 17 -6 39 -11 50 -6 14 -7 4 -2 -30 4 -27 7 -63
8 -80 0 -16 4 -40 9 -53 6 -19 10 -21 23 -10 12 10 18 9 29 -7 13 -18 14 -18
14 6 0 13 -7 33 -15 43 -17 22 -20 62 -6 70 5 4 9 26 9 51 0 25 -4 47 -9 51
-5 3 -9 -20 -9 -53z"/>
<path d="M5680 7332 c0 -11 7 -23 16 -26 9 -4 14 -9 11 -12 -3 -4 -2 -11 4
-18 5 -6 19 -23 30 -39 21 -28 39 -28 39 0 0 14 -74 104 -92 111 -4 2 -8 -5
-8 -16z"/>
<path d="M6980 7329 c0 -11 5 -17 10 -14 6 3 10 13 10 21 0 8 -4 14 -10 14 -5
0 -10 -9 -10 -21z"/>
<path d="M6405 7330 c3 -5 8 -10 11 -10 2 0 4 5 4 10 0 6 -5 10 -11 10 -5 0
-7 -4 -4 -10z"/>
<path d="M6657 7270 c3 -19 10 -41 16 -47 6 -9 6 -13 -2 -13 -7 0 -7 -7 1 -26
l12 -25 18 23 c20 27 24 94 6 112 -7 6 -23 12 -35 12 -19 0 -20 -4 -16 -36z"/>
<path d="M5900 7289 c0 -5 5 -7 10 -4 6 3 10 8 10 11 0 2 -4 4 -10 4 -5 0 -10
-5 -10 -11z"/>
<path d="M5808 7283 c7 -3 16 -2 19 1 4 3 -2 6 -13 5 -11 0 -14 -3 -6 -6z"/>
<path d="M7071 7264 c0 -11 3 -14 6 -6 3 7 2 16 -1 19 -3 4 -6 -2 -5 -13z"/>
<path d="M5920 7260 c0 -5 7 -10 16 -10 8 0 12 5 9 10 -3 6 -10 10 -16 10 -5
0 -9 -4 -9 -10z"/>
<path d="M7021 7254 c0 -11 3 -14 6 -6 3 7 2 16 -1 19 -3 4 -6 -2 -5 -13z"/>
<path d="M5590 7221 c0 -5 13 -14 29 -19 15 -5 40 -22 54 -36 14 -14 34 -26
43 -26 11 0 14 -5 10 -16 -5 -12 -2 -15 10 -10 8 3 18 6 20 6 2 0 4 5 4 10 0
6 -6 10 -13 10 -8 0 -19 10 -26 23 -6 12 -35 32 -62 45 -55 24 -69 27 -69 13z"/>
<path d="M6532 7210 c0 -14 2 -19 5 -12 2 6 2 18 0 25 -3 6 -5 1 -5 -13z"/>
<path d="M6115 7190 c-8 -13 13 -60 26 -60 7 0 -5 58 -15 67 -2 2 -7 -1 -11
-7z"/>
<path d="M6841 7122 c-1 -20 18 -52 31 -52 7 0 5 7 -4 18 -9 9 -18 24 -21 32
-4 10 -6 11 -6 2z"/>
<path d="M6831 7044 c0 -11 3 -14 6 -6 3 7 2 16 -1 19 -3 4 -6 -2 -5 -13z"/>
<path d="M6941 7044 c0 -11 3 -14 6 -6 3 7 2 16 -1 19 -3 4 -6 -2 -5 -13z"/>
<path d="M6460 7039 c0 -5 -6 -9 -14 -9 -20 0 -29 -82 -10 -93 10 -6 12 -13 4
-27 -15 -27 -12 -50 5 -50 12 0 14 -12 12 -55 -1 -30 -1 -55 0 -55 14 0 33 16
34 29 1 9 5 0 9 -19 6 -30 8 -27 9 25 1 71 -7 105 -24 105 -8 0 -12 15 -10 45
2 51 15 74 16 29 0 -25 2 -26 9 -9 5 11 9 14 9 8 1 -7 5 -13 9 -13 15 0 12 61
-4 67 -8 3 -14 10 -14 17 0 6 -9 12 -20 13 -11 1 -20 -2 -20 -8z"/>
<path d="M6961 7004 c0 -11 3 -14 6 -6 3 7 2 16 -1 19 -3 4 -6 -2 -5 -13z"/>
<path d="M7120 7010 c-8 -5 -11 -12 -7 -16 4 -4 15 0 24 9 18 18 8 23 -17 7z"/>
<path d="M7075 6989 c-4 -11 -4 -23 0 -27 7 -7 25 17 25 36 0 20 -18 14 -25
-9z"/>
<path d="M7250 6955 c-12 -43 -7 -79 5 -39 4 10 11 27 16 36 11 22 12 48 0 48
-4 0 -14 -20 -21 -45z"/>
<path d="M6817 6964 c-4 -4 -7 -19 -6 -33 l0 -26 10 24 c10 26 8 47 -4 35z"/>
<path d="M7283 6938 c-22 -62 -27 -110 -12 -119 10 -6 11 -9 2 -9 -8 0 -13
-13 -13 -30 0 -61 17 -27 33 68 10 53 17 103 17 110 0 23 -16 12 -27 -20z"/>
<path d="M6390 6945 c0 -8 4 -15 10 -15 5 0 7 7 4 15 -4 8 -8 15 -10 15 -2 0
-4 -7 -4 -15z"/>
<path d="M6841 6934 c0 -11 3 -14 6 -6 3 7 2 16 -1 19 -3 4 -6 -2 -5 -13z"/>
<path d="M7165 6900 c-3 -5 -1 -10 4 -10 6 0 11 5 11 10 0 6 -2 10 -4 10 -3 0
-8 -4 -11 -10z"/>
<path d="M7160 6870 c0 -5 5 -10 10 -10 6 0 10 5 10 10 0 6 -4 10 -10 10 -5 0
-10 -4 -10 -10z"/>
<path d="M6340 6861 c0 -12 31 -43 37 -37 7 7 -16 46 -27 46 -6 0 -10 -4 -10
-9z"/>
<path d="M7322 6861 c-7 -4 -12 -20 -10 -34 6 -41 15 -41 22 -1 8 41 6 46 -12
35z"/>
<path d="M6290 6821 c5 -11 14 -37 20 -58 9 -36 9 -35 4 12 -7 55 -10 65 -25
65 -6 0 -6 -7 1 -19z"/>
<path d="M6324 6805 c4 -15 10 -41 13 -59 4 -17 13 -38 21 -46 13 -13 14 -10
8 25 -4 22 -12 44 -17 50 -5 5 -9 17 -9 26 0 10 -5 21 -11 25 -9 5 -10 -1 -5
-21z"/>
<path d="M7462 6790 c0 -14 2 -19 5 -12 2 6 2 18 0 25 -3 6 -5 1 -5 -13z"/>
<path d="M6527 6766 c-8 -20 3 -86 15 -86 5 0 7 21 5 46 -6 50 -12 62 -20 40z"/>
<path d="M7290 6754 c0 -9 5 -14 12 -12 18 6 21 28 4 28 -9 0 -16 -7 -16 -16z"/>
<path d="M5852 6744 c10 -10 20 -16 22 -13 3 3 -5 11 -17 18 -21 13 -21 12 -5
-5z"/>
<path d="M7447 6741 c-4 -17 -3 -21 5 -13 5 5 8 16 6 23 -3 8 -7 3 -11 -10z"/>
<path d="M5906 6721 c10 -10 21 -14 23 -8 4 10 -17 27 -33 27 -5 0 -1 -8 10
-19z"/>
<path d="M8210 6701 c0 -5 -20 -17 -44 -27 -33 -14 -42 -22 -38 -36 2 -10 -2
-26 -9 -35 -16 -20 80 54 99 76 15 18 16 31 2 31 -5 0 -10 -4 -10 -9z"/>
<path d="M5955 6680 c3 -5 11 -10 16 -10 6 0 7 5 4 10 -3 6 -11 10 -16 10 -6
0 -7 -4 -4 -10z"/>
<path d="M6441 6656 c-1 -26 2 -37 9 -30 6 6 6 21 1 39 -9 30 -9 30 -10 -9z"/>
<path d="M6470 6650 c0 -18 4 -29 10 -25 6 3 10 15 10 25 0 10 -4 22 -10 25
-6 4 -10 -7 -10 -25z"/>
<path d="M6227 6557 c19 -26 43 -31 43 -10 0 7 -12 18 -26 23 -36 14 -37 13
-17 -13z"/>
<path d="M8061 6550 c-44 -43 -39 -51 6 -9 21 18 40 35 42 37 2 1 0 2 -6 2 -5
0 -24 -14 -42 -30z"/>
<path d="M6476 6538 c3 -18 10 -44 14 -58 13 -36 16 -73 7 -87 -9 -14 1 -63
13 -63 10 0 3 123 -11 186 -13 58 -32 76 -23 22z"/>
<path d="M6710 6543 c0 -17 5 -35 10 -38 13 -8 13 35 0 55 -7 11 -10 7 -10
-17z"/>
<path d="M5850 6550 c0 -5 5 -10 10 -10 6 0 10 5 10 10 0 6 -4 10 -10 10 -5 0
-10 -4 -10 -10z"/>
<path d="M6602 6518 c3 -49 17 -67 19 -25 2 33 -2 51 -12 62 -7 6 -9 -7 -7
-37z"/>
<path d="M6688 6554 c-5 -4 -8 -20 -8 -36 0 -15 -4 -28 -9 -28 -9 0 -8 -42 6
-150 8 -63 8 -64 20 -35 8 19 9 45 4 70 -6 29 -3 47 8 68 12 21 13 30 4 35 -6
4 -13 25 -15 46 -2 21 -6 34 -10 30z"/>
<path d="M6135 6500 c3 -5 14 -10 23 -10 15 0 15 2 2 10 -20 13 -33 13 -25 0z"/>
<path d="M7065 6500 c-3 -5 -1 -10 4 -10 6 0 11 5 11 10 0 6 -2 10 -4 10 -3 0
-8 -4 -11 -10z"/>
<path d="M6735 6480 c3 -5 8 -10 11 -10 2 0 4 5 4 10 0 6 -5 10 -11 10 -5 0
-7 -4 -4 -10z"/>
<path d="M6531 6464 c0 -11 3 -14 6 -6 3 7 2 16 -1 19 -3 4 -6 -2 -5 -13z"/>
<path d="M7990 6465 c-11 -13 -10 -14 4 -9 9 3 16 10 16 15 0 13 -6 11 -20 -6z"/>
<path d="M6558 6435 c-2 -11 1 -28 6 -37 13 -21 -1 -38 -14 -18 -8 13 -10 13
-10 -1 0 -19 29 -34 41 -22 5 5 2 28 -5 53 -10 32 -15 39 -18 25z"/>
<path d="M6737 6421 c-3 -15 -2 -41 3 -57 7 -25 8 -20 9 29 1 62 -3 73 -12 28z"/>
<path d="M7121 6424 c0 -11 3 -14 6 -6 3 7 2 16 -1 19 -3 4 -6 -2 -5 -13z"/>
<path d="M6456 6385 c11 -46 23 -65 23 -35 0 14 -7 34 -15 45 -15 19 -15 19
-8 -10z"/>
<path d="M7616 6314 c-5 -14 -4 -15 9 -4 17 14 19 20 6 20 -5 0 -12 -7 -15
-16z"/>
<path d="M8174 6315 c-6 -15 2 -35 14 -35 18 1 32 18 26 33 -8 21 -33 22 -40
2z"/>
<path d="M6637 6287 c-3 -8 -1 -20 4 -28 6 -10 9 -7 9 14 0 29 -5 35 -13 14z"/>
<path d="M6721 6284 c0 -11 3 -14 6 -6 3 7 2 16 -1 19 -3 4 -6 -2 -5 -13z"/>
<path d="M6548 6265 c-3 -14 -1 -28 3 -31 5 -3 9 9 9 25 0 38 -6 40 -12 6z"/>
<path d="M6594 6249 c-3 -6 -1 -16 5 -22 8 -8 11 -5 11 11 0 24 -5 28 -16 11z"/>
<path d="M7031 6244 c0 -11 3 -14 6 -6 3 7 2 16 -1 19 -3 4 -6 -2 -5 -13z"/>
<path d="M7521 6212 c-26 -37 -26 -41 -2 -39 11 0 17 5 15 9 -3 4 0 17 6 29
18 33 4 33 -19 1z"/>
<path d="M6521 6204 c0 -11 3 -14 6 -6 3 7 2 16 -1 19 -3 4 -6 -2 -5 -13z"/>
<path d="M8105 6200 c-4 -6 -12 -7 -18 -4 -9 5 -9 4 -1 -5 11 -12 44 -5 44 10
0 12 -17 11 -25 -1z"/>
<path d="M6790 6180 c0 -5 5 -10 11 -10 5 0 7 5 4 10 -3 6 -8 10 -11 10 -2 0
-4 -4 -4 -10z"/>
<path d="M7040 6169 c0 -16 6 -26 14 -26 17 0 29 34 15 43 -5 3 -9 -1 -9 -8 0
-9 -3 -9 -10 2 -8 12 -10 10 -10 -11z"/>
<path d="M7451 6171 c-14 -25 -14 -48 0 -56 6 -4 9 -1 8 6 -2 8 2 24 9 36 7
13 8 24 3 28 -6 3 -15 -3 -20 -14z"/>
<path d="M6470 6107 c-23 -52 -21 -96 4 -62 7 10 11 29 8 42 -3 14 1 29 8 33
7 4 10 14 7 21 -3 8 -14 -6 -27 -34z"/>
<path d="M6532 6130 c0 -14 2 -19 5 -12 2 6 2 18 0 25 -3 6 -5 1 -5 -13z"/>
<path d="M8054 6135 c-10 -8 -14 -14 -9 -14 6 0 19 6 29 14 11 8 15 15 10 15
-6 0 -19 -7 -30 -15z"/>
<path d="M7831 6111 c-7 -5 -11 -15 -9 -22 3 -10 8 -7 17 9 13 24 12 26 -8 13z"/>
<path d="M7099 6104 c-4 -65 -12 -110 -20 -115 -11 -6 -2 -59 10 -59 18 0 28
42 24 104 -2 38 -5 72 -8 74 -3 3 -5 1 -6 -4z"/>
<path d="M7399 6073 c-7 -16 -15 -37 -20 -48 -5 -12 -5 -33 0 -50 l8 -30 13
30 c13 29 24 125 14 125 -2 0 -9 -12 -15 -27z"/>
<path d="M6720 6054 c-12 -31 -12 -34 -1 -34 5 0 11 14 13 30 6 37 1 38 -12 4z"/>
<path d="M6616 6045 c-3 -8 -1 -15 4 -15 6 0 10 7 10 15 0 8 -2 15 -4 15 -2 0
-6 -7 -10 -15z"/>
<path d="M6782 6018 c-14 -14 -16 -28 -3 -28 9 0 24 30 18 36 -2 2 -9 -2 -15
-8z"/>
<path d="M6440 5996 c0 -31 6 -34 13 -6 3 11 1 23 -4 26 -5 3 -9 -6 -9 -20z"/>
<path d="M6650 5985 c-19 -36 -8 -40 12 -4 9 16 14 29 9 29 -4 0 -14 -11 -21
-25z"/>
<path d="M6686 5975 c-3 -9 -6 -22 -5 -28 0 -7 5 -1 10 12 5 13 8 26 5 28 -2
2 -6 -3 -10 -12z"/>
<path d="M7190 5958 c0 -19 2 -20 10 -8 13 19 13 30 0 30 -5 0 -10 -10 -10
-22z"/>
<path d="M6706 5948 c-23 -36 -46 -95 -39 -102 10 -10 25 -7 18 4 -3 6 1 10 9
10 9 0 16 7 16 15 0 8 3 15 8 15 4 0 8 18 8 40 1 22 0 40 -2 40 -2 0 -10 -10
-18 -22z"/>
<path d="M6736 5935 c-3 -8 -1 -15 4 -15 6 0 10 7 10 15 0 8 -2 15 -4 15 -2 0
-6 -7 -10 -15z"/>
<path d="M7260 5920 c0 -5 5 -10 10 -10 6 0 10 5 10 10 0 6 -4 10 -10 10 -5 0
-10 -4 -10 -10z"/>
<path d="M8110 3129 c0 -5 5 -7 10 -4 6 3 10 8 10 11 0 2 -4 4 -10 4 -5 0 -10
-5 -10 -11z"/>
<path d="M8055 3100 c3 -5 8 -10 11 -10 2 0 4 5 4 10 0 6 -5 10 -11 10 -5 0
-7 -4 -4 -10z"/>
<path d="M8080 3033 c0 -16 2 -16 11 -3 7 11 8 5 3 -21 -3 -22 -2 -39 5 -43 7
-4 9 -1 5 8 -3 8 4 25 15 37 12 13 21 28 21 33 0 6 -4 5 -9 -3 -6 -9 -11 -10
-15 -2 -11 17 -36 13 -36 -6z"/>
<path d="M8140 3007 c0 -8 10 -22 21 -33 l22 -19 -17 33 c-18 34 -26 40 -26
19z"/>
<path d="M8120 2981 c0 -6 4 -13 10 -16 6 -3 7 1 4 9 -7 18 -14 21 -14 7z"/>
<path d="M8190 2943 c0 -15 19 -37 26 -31 3 4 -1 14 -10 23 -9 9 -16 13 -16 8z"/>
<path d="M8478 2893 c7 -3 16 -2 19 1 4 3 -2 6 -13 5 -11 0 -14 -3 -6 -6z"/>
<path d="M7921 2874 c0 -11 3 -14 6 -6 3 7 2 16 -1 19 -3 4 -6 -2 -5 -13z"/>
<path d="M8360 2830 c0 -5 5 -10 10 -10 6 0 10 5 10 10 0 6 -4 10 -10 10 -5 0
-10 -4 -10 -10z"/>
<path d="M8391 2821 c-8 -14 -3 -23 21 -44 16 -15 32 -27 34 -27 8 0 4 29 -7
54 -15 32 -36 40 -48 17z"/>
<path d="M7430 2774 c0 -17 42 -135 47 -131 5 6 -24 107 -37 127 -5 8 -10 10
-10 4z"/>
<path d="M11910 2755 c-12 -15 -6 -54 7 -41 5 5 12 56 7 56 -1 0 -7 -7 -14
-15z"/>
<path d="M7657 2733 c-14 -4 -16 -8 -6 -19 16 -20 28 -17 26 6 -1 11 -1 19 -2
19 0 -1 -8 -3 -18 -6z"/>
<path d="M7575 2695 c-16 -9 -37 -14 -46 -12 -11 3 -19 -3 -23 -16 -3 -12 -4
-23 -2 -25 8 -7 105 11 100 19 -5 9 9 13 34 10 8 -2 12 5 10 16 -4 24 -36 27
-73 8z"/>
<path d="M12376 2625 c-44 -30 -82 -58 -85 -63 -3 -5 -13 -11 -21 -15 -8 -4
-33 -18 -55 -31 -53 -33 -135 -72 -215 -102 -97 -38 -147 -65 -195 -106 -24
-21 -48 -38 -54 -38 -6 0 -15 -9 -21 -20 -6 -11 -16 -20 -23 -20 -7 0 -29 -9
-50 -20 -20 -11 -43 -20 -49 -20 -7 0 -24 -9 -38 -20 -14 -11 -33 -20 -43 -20
-41 0 -123 -49 -157 -94 -19 -25 -40 -45 -47 -46 -7 0 -16 -6 -20 -13 -4 -7
-29 -21 -55 -31 -27 -10 -48 -22 -48 -27 0 -5 -9 -9 -21 -9 -19 0 -99 -54
-107 -72 -2 -5 -12 -8 -22 -8 -10 0 -21 -9 -25 -19 -3 -11 -19 -26 -35 -33
-17 -7 -30 -19 -30 -25 0 -7 -4 -13 -9 -13 -5 0 -13 -9 -16 -20 -3 -11 -12
-20 -19 -20 -7 0 -27 -20 -46 -45 -19 -25 -37 -45 -42 -45 -4 0 -8 -6 -8 -13
0 -7 -13 -26 -30 -42 -31 -30 -36 -50 -20 -75 8 -13 11 -11 16 7 4 14 11 20
20 16 8 -3 25 4 38 16 27 25 123 64 137 56 5 -4 9 -1 9 6 0 7 10 9 25 7 13 -3
22 -2 20 2 -3 4 14 11 37 14 23 4 45 12 49 17 4 6 9 4 13 -6 4 -12 0 -18 -13
-22 -14 -3 -21 -17 -26 -51 -7 -48 -51 -152 -65 -152 -4 0 -13 -13 -20 -29 -7
-18 -30 -39 -60 -55 -27 -15 -52 -31 -55 -37 -4 -5 -11 -7 -16 -4 -5 4 -9 2
-9 -4 0 -6 -19 -16 -42 -22 -59 -17 -104 -59 -328 -309 -61 -69 -68 -106 -34
-199 20 -56 28 -97 30 -157 1 -45 4 -87 8 -92 9 -15 -69 -104 -246 -282 -27
-26 -48 -52 -48 -57 0 -5 -11 -20 -25 -33 -13 -12 -29 -38 -35 -56 -6 -18 -17
-35 -25 -38 -8 -3 -15 -13 -15 -22 0 -14 27 -15 283 -12 281 5 282 5 347 32
36 15 85 34 110 41 25 7 76 25 115 39 38 14 78 26 88 26 10 0 31 7 46 14 15 8
39 16 53 18 14 2 32 9 39 15 17 13 133 53 154 53 8 0 15 5 15 10 0 6 8 10 18
10 10 0 27 7 38 14 12 8 50 25 85 37 35 12 68 28 72 36 5 7 12 11 18 8 5 -4 9
-1 9 4 0 13 69 43 80 36 5 -3 11 -1 15 5 10 16 94 55 163 75 34 11 62 22 62
25 0 7 60 21 175 40 39 7 82 16 96 20 14 4 85 16 157 26 l132 19 0 172 0 173
-77 2 c-107 2 -158 -1 -223 -14 -74 -15 -191 -16 -197 -2 -4 12 -18 15 -87 14
-47 0 -147 -37 -161 -59 -3 -5 -38 -26 -78 -45 -62 -31 -77 -44 -102 -87 -17
-27 -31 -45 -34 -38 -2 6 -13 -6 -25 -27 -19 -34 -20 -42 -9 -64 17 -33 0 -50
-59 -61 -24 -4 -70 -15 -103 -23 -92 -25 -241 -48 -332 -51 -76 -2 -84 0 -97
20 -11 17 -12 25 -3 34 9 9 9 14 -1 20 -9 5 1 18 34 44 26 21 52 37 57 37 5 0
22 11 39 25 16 14 36 25 43 25 8 0 18 6 22 13 4 7 31 28 60 46 32 21 54 43 58
58 7 29 10 25 -38 52 -22 12 -55 21 -82 21 -24 0 -66 4 -92 10 -26 5 -64 12
-83 14 -73 9 -80 14 -76 60 3 49 16 76 67 136 20 25 49 62 63 83 27 42 97 97
121 97 8 0 15 4 15 8 0 9 86 72 99 72 5 0 11 6 14 13 3 6 22 21 43 32 22 10
46 24 54 31 16 13 64 40 189 107 74 39 173 104 204 133 18 16 163 84 180 84 8
0 20 7 27 15 7 8 19 15 26 15 7 0 21 11 30 25 9 14 22 25 29 25 8 0 16 9 20
19 3 11 31 41 63 67 31 27 67 58 80 70 13 12 40 30 60 39 20 10 56 31 80 46
24 16 48 29 55 29 7 0 21 7 31 15 11 8 28 15 37 15 24 0 59 52 59 88 l0 30
-30 -14 c-16 -9 -30 -19 -30 -23 0 -8 -112 -61 -129 -61 -5 0 -14 -6 -20 -14
-7 -8 -26 -18 -43 -21 -26 -6 -97 -37 -148 -64 -8 -4 -25 -13 -37 -19 -13 -7
-48 -12 -80 -12 -33 0 -63 -6 -72 -14 -9 -7 -36 -16 -61 -20 -43 -7 -44 -6
-22 9 14 11 22 26 22 46 0 16 5 29 10 29 6 0 10 7 10 16 0 22 69 102 94 108
12 3 32 15 45 27 26 25 117 89 126 89 8 0 100 72 103 81 2 5 11 9 19 9 8 0 41
16 73 35 32 19 62 35 67 35 6 0 22 11 37 25 15 13 35 29 46 35 17 9 20 21 20
70 0 42 -4 60 -12 59 -7 0 -49 -25 -92 -54z m-616 -659 c0 -16 -37 -28 -46
-15 -8 14 5 29 27 29 10 0 19 -6 19 -14z m-77 -30 c4 -10 1 -13 -8 -9 -8 3
-12 9 -9 14 7 12 11 11 17 -5z m57 -16 c0 -5 -2 -10 -4 -10 -3 0 -8 5 -11 10
-3 6 -1 10 4 10 6 0 11 -4 11 -10z m-134 -35 c20 -19 10 -35 -22 -35 -14 0
-24 -6 -24 -14 0 -15 -60 -28 -74 -16 -13 13 3 30 29 30 12 0 25 7 29 15 3 8
12 15 21 15 8 0 15 5 15 10 0 14 9 12 26 -5z m54 -69 c0 -3 -4 -8 -10 -11 -5
-3 -10 -1 -10 4 0 6 5 11 10 11 6 0 10 -2 10 -4z m0 -1203 c24 -6 23 -7 -10
-18 -48 -17 -138 -6 -125 15 7 11 97 13 135 3z"/>
<path d="M7480 2608 c0 -9 5 -20 10 -23 13 -8 13 5 0 25 -8 13 -10 13 -10 -2z"/>
<path d="M4404 2575 c-15 -11 -16 -14 -4 -15 21 0 44 16 33 23 -6 4 -19 0 -29
-8z"/>
<path d="M4331 2518 c-28 -18 -31 -22 -16 -30 19 -11 65 15 65 37 0 19 -7 18
-49 -7z"/>
<path d="M8680 2349 c0 -5 5 -7 10 -4 6 3 10 8 10 11 0 2 -4 4 -10 4 -5 0 -10
-5 -10 -11z"/>
<path d="M4156 2282 c-4 -7 -16 -12 -27 -12 -20 0 -22 -21 -3 -27 16 -5 47 23
42 37 -3 11 -6 11 -12 2z"/>
<path d="M4075 2190 c-3 -5 3 -10 15 -10 12 0 18 5 15 10 -3 6 -10 10 -15 10
-5 0 -12 -4 -15 -10z"/>
<path d="M4085 1880 c-3 -5 0 -10 8 -10 8 0 30 -3 48 -6 l34 -5 -25 15 c-29
18 -56 20 -65 6z"/>
<path d="M328 433 c7 -3 16 -2 19 1 4 3 -2 6 -13 5 -11 0 -14 -3 -6 -6z"/>
<path d="M0 210 l0 -210 353 1 c193 1 344 3 335 6 -10 2 -18 8 -18 13 0 5 -16
24 -35 43 -19 19 -35 38 -35 42 0 4 -10 18 -22 30 -13 12 -38 39 -57 59 -18
19 -37 33 -42 30 -10 -6 -29 37 -22 49 2 4 -3 10 -11 13 -9 3 -16 11 -16 16 0
5 -13 23 -30 40 -16 16 -30 38 -30 49 0 26 -20 24 -53 -6 -27 -26 -35 -51 -17
-57 6 -2 4 -19 -5 -43 -11 -33 -18 -40 -37 -37 -13 1 -28 9 -34 17 -6 8 -18
15 -27 15 -8 0 -17 7 -21 15 -3 8 -12 12 -19 9 -9 -3 -23 7 -37 25 -13 19 -30
31 -44 31 -14 0 -28 10 -36 24 -7 14 -19 27 -26 30 -12 4 -14 -32 -14 -204z"/>
<path d="M12430 340 l-45 -7 48 -1 c26 -1 47 3 47 8 0 6 -1 9 -2 8 -2 0 -23
-4 -48 -8z"/>
<path d="M12304 305 c-10 -8 -32 -15 -47 -15 -16 0 -26 -3 -24 -7 3 -5 28 -6
55 -5 43 3 50 7 49 23 -2 23 -7 24 -33 4z"/>
<path d="M12418 303 c12 -2 32 -2 45 0 12 2 2 4 -23 4 -25 0 -35 -2 -22 -4z"/>
<path d="M475 260 c-3 -5 -1 -10 4 -10 6 0 11 5 11 10 0 6 -2 10 -4 10 -3 0
-8 -4 -11 -10z"/>
<path d="M5530 232 c0 -11 6 -22 14 -25 10 -4 12 0 9 14 -7 27 -23 34 -23 11z"/>
<path d="M5480 205 c0 -8 5 -15 10 -15 6 0 10 7 10 15 0 8 -4 15 -10 15 -5 0
-10 -7 -10 -15z"/>
<path d="M5510 171 c0 -11 -4 -23 -10 -26 -16 -10 -12 -58 4 -52 9 4 17 -1 19
-11 4 -15 8 13 11 85 1 9 -5 18 -11 21 -8 2 -13 -5 -13 -17z"/>
<path d="M5470 170 c8 -5 20 -10 25 -10 6 0 3 5 -5 10 -8 5 -19 10 -25 10 -5
0 -3 -5 5 -10z"/>
<path d="M5441 154 c0 -11 3 -14 6 -6 3 7 2 16 -1 19 -3 4 -6 -2 -5 -13z"/>
<path d="M5590 150 c-1 -3 -4 -24 -5 -47 -3 -42 9 -60 17 -25 4 16 -7 82 -12
72z"/>
<path d="M12438 134 c-21 -7 -51 -20 -67 -29 -17 -8 -41 -15 -56 -15 -14 0
-25 -4 -25 -10 0 -5 -15 -10 -32 -10 -41 -1 -202 -25 -214 -32 -5 -3 -25 -9
-44 -12 -116 -21 -90 -24 188 -25 l292 -1 0 75 c0 41 -1 74 -2 74 -2 -1 -20
-7 -40 -15z"/>
<path d="M5400 125 c0 -8 7 -15 15 -15 8 0 15 7 15 15 0 8 -7 15 -15 15 -8 0
-15 -7 -15 -15z"/>
<path d="M5460 116 c0 -22 3 -27 11 -19 8 8 8 16 0 30 -9 16 -10 14 -11 -11z"/>
<path d="M5550 111 c0 -6 5 -13 10 -16 6 -3 10 1 10 9 0 9 -4 16 -10 16 -5 0
-10 -4 -10 -9z"/>
<path d="M3058 76 c-19 -14 -24 -36 -9 -36 5 0 16 11 25 25 18 27 11 32 -16
11z"/>
<path d="M5470 67 c0 -10 -7 -13 -18 -10 -10 2 -25 -3 -33 -13 -13 -15 -12
-16 10 -9 21 6 23 5 18 -14 -5 -20 -2 -22 26 -19 29 3 32 6 32 38 0 25 -5 36
-17 38 -11 2 -18 -3 -18 -11z"/>
<path d="M5610 47 c0 -26 4 -37 15 -37 12 0 14 7 9 28 -11 44 -24 50 -24 9z"/>
<path d="M5550 62 c0 -6 -7 -18 -16 -26 -9 -9 -11 -16 -4 -16 6 0 8 -5 5 -10
-4 -6 8 -10 29 -10 l36 0 -13 32 c-12 31 -37 50 -37 30z"/>
<path d="M5180 52 c0 -6 -2 -17 -5 -24 -4 -9 2 -14 15 -14 24 0 26 18 5 36 -9
8 -15 8 -15 2z"/>
<path d="M5245 31 c0 -19 4 -27 13 -23 15 5 12 44 -3 49 -5 2 -10 -10 -10 -26z"/>
<path d="M5360 51 c0 -6 4 -12 10 -16 5 -3 7 -12 3 -20 -4 -11 -1 -13 11 -9
14 5 14 8 -1 30 -16 26 -23 30 -23 15z"/>
<path d="M5281 18 c-1 -12 6 -18 19 -18 12 0 20 7 20 16 0 13 -3 14 -14 5 -11
-9 -15 -9 -19 1 -4 8 -6 7 -6 -4z"/>
</g>
</svg>
