<?xml version="1.0" standalone="no"?>
<!DOCTYPE svg PUBLIC "-//W3C//DTD SVG 20010904//EN"
 "http://www.w3.org/TR/2001/REC-SVG-20010904/DTD/svg10.dtd">
<svg version="1.0" xmlns="http://www.w3.org/2000/svg"
 width="1248.000000pt" height="801.000000pt" viewBox="0 0 1248.000000 801.000000"
 preserveAspectRatio="xMidYMid meet">

<g transform="translate(0.000000,801.000000) scale(0.100000,-0.100000)"
fill="#000000" stroke="none">
<path d="M0 7827 l0 -184 62 -56 c34 -32 65 -57 69 -57 4 0 9 -4 11 -8 2 -5
29 -28 61 -51 31 -24 57 -49 57 -56 0 -7 12 -21 28 -31 15 -9 35 -27 44 -38
30 -36 90 -86 104 -86 16 -1 56 -39 50 -49 -3 -5 3 -11 14 -14 11 -3 24 -16
29 -30 6 -14 18 -28 28 -31 21 -7 103 -81 103 -93 0 -5 17 -17 37 -28 37 -20
66 -42 110 -82 13 -13 27 -23 31 -23 4 0 47 -38 95 -85 48 -47 92 -85 97 -85
6 0 10 -6 10 -14 0 -8 7 -16 15 -20 8 -3 15 -11 15 -19 0 -16 41 -57 57 -57 7
0 15 -9 18 -20 3 -11 10 -20 14 -20 4 0 17 -8 29 -17 12 -10 50 -38 86 -63 36
-25 64 -50 62 -56 -5 -12 28 -44 44 -44 6 0 10 -6 10 -14 0 -8 18 -31 40 -52
22 -21 40 -42 40 -48 0 -14 106 -113 129 -121 12 -3 21 -11 21 -16 0 -5 11
-14 25 -19 14 -5 28 -17 31 -25 4 -8 13 -15 20 -15 8 0 17 -7 20 -15 4 -8 15
-15 25 -15 10 0 19 -4 19 -10 0 -5 18 -19 40 -30 24 -12 40 -27 40 -38 0 -16
65 -85 81 -87 3 0 13 -7 22 -17 9 -9 29 -22 44 -29 16 -7 46 -35 68 -62 22
-27 55 -64 73 -82 17 -19 32 -40 32 -48 0 -15 48 -37 79 -37 17 0 27 -8 125
-109 39 -39 76 -71 83 -71 7 0 13 -9 13 -20 0 -13 7 -20 19 -20 10 0 24 -7 31
-15 7 -9 28 -23 47 -31 18 -9 38 -25 44 -35 5 -11 15 -19 22 -19 7 0 18 -9 24
-19 7 -11 22 -21 35 -23 12 -2 28 -14 35 -28 20 -41 78 -96 122 -116 22 -10
41 -23 41 -29 0 -5 18 -18 40 -28 24 -11 40 -26 40 -35 0 -10 11 -29 24 -43
13 -14 26 -35 30 -46 4 -12 15 -23 26 -26 11 -3 23 -13 26 -24 11 -34 38 -83
46 -83 5 0 8 -8 8 -19 0 -10 9 -21 20 -24 11 -3 20 -12 20 -21 0 -9 4 -16 9
-16 5 0 11 -9 14 -21 3 -12 10 -18 16 -14 6 3 22 -5 36 -19 14 -15 30 -26 35
-26 6 0 10 -4 10 -9 0 -13 56 -71 69 -71 6 0 11 -3 11 -8 0 -7 9 -13 66 -42
31 -16 53 -39 54 -55 0 -5 -4 -4 -9 3 -6 10 -10 10 -21 -3 -11 -13 -10 -15 4
-9 17 6 21 -5 8 -22 -4 -5 0 -3 8 6 45 45 205 164 256 189 76 37 121 49 215
57 l76 7 -38 34 c-22 20 -39 42 -39 51 0 8 -11 38 -24 66 -56 120 -67 161 -46
168 6 2 12 22 13 46 2 49 25 76 72 85 17 4 24 4 17 1 -20 -9 15 -44 36 -37 14
4 14 3 3 -5 -17 -12 -8 -40 16 -49 10 -3 30 -15 45 -25 21 -14 32 -16 46 -9
25 13 69 72 88 116 8 19 18 35 22 35 4 0 8 12 9 27 0 14 7 30 15 34 19 11 56
42 41 34 -23 -11 -13 14 10 26 12 7 23 12 25 11 1 -1 5 -2 10 -2 4 0 0 4 -7 9
-12 8 -9 11 14 17 l29 7 -24 9 c-20 7 -22 11 -10 18 8 5 29 10 45 11 17 1 22
3 13 6 -10 2 -18 9 -18 14 0 13 38 11 42 -3 5 -15 28 -1 28 16 0 8 -10 16 -22
19 -12 4 -19 9 -16 12 3 3 21 0 39 -7 65 -26 91 -1 42 38 l-28 22 28 -5 c15
-3 27 -9 27 -14 0 -5 15 -16 33 -25 31 -17 31 -16 17 1 -14 17 -13 18 4 12 15
-6 17 -4 13 13 -6 25 1 26 20 3 14 -17 14 -17 9 -1 -4 15 0 16 24 11 19 -3 30
-1 30 6 0 6 -4 11 -10 11 -5 0 -10 5 -10 10 0 7 6 7 19 1 15 -9 18 -7 17 7 0
9 -7 23 -13 30 -7 7 -13 18 -13 24 0 6 14 -6 30 -27 23 -29 30 -33 30 -18 0
10 -5 24 -12 31 -9 9 -5 11 21 8 25 -3 31 0 27 11 -3 8 -6 17 -6 19 0 2 -6 4
-14 4 -7 0 -21 11 -30 25 -22 33 -20 42 4 20 10 -9 26 -15 35 -12 17 7 20 33
5 42 -12 7 -14 75 -2 75 5 0 9 -13 9 -29 0 -16 7 -37 16 -46 10 -9 17 -12 17
-6 0 5 -5 13 -10 16 -6 4 -7 12 -3 18 4 7 7 25 6 42 -1 19 0 23 4 10 3 -11 11
-28 18 -38 10 -15 13 -6 19 62 4 44 5 97 2 118 l-6 38 15 -30 c8 -16 15 -37
15 -45 3 -42 16 33 16 88 -1 34 2 62 6 62 5 0 8 -4 8 -9 0 -5 9 -7 20 -4 11 3
17 9 14 14 -3 5 -10 7 -15 4 -5 -4 -9 -1 -9 4 0 6 5 11 10 11 7 0 9 19 5 53
-5 45 -4 54 9 54 9 0 16 -6 16 -14 0 -7 -4 -13 -10 -13 -14 0 -12 -16 3 -32
13 -13 18 -110 6 -102 -10 6 0 -119 9 -126 15 -10 34 -69 27 -80 -6 -9 -9 -9
-15 0 -5 8 -9 -3 -9 -26 -2 -84 -4 -94 -11 -89 -4 2 -12 -7 -18 -20 -13 -29
-6 -32 20 -8 22 20 36 10 17 -14 -12 -15 -12 -16 6 -10 20 7 20 7 1 -8 -11 -8
-26 -15 -33 -15 -7 0 -13 -4 -13 -10 0 -5 11 -10 25 -10 16 0 25 -6 25 -16 0
-10 6 -14 14 -11 14 5 36 -10 36 -25 0 -4 -9 -8 -19 -8 -28 0 -37 -20 -9 -21
l23 0 -22 -11 c-13 -6 -23 -14 -23 -18 0 -11 30 -21 41 -14 5 3 9 1 9 -5 0 -5
-6 -11 -13 -14 -24 -8 61 -38 101 -36 23 2 45 0 48 -4 4 -4 -2 -7 -14 -7 -12
0 -22 -4 -22 -10 0 -5 11 -10 25 -10 14 0 25 6 25 13 0 8 11 19 25 25 21 10
25 9 25 -3 0 -8 -4 -15 -10 -15 -5 0 -10 -6 -10 -13 0 -8 -10 -19 -22 -25 -21
-10 -21 -11 12 -11 19 -1 31 -5 25 -9 -13 -9 -17 -32 -6 -32 5 0 12 6 15 13 3
9 8 8 18 -4 7 -8 21 -18 30 -22 11 -4 15 -12 12 -22 -5 -11 1 -15 19 -15 28 0
44 -15 25 -23 -7 -3 -3 -6 9 -6 22 -1 48 -33 36 -45 -3 -3 8 -6 25 -6 18 0 32
-4 32 -9 0 -5 18 -11 40 -15 22 -3 40 -11 40 -16 0 -6 8 -10 18 -11 11 0 13
-2 4 -6 -8 -3 -24 0 -37 7 -13 7 -29 10 -36 8 -8 -3 5 -13 29 -23 23 -10 44
-27 48 -37 3 -10 9 -18 14 -18 5 0 7 7 4 15 -4 8 -1 15 5 15 6 0 11 -13 11
-30 0 -25 4 -30 25 -30 16 0 25 -6 25 -16 0 -10 6 -14 15 -11 8 4 17 2 20 -3
4 -6 1 -10 -5 -10 -6 0 -8 -5 -5 -10 4 -6 10 -8 14 -5 5 2 11 -9 15 -25 4 -20
14 -34 31 -40 14 -5 25 -16 25 -24 0 -9 14 -18 35 -22 30 -5 40 -2 70 25 20
17 47 31 61 31 14 0 54 20 90 44 88 61 125 72 178 55 50 -16 54 -21 54 -69 1
-29 -4 -39 -18 -43 -19 -5 -19 -7 -3 -38 9 -19 21 -37 26 -40 5 -3 2 -9 -7
-12 -9 -4 -16 -13 -16 -21 0 -7 -9 -16 -21 -19 -13 -3 -18 -10 -14 -17 4 -7
-2 -18 -14 -26 -12 -8 -21 -22 -21 -31 0 -25 -53 -79 -75 -75 -19 3 -19 3 1
-15 11 -10 32 -34 45 -53 l24 -35 -42 33 c-42 33 -64 42 -44 18 9 -11 6 -15
-15 -20 -20 -5 -25 -12 -21 -27 3 -12 -1 -23 -14 -29 -11 -6 -19 -21 -19 -36
0 -22 -3 -24 -27 -18 -27 7 -27 6 -12 -12 9 -10 19 -28 23 -38 7 -19 6 -19
-13 -2 -14 13 -21 14 -27 5 -4 -7 1 -18 12 -27 18 -13 17 -14 -13 -8 -31 5
-38 0 -35 -25 1 -4 -10 -10 -23 -13 -14 -4 -25 -11 -25 -16 0 -6 -9 -10 -20
-10 -11 0 -20 -4 -20 -10 0 -5 -11 -12 -25 -16 -14 -3 -25 -10 -25 -15 0 -5
-7 -9 -15 -9 -8 0 -20 -10 -26 -22 -8 -14 -14 -18 -17 -10 -4 13 -32 17 -32 4
0 -4 9 -13 20 -20 36 -22 21 -32 -22 -13 -44 18 -73 18 -61 -2 4 -7 0 -8 -12
-3 -11 4 -22 2 -26 -6 -6 -9 -16 -9 -43 -1 -32 10 -37 9 -46 -8 -6 -10 -17
-19 -25 -19 -8 0 -15 -4 -15 -10 0 -5 5 -10 12 -10 6 0 8 -3 5 -6 -4 -4 -29 3
-56 15 -27 11 -52 21 -55 21 -12 0 -6 -29 7 -33 6 -2 2 -2 -10 -1 -12 2 -32 0
-45 -5 -13 -6 -18 -10 -12 -10 11 -1 16 -31 5 -31 -3 0 -21 9 -38 20 -18 11
-33 15 -33 10 0 -5 8 -14 18 -19 14 -9 15 -12 3 -20 -8 -5 -10 -14 -6 -21 5
-9 4 -11 -3 -6 -7 4 -12 3 -12 -3 0 -5 5 -13 10 -16 6 -3 10 -15 10 -26 0 -15
-17 -1 -60 51 -34 40 -58 75 -55 78 3 3 11 0 17 -6 7 -7 18 -12 26 -12 12 0
12 3 2 15 -11 14 -7 19 13 16 4 -1 3 8 -3 19 -8 15 -8 20 2 20 7 1 2 7 -11 14
l-24 13 21 21 c16 16 18 22 6 26 -28 11 -15 29 16 23 26 -6 30 -4 30 15 0 12
-8 30 -17 41 -17 19 -17 19 3 13 18 -5 21 -2 22 26 2 33 9 73 13 73 7 0 4 62
-4 73 -7 9 -5 17 8 26 13 9 16 20 11 39 -5 20 -3 27 8 27 17 0 10 38 -11 59
-10 9 -11 17 -3 26 7 9 6 16 -5 25 -17 14 -20 56 -5 65 21 13 9 25 -24 25 -41
0 -81 14 -102 35 -9 8 -21 15 -29 15 -7 0 -27 14 -45 30 -18 17 -36 30 -40 30
-5 0 -10 6 -12 12 -3 7 -25 13 -52 14 -27 1 -51 6 -55 11 -11 15 -231 8 -281
-9 -25 -9 -61 -19 -81 -22 -64 -11 -154 -61 -175 -98 -55 -93 -65 -134 -71
-284 l-5 -144 43 -40 c24 -22 47 -40 51 -40 5 0 8 -4 8 -9 0 -4 22 -31 49 -59
28 -27 47 -53 44 -56 -4 -3 2 -6 11 -6 12 0 16 -5 13 -15 -4 -8 -2 -17 3 -20
6 -4 5 -14 -2 -25 -7 -11 -9 -22 -6 -26 10 -9 38 21 38 40 0 27 25 18 28 -9 1
-19 -5 -28 -22 -35 -23 -8 -36 -28 -36 -56 0 -22 18 -16 22 7 2 15 11 23 31
25 29 3 35 -12 17 -47 -8 -15 -7 -19 5 -19 8 0 15 6 15 13 0 8 4 7 10 -3 8
-12 10 -11 10 7 0 36 19 36 28 1 l9 -33 7 33 c8 35 26 44 26 12 0 -11 5 -20
10 -20 6 0 10 9 10 21 0 11 5 17 10 14 6 -3 10 -18 10 -33 0 -22 5 -27 26 -28
34 -2 40 -10 23 -31 -9 -11 -10 -14 -1 -9 7 4 12 2 12 -8 0 -8 5 -27 11 -43 8
-22 12 -25 21 -13 8 12 9 12 4 -2 -3 -12 7 -31 29 -55 19 -21 43 -47 52 -59
26 -30 57 -93 50 -100 -3 -3 0 -27 8 -52 7 -26 13 -67 14 -92 4 -92 36 -76 77
38 15 42 31 81 36 87 4 5 8 17 8 26 0 17 35 49 52 49 5 0 8 -10 8 -23 0 -12 6
-32 14 -43 8 -11 18 -37 22 -59 9 -47 39 -84 64 -78 12 3 22 -3 29 -16 16 -29
50 -46 64 -32 17 17 34 13 40 -9 4 -17 9 -19 32 -10 20 8 31 7 42 -2 11 -9 16
-9 24 3 5 8 9 20 9 27 0 9 7 11 20 7 15 -5 22 -1 29 17 6 14 10 17 10 7 1 -11
9 -14 30 -11 23 3 28 8 23 24 -3 13 1 21 16 25 11 3 19 10 16 17 -2 6 4 16 14
22 14 9 23 7 45 -12 15 -13 27 -29 27 -36 0 -9 3 -9 10 2 8 12 10 9 10 -13 0
-16 -4 -26 -10 -22 -5 3 -10 3 -10 -2 0 -9 -48 -33 -67 -33 -7 0 -13 5 -13 10
0 6 -6 10 -14 10 -15 0 -26 -21 -26 -52 0 -14 -5 -18 -15 -14 -9 3 -15 0 -15
-10 0 -10 6 -14 14 -11 8 3 17 -1 20 -9 3 -7 0 -13 -7 -11 -6 1 -13 -8 -15
-20 -4 -25 -21 -30 -39 -12 -13 13 -43 -25 -43 -55 0 -22 -53 -226 -70 -271
-15 -38 -29 -125 -21 -125 4 0 23 11 43 25 21 14 49 30 64 35 17 7 24 15 20
25 -7 19 -7 19 40 -1 l39 -16 -24 26 c-14 14 -19 26 -13 26 7 0 11 5 10 10 -2
6 8 16 22 23 40 20 143 179 184 284 19 48 23 77 22 143 -1 77 1 85 26 118 15
19 28 41 28 48 0 7 14 21 30 31 16 9 30 21 30 25 0 4 8 8 17 8 9 0 13 3 10 6
-4 4 4 21 16 38 12 17 21 37 19 43 -2 7 3 13 10 13 7 0 1 10 -14 23 -26 22
-26 25 -14 62 8 21 20 43 27 49 20 16 50 72 42 80 -3 3 -1 6 5 6 6 0 13 13 17
29 3 16 15 37 26 47 10 9 19 23 19 30 0 16 60 74 77 74 6 0 9 9 6 23 -4 16 -2
19 5 8 9 -12 13 -12 27 2 9 10 21 17 26 17 6 0 8 4 5 9 -7 11 28 21 82 21 23
0 42 5 42 10 0 6 9 10 19 10 11 0 26 7 34 15 8 8 34 17 57 21 23 4 49 14 58
24 10 9 25 20 35 23 9 4 17 12 17 19 0 15 63 58 84 58 24 0 46 12 40 21 -3 5
0 9 5 9 6 0 10 5 9 11 -2 6 3 14 10 16 6 3 12 0 12 -6 0 -6 4 -11 10 -11 16 0
51 40 45 50 -8 14 29 30 72 31 21 0 32 3 26 6 -15 5 -17 39 -4 47 5 4 11 1 13
-5 2 -7 13 -9 25 -5 15 5 19 13 16 26 -4 16 1 21 26 26 37 8 49 22 27 30 -17
6 -22 34 -7 34 4 0 22 -5 40 -11 33 -12 40 -26 16 -35 -8 -4 -12 -11 -9 -16 4
-6 0 -14 -7 -19 -11 -7 -9 -9 7 -9 14 0 24 -8 28 -22 8 -33 7 -45 -4 -28 -5 8
-12 11 -16 8 -4 -4 1 -19 10 -33 12 -19 14 -30 6 -44 -5 -11 -10 -28 -10 -38
0 -15 2 -16 11 -3 8 11 9 9 3 -10 -4 -14 -14 -30 -22 -36 -8 -6 -12 -16 -8
-23 11 -17 -3 -51 -20 -51 -18 0 -104 -83 -104 -99 0 -14 -6 -14 -29 1 -11 7
-26 8 -37 3 -18 -8 -18 -9 3 -12 22 -4 22 -4 2 -24 -10 -10 -23 -19 -29 -19
-21 0 -9 -28 15 -34 25 -6 35 -26 14 -26 -9 0 -10 -20 -6 -69 7 -89 2 -109
-32 -113 -23 -3 -26 -7 -23 -36 1 -18 11 -46 23 -61 29 -40 41 -99 22 -110
-12 -6 -13 -12 -4 -29 6 -11 11 -38 11 -58 0 -21 9 -70 19 -108 11 -39 22
-116 26 -171 4 -55 9 -122 11 -150 2 -27 11 -75 19 -105 9 -30 19 -71 24 -90
4 -19 22 -51 39 -70 18 -19 35 -50 38 -70 3 -19 7 -41 9 -47 5 -15 35 -17 35
-3 0 20 21 9 33 -17 20 -45 58 -76 96 -79 20 -1 37 -7 39 -13 2 -6 12 -11 23
-11 11 0 66 -11 124 -25 79 -18 111 -22 131 -15 37 15 94 13 94 -3 0 -7 16
-19 35 -26 41 -14 43 -24 13 -46 -18 -12 -21 -19 -12 -33 14 -22 3 -52 -26
-72 -57 -39 -55 -36 -42 -64 10 -22 9 -28 -3 -33 -9 -3 -23 -19 -31 -36 -13
-25 -14 -31 -2 -39 10 -7 8 -12 -9 -25 -13 -8 -23 -25 -23 -38 0 -12 -9 -30
-20 -40 -25 -23 -25 -32 0 -40 11 -4 20 -15 20 -26 0 -11 4 -29 10 -39 8 -15
6 -20 -10 -25 -24 -7 -26 -30 -5 -39 22 -8 18 -43 -5 -49 -13 -3 -18 -10 -14
-21 8 -22 -2 -61 -22 -80 -19 -20 -12 -32 23 -41 15 -3 33 -11 39 -16 15 -12
6 -49 -12 -49 -7 0 -25 -12 -39 -26 -25 -25 -25 -27 -8 -40 10 -7 27 -16 38
-20 11 -3 34 -16 50 -28 47 -34 82 -46 115 -40 16 4 30 10 30 14 0 4 17 11 37
15 21 4 49 13 63 20 35 19 100 82 100 98 0 8 19 40 42 73 23 32 50 80 60 106
10 27 26 56 37 67 10 10 23 27 29 37 10 18 12 18 31 -5 12 -13 26 -43 33 -65
6 -23 17 -48 23 -56 6 -8 18 -31 25 -50 20 -53 63 -113 174 -245 110 -131 117
-138 193 -191 45 -32 62 -37 137 -45 47 -5 101 -15 118 -22 42 -18 98 -65 98
-82 0 -7 19 -29 43 -50 89 -78 107 -98 107 -121 0 -12 5 -26 10 -29 6 -3 10
-14 10 -24 0 -10 11 -28 25 -41 13 -13 43 -55 66 -94 23 -39 48 -76 56 -83 12
-9 12 -16 2 -34 -16 -32 -50 -58 -73 -59 -11 0 -46 -6 -79 -12 -43 -9 -61 -18
-67 -33 -17 -43 -69 -76 -135 -86 -64 -9 -95 -5 -95 13 0 5 -11 19 -25 32 -14
13 -25 28 -25 34 0 5 -14 15 -31 21 -27 9 -33 8 -55 -14 -40 -40 -95 -63 -172
-70 -50 -5 -82 -4 -104 5 -39 16 -67 47 -68 76 0 28 -64 101 -111 124 -22 12
-58 20 -86 20 -26 0 -54 4 -62 9 -8 5 -24 37 -35 72 -12 34 -27 64 -34 67 -7
2 -12 0 -11 -5 3 -10 -6 -34 -32 -92 -37 -81 -87 -246 -94 -309 -4 -34 -14
-69 -22 -78 -9 -8 -13 -18 -9 -21 3 -3 -3 -20 -13 -37 -11 -17 -25 -60 -31
-96 -14 -79 -34 -140 -67 -205 -20 -37 -27 -71 -31 -133 l-5 -82 2248 2 2248
3 24 43 c13 23 21 42 18 42 -4 0 1 7 9 16 9 8 16 25 16 37 0 12 11 40 25 62
13 22 29 50 34 62 5 11 15 24 20 28 6 3 11 19 11 35 0 37 52 101 65 80 6 -9 4
-11 -5 -5 -9 6 -11 0 -6 -23 5 -21 2 -34 -10 -46 -13 -14 -18 -44 -23 -144 -5
-87 -12 -137 -23 -160 l-16 -32 114 0 114 0 0 2146 0 2147 -88 -89 c-49 -49
-121 -120 -160 -158 -40 -38 -72 -73 -72 -77 0 -5 -6 -9 -13 -9 -7 0 -26 -16
-42 -35 -17 -19 -34 -35 -39 -35 -17 0 -243 -223 -321 -316 -65 -78 -166 -177
-220 -216 -27 -20 -62 -49 -77 -65 -16 -15 -46 -44 -69 -63 -54 -47 -65 -57
-127 -123 -29 -32 -56 -57 -60 -57 -12 0 -142 -109 -142 -119 0 -12 -73 -86
-93 -94 -9 -3 -17 -13 -17 -22 0 -8 -26 -32 -57 -52 -32 -20 -62 -42 -66 -50
-4 -7 -14 -13 -21 -13 -8 0 -17 -11 -20 -24 -3 -13 -18 -31 -33 -41 -35 -22
-74 -63 -92 -98 -8 -15 -22 -27 -32 -27 -10 0 -23 -9 -29 -20 -6 -11 -15 -20
-21 -20 -12 0 -70 -42 -111 -80 -49 -45 -70 -62 -93 -74 -13 -7 -78 -67 -146
-135 -68 -67 -139 -129 -156 -136 -18 -8 -33 -19 -33 -24 0 -6 -9 -11 -19 -11
-11 0 -30 -15 -42 -33 -32 -45 -139 -148 -167 -158 -13 -5 -26 -19 -29 -30 -4
-16 -8 -18 -14 -7 -7 10 -9 10 -9 1 0 -7 -7 -13 -15 -13 -8 0 -15 -6 -15 -12
-1 -14 -66 -88 -78 -88 -4 0 -33 -25 -65 -55 -31 -30 -62 -55 -67 -55 -6 0
-41 -29 -78 -65 -36 -36 -72 -65 -79 -65 -7 0 -13 -4 -13 -8 0 -26 -121 -49
-167 -31 -28 11 -29 23 -3 49 11 11 20 29 20 40 0 11 5 20 11 20 17 0 69 57
69 75 0 9 5 13 10 10 6 -3 11 -1 11 4 1 6 2 15 3 19 1 9 43 58 84 97 12 12 22
27 22 33 0 6 10 14 22 18 23 7 98 79 98 94 0 5 9 12 20 15 11 3 20 14 20 24 0
9 8 26 18 37 19 23 39 52 49 74 4 8 15 21 25 28 10 7 18 20 18 28 0 8 5 14 10
14 12 0 148 135 170 169 13 19 134 146 169 176 32 29 72 80 77 101 4 15 20 31
42 41 19 9 42 29 51 45 9 15 24 31 33 34 10 3 17 8 15 12 -2 8 10 21 118 134
41 43 79 78 85 78 13 0 128 117 138 140 10 21 117 120 130 120 7 0 12 7 12 15
0 8 5 15 10 15 6 0 29 19 53 43 23 24 53 52 67 63 28 22 135 143 168 191 19
27 101 83 155 105 9 4 17 12 17 18 0 5 6 10 14 10 8 0 24 11 37 25 13 13 30
25 37 25 7 0 17 11 22 25 5 14 39 53 75 87 36 34 65 67 65 73 0 12 167 182
217 222 71 55 103 86 103 97 0 7 16 21 35 32 19 10 35 22 35 26 0 5 35 42 78
84 171 167 246 241 292 290 26 28 68 66 92 84 23 18 75 67 115 109 l72 76 1
1588 0 1587 -5720 0 c-4928 0 -5720 -2 -5720 -14 0 -8 6 -16 12 -19 11 -4 11
-7 1 -18 -11 -11 -13 -10 -13 4 0 13 -9 17 -40 17 -27 0 -43 5 -46 15 -7 18
-31 20 -37 3 -4 -10 -7 -10 -18 0 -10 9 -115 12 -456 12 l-443 0 0 -183z
m1250 11 c0 -4 -10 -14 -22 -23 -18 -12 -24 -12 -27 -3 -2 7 -11 18 -20 25
-14 11 -14 12 2 13 9 0 17 4 17 9 0 5 11 4 25 -2 14 -7 25 -15 25 -19z m-47
-62 c7 -18 -1 -26 -18 -19 -8 2 -11 11 -8 19 7 18 19 18 26 0z m4123 -78 c-5
-46 -4 -51 8 -35 18 23 29 22 21 -2 -5 -16 -2 -18 15 -14 11 3 20 9 20 14 0 5
6 9 14 9 8 0 17 6 19 13 4 9 8 8 17 -3 9 -12 10 -10 6 13 -7 29 4 36 23 13 8
-10 9 -16 1 -21 -5 -3 -10 -16 -10 -28 1 -20 2 -20 11 -4 6 9 14 15 20 12 5
-4 12 2 16 11 5 14 9 11 18 -16 l11 -33 22 34 c14 23 22 28 22 17 0 -10 5 -18
10 -18 6 0 10 7 10 16 0 10 6 14 14 11 8 -3 19 5 26 19 17 31 29 31 22 -1 -4
-25 12 -35 21 -12 3 6 6 -7 6 -30 1 -24 6 -43 11 -43 6 0 10 7 10 15 0 8 5 15
11 15 7 0 9 -9 5 -22 -3 -13 -6 -27 -6 -32 0 -4 -7 -6 -15 -2 -10 3 -15 -1
-15 -12 -1 -16 -1 -16 -11 1 -5 9 -7 22 -4 27 3 6 3 10 -2 10 -4 0 -15 -15
-23 -33 -8 -17 -20 -32 -25 -32 -6 0 -25 -15 -43 -33 -29 -29 -32 -31 -32 -12
0 19 -3 17 -27 -12 -15 -18 -29 -35 -31 -38 -3 -3 -7 1 -9 8 -3 6 -11 12 -19
12 -8 0 -14 7 -14 16 0 8 -5 12 -10 9 -23 -14 -50 6 -51 38 -2 27 -2 28 -6 7
-7 -46 -13 -56 -22 -41 -7 11 -13 8 -26 -13 -10 -14 -25 -26 -34 -26 -9 0 -24
-14 -34 -31 -9 -17 -26 -33 -36 -36 -11 -3 -22 -12 -25 -20 -5 -12 -9 -13 -21
-3 -12 10 -15 9 -15 -8 0 -12 -9 -23 -20 -27 -11 -3 -20 -11 -20 -16 0 -6 -9
-8 -20 -4 -15 5 -21 0 -26 -22 -9 -44 -12 -50 -13 -26 -1 25 -21 43 -21 19 0
-21 -16 -20 -24 1 -6 15 -8 15 -17 3 -9 -12 -10 -10 -6 7 5 24 -10 34 -42 26
-12 -3 -21 -1 -21 6 0 6 -4 11 -10 11 -5 0 -10 -13 -10 -30 0 -34 -19 -41 -27
-10 -3 12 -11 19 -17 17 -14 -5 -34 40 -55 122 -16 61 -18 63 -34 46 -16 -16
-16 -19 -3 -34 16 -18 46 -94 46 -117 0 -8 -6 -14 -12 -14 -17 0 -54 56 -50
76 2 9 -3 25 -10 37 -27 42 -42 107 -30 119 7 7 12 20 12 30 0 10 7 18 15 18
8 0 15 -4 15 -9 0 -6 9 -9 20 -8 12 1 18 7 16 14 -7 16 6 17 22 1 9 -9 13 -4
18 20 8 42 24 51 24 15 0 -22 5 -29 20 -29 14 0 20 7 21 26 1 17 3 19 6 8 5
-20 33 -24 34 -5 0 10 2 10 6 0 7 -18 33 -16 33 2 0 8 7 15 15 15 8 0 15 -7
15 -15 0 -9 9 -15 25 -15 16 0 25 6 25 15 0 20 17 19 28 -2 9 -14 10 -14 17 6
3 11 11 19 16 16 5 -4 9 -1 9 4 0 6 7 11 15 11 8 0 21 15 29 33 l14 32 2 -45
1 -45 19 35 c11 20 19 28 20 19 0 -22 31 -34 42 -17 4 7 8 9 8 3 1 -5 7 5 15
23 20 47 28 39 21 -20z m-4046 12 c0 -11 -7 -20 -15 -20 -8 0 -15 9 -15 20 0
11 7 20 15 20 8 0 15 -9 15 -20z m20 -28 c0 -13 -24 -62 -31 -62 -3 0 -14 9
-24 20 -20 22 -14 35 20 43 32 8 35 7 35 -1z m4461 -32 c5 0 9 6 10 13 0 9 2
9 5 0 7 -16 -15 -55 -27 -48 -5 4 -8 21 -8 38 1 18 3 24 6 15 2 -10 9 -18 14
-18z m93 -115 c-24 -52 -28 -36 -7 32 15 47 19 53 21 31 2 -15 -4 -43 -14 -63z
m53 53 c-3 -7 -5 -2 -5 12 0 14 2 19 5 13 2 -7 2 -19 0 -25z m-1201 -77 c-10
-16 -23 -14 -30 5 -9 25 4 38 21 21 9 -8 12 -20 9 -26z m-166 -17 c0 -8 -4
-12 -10 -9 -5 3 -10 10 -10 16 0 5 5 9 10 9 6 0 10 -7 10 -16z m-2979 -44 c28
0 39 -4 39 -15 0 -11 11 -15 41 -15 36 0 41 3 36 19 -4 15 -1 17 17 12 35 -10
66 -35 66 -53 0 -9 9 -19 19 -23 12 -4 18 -12 14 -21 -8 -21 -113 -20 -113 1
0 9 -9 15 -22 15 -19 0 -20 -2 -8 -10 11 -7 11 -10 2 -10 -7 0 -10 -4 -7 -10
4 -6 -6 -10 -24 -10 -16 0 -33 5 -36 11 -5 7 -13 5 -25 -6 -13 -12 -20 -13
-25 -5 -4 6 -17 15 -28 19 -18 7 -21 15 -18 57 3 44 21 78 29 54 2 -6 21 -10
43 -10z m1450 -70 c28 -13 59 -90 59 -149 0 -35 32 -105 54 -118 24 -14 106
-86 164 -143 113 -112 146 -175 105 -205 -14 -11 -15 -16 -4 -43 12 -30 11
-33 -23 -69 -39 -41 -45 -60 -21 -69 22 -9 18 -39 -10 -84 -14 -21 -29 -56
-34 -77 -6 -21 -16 -61 -23 -90 -7 -28 -16 -55 -21 -59 -13 -13 -7 -89 8 -112
12 -16 13 -27 5 -41 -16 -31 -12 -52 14 -72 13 -11 27 -35 31 -56 4 -20 20
-54 35 -73 31 -39 65 -98 99 -168 18 -38 24 -43 48 -40 21 2 29 -2 31 -16 3
-12 0 -16 -8 -11 -10 6 -11 -11 -5 -75 6 -65 4 -84 -6 -91 -22 -14 -32 -11
-69 22 -19 17 -57 49 -85 71 -52 42 -95 94 -95 114 0 7 -12 27 -27 45 -31 36
-53 90 -53 131 0 18 -10 33 -30 48 -18 13 -33 36 -40 60 -6 22 -19 44 -29 49
-10 6 -30 35 -45 65 -15 31 -31 58 -37 61 -5 4 -9 17 -9 30 0 13 -7 30 -15 39
-17 17 -20 36 -5 36 6 0 10 7 10 15 0 8 -4 15 -8 15 -4 0 -9 14 -10 31 -1 18
-6 37 -9 43 -4 6 -8 16 -9 21 -4 23 -44 99 -44 85 -1 -8 -5 -5 -11 8 -8 21
-15 23 -56 21 -30 -2 -48 1 -51 9 -2 7 -12 12 -22 12 -10 0 -21 6 -23 13 -4 9
-7 9 -14 0 -5 -7 -28 -19 -52 -27 -41 -15 -43 -15 -67 9 -14 14 -31 25 -38 25
-7 0 -22 18 -35 40 -12 22 -29 40 -37 40 -8 0 -14 7 -14 15 0 11 -11 15 -40
15 -22 0 -40 5 -40 10 0 6 18 10 40 10 39 0 40 1 40 36 0 25 7 41 23 55 l22
18 -25 2 c-18 1 -13 4 20 13 l45 13 -53 11 c-29 7 -66 12 -82 12 -25 0 -30 -4
-30 -25 0 -15 -6 -25 -14 -25 -8 0 -16 -10 -18 -21 -6 -42 -32 -45 -69 -11
-19 18 -40 32 -46 32 -7 0 -13 9 -13 20 0 17 -7 20 -40 20 -22 0 -40 5 -40 10
0 6 9 10 20 10 22 0 26 20 8 38 -16 16 -28 15 -28 -3 0 -11 -11 -15 -40 -15
-38 0 -40 2 -40 30 0 17 -5 30 -13 30 -7 0 -19 23 -27 52 -15 50 -40 77 -40
42 0 -16 -2 -15 -20 4 -12 12 -27 22 -34 22 -16 0 -46 42 -46 65 0 8 -9 15
-20 15 -11 0 -20 6 -20 14 0 8 -3 21 -6 30 -4 11 -1 16 10 16 25 0 21 51 -4
57 -38 10 -21 26 20 19 38 -6 40 -5 40 20 0 21 3 24 14 15 10 -9 16 -8 26 4
11 13 15 12 37 -5 14 -11 33 -20 41 -20 9 0 37 -22 63 -50 36 -39 48 -60 54
-95 4 -30 12 -48 23 -51 58 -18 59 -21 20 -37 -50 -21 -48 -37 3 -37 30 0 42
4 46 18 2 9 19 25 38 34 29 14 36 15 52 3 10 -8 26 -15 35 -15 10 0 20 -11 24
-24 3 -14 17 -32 31 -41 13 -9 22 -22 19 -30 -2 -7 4 -15 15 -18 10 -3 23 -17
29 -32 11 -28 5 -49 -8 -29 -4 7 -15 8 -27 3 -19 -7 -19 -8 2 -8 12 -1 23 -5
25 -10 2 -6 17 -6 38 -1 19 4 27 8 18 9 -19 1 -24 27 -10 49 6 9 13 -1 21 -30
16 -53 91 -126 91 -88 0 25 21 6 40 -37 13 -31 17 -49 10 -53 -14 -9 -2 -40
16 -40 8 0 14 5 14 11 0 5 5 7 11 3 8 -5 8 -9 -1 -14 -19 -12 4 -21 45 -18 19
1 40 -3 47 -10 7 -7 25 -12 41 -12 17 0 35 -8 42 -17 11 -15 13 -15 24 6 10
18 10 26 -1 39 -8 9 -24 60 -37 112 -13 52 -29 113 -36 136 -8 24 -12 65 -9
101 4 49 1 67 -17 97 -26 45 -34 121 -17 162 15 35 89 104 111 104 9 0 19 4
22 10 3 6 13 6 23 1 9 -5 29 -14 43 -21z m1303 -11 c33 -19 50 -59 26 -59 -5
0 -10 4 -10 8 0 5 -16 16 -35 25 -24 11 -33 21 -29 32 8 19 6 19 48 -6z m-228
-86 c-5 -39 -6 -41 -15 -18 -4 11 -3 25 3 32 15 17 15 17 12 -14z m103 -13
c27 0 33 -25 10 -46 -16 -15 -19 -15 -19 -2 0 9 -16 25 -35 37 -33 19 -46 41
-25 41 6 0 10 -4 10 -10 0 -18 20 -11 21 8 0 13 2 12 9 -5 5 -13 18 -23 29
-23z m-212 -22 c-3 -8 -6 -5 -6 6 -1 11 2 17 5 13 3 -3 4 -12 1 -19z m2617 -8
c18 -17 50 -37 71 -45 20 -9 44 -29 53 -45 9 -17 20 -30 25 -30 4 0 7 -7 7
-15 0 -8 5 -15 10 -15 6 0 10 -4 10 -9 0 -20 68 -80 99 -88 l35 -9 -32 -13
c-40 -17 -60 -9 -73 27 -5 16 -21 35 -34 42 -14 7 -25 17 -25 22 0 17 -81 88
-124 108 -47 21 -66 44 -66 79 0 27 3 27 44 -9z m-2545 -72 c32 -35 33 -40 21
-62 -7 -14 -10 -32 -7 -40 4 -10 1 -16 -7 -16 -8 0 -16 5 -18 11 -2 6 -29 11
-65 11 -60 0 -62 1 -68 29 -5 21 -13 29 -28 30 -17 1 -18 2 -4 6 9 2 17 14 17
25 0 15 5 19 20 15 11 -3 23 -1 26 5 3 5 12 7 19 4 7 -2 21 4 31 15 10 11 20
16 23 12 3 -5 21 -25 40 -45z m948 -30 c-3 -8 -6 -5 -6 6 -1 11 2 17 5 13 3
-3 4 -12 1 -19z m2781 -22 c4 -17 -14 -46 -28 -46 -10 0 -22 48 -15 60 9 14
40 4 43 -14z m-3948 -11 c16 -29 7 -43 -15 -25 -16 13 -21 50 -7 50 5 0 15
-11 22 -25z m1173 -47 c-8 -46 -13 -48 -13 -5 0 21 4 37 10 37 5 0 7 -14 3
-32z m-1200 -29 c4 -14 11 -20 21 -16 9 4 19 1 23 -6 12 -18 73 -48 73 -36 0
6 -7 17 -15 25 -21 21 -19 37 3 26 9 -5 34 -17 55 -27 37 -17 51 -45 22 -45
-15 0 -17 -5 -19 -45 -1 -15 -9 -20 -34 -21 -37 -2 -67 -23 -44 -31 28 -11 10
-31 -32 -35 -24 -3 -68 -17 -97 -31 -30 -14 -65 -28 -78 -32 -41 -12 -19 18
32 42 47 23 57 39 36 60 -7 7 7 12 47 16 31 3 58 8 61 10 8 9 -22 47 -42 53
-11 4 -28 15 -38 26 -15 15 -16 22 -7 33 7 8 10 24 7 35 -3 12 0 20 8 20 7 0
15 -10 18 -21z m1146 -59 c0 -20 -1 -22 -9 -10 -5 8 -9 33 -9 55 1 39 2 39 9
10 4 -16 8 -41 9 -55z m35 -34 c0 -31 -2 -56 -6 -56 -5 0 -8 28 -8 62 0 76 12
70 14 -6z m-184 -112 c0 -8 -4 -14 -10 -14 -5 0 -10 9 -10 21 0 11 5 17 10 14
6 -3 10 -13 10 -21z m3110 -107 c0 -5 10 -5 21 -2 29 9 21 -16 -9 -30 -12 -5
-22 -12 -22 -16 0 -3 -13 -4 -30 -1 -37 5 -38 17 -2 30 25 10 25 10 4 11 -13
1 -21 4 -19 9 7 10 57 9 57 -1z m-5110 -17 c0 -5 -5 -10 -11 -10 -5 0 -7 5 -4
10 3 6 8 10 11 10 2 0 4 -4 4 -10z m5201 -50 c10 -6 19 -20 19 -30 0 -11 6
-20 14 -20 15 0 46 -52 46 -77 0 -7 4 -13 8 -13 5 0 17 -18 27 -40 10 -22 29
-55 42 -72 12 -17 26 -48 29 -67 4 -20 15 -53 25 -73 11 -21 19 -43 19 -50 0
-7 7 -26 16 -43 9 -16 48 -91 86 -165 38 -74 74 -140 79 -146 16 -19 130 -347
146 -421 3 -12 11 -28 19 -34 8 -6 14 -19 14 -29 0 -9 11 -39 25 -66 14 -27
25 -57 25 -67 0 -10 11 -52 25 -92 15 -44 27 -108 30 -157 2 -46 9 -99 15
-118 12 -40 12 -116 1 -145 -4 -11 -4 -37 1 -58 5 -23 5 -53 -1 -75 -15 -57
-28 -135 -46 -267 -19 -133 -24 -155 -54 -235 -12 -30 -21 -64 -21 -76 0 -26
-26 -90 -40 -99 -5 -3 -10 -14 -10 -24 0 -10 -6 -24 -14 -30 -7 -6 -16 -31
-19 -55 -9 -60 -63 -177 -86 -183 -13 -3 -17 -11 -13 -30 3 -18 -2 -32 -21
-48 -15 -14 -28 -40 -32 -64 -3 -21 -15 -47 -26 -57 -10 -9 -19 -25 -19 -36 0
-10 -4 -18 -8 -18 -12 0 -36 74 -30 91 3 8 -1 28 -8 45 -17 42 -27 245 -14
280 7 19 8 36 1 53 -5 14 -12 107 -15 206 -3 99 -10 196 -16 215 -6 19 -17 70
-25 114 -7 43 -27 104 -43 136 -20 38 -28 66 -25 84 3 14 1 32 -5 39 -5 6 -12
29 -16 49 -4 21 -13 41 -20 45 -7 5 -20 22 -29 39 -26 51 -116 183 -152 222
-18 21 -50 70 -70 110 -20 40 -45 78 -56 85 -10 6 -19 20 -19 30 0 11 -12 22
-30 28 -19 7 -30 18 -30 29 0 21 -37 50 -93 73 -28 12 -39 23 -43 46 -4 17
-15 38 -25 47 -11 9 -19 23 -19 30 0 7 -18 18 -40 24 -33 9 -40 15 -40 36 0
17 -8 27 -24 34 -13 5 -27 14 -31 19 -3 6 -18 11 -32 11 -26 0 -26 0 -20 67 4
37 11 71 17 77 19 19 10 24 -30 19 -26 -4 -40 -2 -40 6 0 6 7 11 15 11 9 0 12
6 9 15 -4 8 -13 15 -22 15 -13 0 -12 3 3 20 18 20 17 20 -18 20 -21 0 -37 4
-37 8 0 5 -12 13 -27 19 l-28 11 35 1 35 1 -25 20 c-17 13 -20 20 -10 20 13 0
13 1 0 10 -12 7 -8 11 18 16 17 4 32 10 32 15 0 4 21 11 48 14 26 3 58 9 72
12 22 6 20 7 -15 12 -49 7 -62 38 -18 43 19 2 32 12 41 31 8 16 21 27 34 27
18 0 19 2 7 16 -12 15 -11 16 9 10 37 -12 25 3 -17 21 -41 18 -54 53 -19 53
10 0 18 5 18 10 0 6 6 10 14 10 8 0 27 5 43 11 19 7 24 12 14 18 -8 6 -2 12
21 20 57 21 83 38 93 60 5 12 14 21 19 21 13 0 91 73 88 83 -4 14 27 65 50 82
13 8 22 19 21 23 -1 4 8 12 19 18 14 8 17 13 9 18 -24 15 34 56 100 70 35 8
65 14 67 15 2 1 12 -4 23 -9z m-3841 -200 c0 -5 -7 -10 -16 -10 -8 0 -12 5 -9
10 3 6 10 10 16 10 5 0 9 -4 9 -10z m1897 -25 c19 -8 46 -15 59 -15 27 0 31
-12 11 -29 -11 -8 -18 -6 -32 9 -10 11 -25 20 -34 20 -20 1 -71 29 -53 30 7 0
29 -7 49 -15z m-1340 -37 c-3 -7 -5 -2 -5 12 0 14 2 19 5 13 2 -7 2 -19 0 -25z
m-570 16 c-3 -3 -12 -4 -19 -1 -8 3 -5 6 6 6 11 1 17 -2 13 -5z m-1267 -19 c0
-8 -7 -15 -15 -15 -8 0 -15 7 -15 15 0 8 7 15 15 15 8 0 15 -7 15 -15z m3753
8 c-7 -2 -21 -2 -30 0 -10 3 -4 5 12 5 17 0 24 -2 18 -5z m-2478 -35 c14 -6 9
-7 -17 -3 -21 3 -39 1 -43 -5 -3 -6 -11 -8 -16 -5 -5 4 -9 1 -9 -4 0 -6 16
-11 36 -11 21 0 33 -4 29 -10 -3 -5 -17 -10 -29 -10 -16 0 -23 -5 -22 -16 0
-10 -11 -21 -29 -27 -33 -11 -47 -26 -40 -44 2 -6 -2 -16 -8 -22 -9 -7 -16 -3
-24 15 -10 21 -8 26 10 36 34 17 46 39 37 64 -5 12 -6 31 -4 41 5 17 12 19 57
15 29 -3 61 -9 72 -14z m1952 -14 c-3 -3 -12 -4 -19 -1 -8 3 -5 6 6 6 11 1 17
-2 13 -5z m-3207 -54 c0 -11 -4 -20 -9 -20 -5 0 -11 9 -14 20 -3 13 0 20 9 20
8 0 14 -9 14 -20z m2857 -43 c-4 -10 3 -12 27 -9 39 6 28 -8 -22 -24 -27 -10
-39 -10 -47 -2 -7 8 -6 9 3 4 7 -4 12 -2 12 6 0 13 19 38 28 38 2 0 2 -6 -1
-13z m143 3 c0 -5 -13 -10 -29 -10 -17 0 -33 5 -36 10 -4 6 8 10 29 10 20 0
36 -4 36 -10z m-1789 -30 c13 -8 25 -7 40 1 17 9 25 7 44 -11 15 -14 25 -18
30 -11 10 18 19 13 44 -24 23 -35 51 -47 51 -22 1 6 8 -4 16 -23 8 -19 18 -37
23 -40 21 -14 32 -50 21 -71 -11 -20 -13 -19 -33 18 -52 93 -82 114 -166 117
-33 2 -61 -1 -61 -6 0 -4 -4 -8 -8 -8 -4 0 -8 8 -8 19 0 13 7 18 26 17 14 0
26 3 28 9 3 12 -66 17 -73 4 -10 -15 -25 -10 -25 9 0 33 17 40 51 22z m1579
-50 c0 -5 -5 -10 -11 -10 -5 0 -7 5 -4 10 3 6 8 10 11 10 2 0 4 -4 4 -10z
m-1709 -10 c5 0 9 -4 9 -10 0 -5 -9 -10 -19 -10 -11 0 -21 -6 -24 -12 -2 -7
-4 -1 -3 15 1 18 5 26 14 22 8 -3 18 -5 23 -5z m869 -32 c5 -18 12 -44 16 -57
5 -17 4 -22 -4 -17 -8 5 -12 -1 -12 -18 0 -14 -5 -28 -12 -32 -7 -4 -8 -3 -4
4 9 15 10 91 1 133 -9 43 4 32 15 -13z m810 21 c0 -5 -4 -9 -10 -9 -5 0 -10 7
-10 16 0 8 5 12 10 9 6 -3 10 -10 10 -16z m-1680 -44 c-7 -8 -20 -15 -29 -15
-13 1 -13 3 3 15 26 19 42 19 26 0z m907 -42 c-3 -10 -5 -2 -5 17 0 19 2 27 5
18 2 -10 2 -26 0 -35z m969 35 c11 -18 12 -48 2 -48 -4 0 -8 5 -8 10 0 6 -13
4 -30 -5 -16 -9 -30 -12 -30 -9 0 4 -11 -3 -25 -16 -24 -22 -25 -22 -25 -4 0
11 -5 25 -12 32 -8 8 -8 12 -1 12 6 0 13 9 16 20 4 17 14 20 55 20 30 0 54 -5
58 -12z m-160 -100 c1 -35 8 -81 16 -104 l14 -40 -30 -2 c-37 -2 -48 5 -62 38
-17 38 26 170 55 170 3 0 7 -28 7 -62z m-1371 22 c4 -13 -1 -30 -14 -46 -12
-15 -21 -23 -21 -18 0 5 -9 15 -19 21 -18 12 -19 10 -14 -25 5 -36 5 -36 -11
-17 -12 14 -19 16 -22 8 -3 -7 -14 -13 -23 -13 -14 0 -18 8 -16 37 1 30 7 40
30 54 43 25 102 25 110 -1z m1405 -1 c0 -5 -4 -9 -10 -9 -5 0 -10 7 -10 16 0
8 5 12 10 9 6 -3 10 -10 10 -16z m160 8 c0 -16 -45 -16 -62 1 -10 9 -5 12 25
12 24 0 37 -5 37 -13z m-1493 -48 c2 -16 -1 -19 -9 -11 -5 5 -7 15 -4 21 10
15 12 14 13 -10z m-298 -151 c14 -37 5 -36 -14 2 -8 16 -15 46 -14 67 l1 38 8
-40 c5 -22 13 -52 19 -67z m721 -4 c0 -14 -4 -23 -9 -20 -5 4 -11 3 -14 -1 -2
-5 -2 -2 0 5 1 8 3 23 3 33 0 11 5 17 10 14 6 -3 10 -17 10 -31z m-1070 -9 c6
-8 10 -20 7 -27 -2 -7 11 -43 29 -80 19 -37 34 -76 34 -87 0 -11 5 -23 11 -26
6 -5 2 -13 -11 -22 -17 -12 -20 -21 -15 -45 5 -22 2 -33 -12 -43 -16 -12 -17
-17 -6 -46 10 -26 10 -35 0 -41 -25 -16 -35 -7 -40 35 -3 23 -12 92 -21 154
-12 88 -14 176 -6 241 1 7 19 0 30 -13z m1237 -57 c-2 -13 -4 -3 -4 22 0 25 2
35 4 23 2 -13 2 -33 0 -45z m766 38 c27 -21 20 -26 -13 -10 -16 9 -30 17 -30
20 0 9 26 3 43 -10z m-1526 -88 c-3 -8 -6 -5 -6 6 -1 11 2 17 5 13 3 -3 4 -12
1 -19z m40 16 c-3 -3 -12 -4 -19 -1 -8 3 -5 6 6 6 11 1 17 -2 13 -5z m233
-288 c0 -11 -19 -15 -25 -6 -3 5 1 10 9 10 9 0 16 -2 16 -4z m-720 -86 c14
-26 4 -46 -15 -30 -7 6 -11 20 -8 30 7 25 10 25 23 0z m1495 -30 c-3 -5 -13
-10 -21 -10 -8 0 -12 5 -9 10 3 6 13 10 21 10 8 0 12 -4 9 -10z m99 -111 c-3
-5 -10 -7 -15 -3 -5 3 -7 10 -3 15 3 5 10 7 15 3 5 -3 7 -10 3 -15z m36 -9 c0
-5 -4 -10 -10 -10 -5 0 -10 5 -10 10 0 6 5 10 10 10 6 0 10 -4 10 -10z m12
-32 c-9 -9 -15 -9 -24 0 -9 9 -7 12 12 12 19 0 21 -3 12 -12z m1728 -97 c0 -3
-18 -7 -40 -9 -44 -3 -52 4 -18 17 23 8 58 4 58 -8z m33 -48 c16 -8 27 -22 27
-34 0 -11 -4 -17 -10 -14 -10 6 -15 -25 -12 -72 1 -19 -4 -23 -29 -23 -19 0
-29 -5 -29 -15 0 -8 -6 -15 -14 -15 -7 0 -16 -11 -18 -25 -4 -19 -1 -25 13
-25 23 0 24 -8 3 -32 -16 -16 -15 -18 4 -25 16 -6 19 -12 12 -23 -6 -8 -10
-10 -10 -3 0 6 -8 9 -18 6 -10 -2 -24 3 -31 11 -8 9 -22 16 -33 16 -29 0 -60
20 -55 35 3 7 -1 24 -8 38 -12 24 -11 26 19 37 17 6 49 20 70 30 l39 18 -39 7
c-21 3 -45 7 -51 8 -30 5 8 29 53 34 54 5 80 28 58 50 -7 7 -17 13 -23 13 -6
0 -8 7 -5 15 7 17 39 12 87 -12z m-203 -137 c0 -2 -7 -6 -15 -10 -8 -3 -15 -1
-15 4 0 6 7 10 15 10 8 0 15 -2 15 -4z m-2300 -176 c0 -13 -7 -20 -20 -20 -13
0 -20 7 -20 20 0 13 7 20 20 20 13 0 20 -7 20 -20z m2400 -51 c0 -5 -10 -9
-21 -9 -18 0 -19 2 -9 15 12 15 30 12 30 -6z m-2056 -455 c3 -8 9 -13 14 -10
4 2 14 -4 21 -16 11 -18 10 -19 -11 -12 -32 10 -64 54 -39 54 5 0 12 -7 15
-16z m-64 -14 c0 -5 -5 -10 -11 -10 -5 0 -7 5 -4 10 3 6 8 10 11 10 2 0 4 -4
4 -10z m1160 -4 c0 -3 -4 -8 -10 -11 -5 -3 -10 -1 -10 4 0 6 5 11 10 11 6 0
10 -2 10 -4z m-993 -183 c8 -12 16 -33 17 -47 3 -22 1 -24 -15 -15 -10 5 -22
22 -25 37 -4 15 -17 41 -30 59 -13 17 -24 37 -24 44 0 13 50 -38 77 -78z
m-172 15 c6 -4 9 -22 7 -44 -4 -30 -6 -34 -14 -20 -5 9 -11 36 -13 59 -2 23
-1 35 2 27 3 -8 11 -18 18 -22z m79 6 c3 -8 9 -13 13 -11 5 3 9 -11 10 -30 1
-29 -1 -32 -13 -22 -11 9 -14 8 -15 -7 0 -14 -2 -15 -6 -4 -3 8 -9 17 -13 20
-4 3 -10 19 -14 35 -7 29 -7 29 9 10 16 -20 16 -20 12 3 -6 25 8 30 17 6z
m-232 -40 c-6 -35 -12 -29 -12 14 0 23 3 32 9 24 4 -7 6 -24 3 -38z m63 37 c3
-5 -2 -17 -11 -25 -8 -9 -11 -16 -5 -16 6 0 11 -7 11 -16 0 -8 -4 -12 -10 -9
-6 4 -11 -8 -11 -27 -1 -26 -3 -28 -6 -9 -3 13 -2 44 2 68 6 41 17 54 30 34z
m29 -34 c-1 -17 -2 -41 -4 -52 l-1 -20 -9 20 c-13 30 -12 73 3 78 6 3 12 6 12
6 0 1 -1 -14 -1 -32z m616 -457 c0 -5 -2 -10 -4 -10 -3 0 -8 5 -11 10 -3 6 -1
10 4 10 6 0 11 -4 11 -10z m77 -102 c-3 -8 -6 -5 -6 6 -1 11 2 17 5 13 3 -3 4
-12 1 -19z m2686 -128 c3 -11 1 -20 -4 -20 -5 0 -9 9 -9 20 0 11 2 20 4 20 2
0 6 -9 9 -20z m-2723 -25 c0 -8 -5 -15 -11 -15 -16 0 -41 29 -34 40 9 14 45
-6 45 -25z m-40 -24 c0 -6 -4 -13 -10 -16 -5 -3 -10 1 -10 9 0 9 5 16 10 16 6
0 10 -4 10 -9z m1437 -223 c-3 -8 -6 -5 -6 6 -1 11 2 17 5 13 3 -3 4 -12 1
-19z m3591 -2657 c33 -28 27 -41 -20 -43 l-43 -1 43 -4 c34 -3 42 -8 42 -24 0
-15 -7 -19 -34 -19 -26 0 -43 9 -75 40 -22 22 -41 42 -41 45 0 3 16 3 35 -1
28 -5 35 -3 35 10 0 21 30 20 58 -3z m272 -81 c0 -37 -2 -40 -28 -40 -15 0
-33 -5 -38 -10 -7 -7 -19 -7 -35 -1 -17 7 -19 10 -6 10 11 1 17 9 17 26 0 23
4 25 40 25 29 0 40 4 40 15 0 8 2 15 5 15 3 0 5 -18 5 -40z m730 -101 c0 -10
-4 -19 -10 -19 -5 0 -10 -18 -10 -40 0 -29 -4 -40 -15 -40 -11 0 -15 11 -15
40 0 38 -2 40 -31 40 -17 0 -28 4 -24 10 3 6 24 10 46 10 29 0 39 4 39 16 0 8
5 12 10 9 6 -3 10 -15 10 -26z m-555 -4 c19 -8 19 -8 1 -13 -10 -2 -22 2 -27
10 -11 16 -12 38 -1 22 4 -6 16 -14 27 -19z m595 -5 c0 -5 -4 -10 -10 -10 -5
0 -10 5 -10 10 0 6 5 10 10 10 6 0 10 -4 10 -10z m-863 -6 c-3 -3 -12 -4 -19
-1 -8 3 -5 6 6 6 11 1 17 -2 13 -5z m323 -68 c0 -8 -16 -17 -37 -21 -21 -4
-41 -12 -45 -18 -5 -9 -12 -7 -25 6 -16 16 -16 17 5 17 13 0 22 6 22 15 0 11
11 15 40 15 27 0 40 -4 40 -14z m248 -18 c-2 -6 14 -16 35 -21 20 -5 37 -13
37 -17 0 -11 -99 -33 -130 -29 -25 4 -38 34 -26 65 7 17 87 20 84 2z m-298
-48 c12 -8 11 -10 -7 -10 -13 0 -23 5 -23 10 0 13 11 13 30 0z"/>
<path d="M3957 7164 c-9 -10 2 -24 18 -24 9 0 12 6 9 15 -6 16 -17 19 -27 9z"/>
<path d="M4050 6290 c0 -5 5 -10 10 -10 6 0 10 5 10 10 0 6 -4 10 -10 10 -5 0
-10 -4 -10 -10z"/>
<path d="M7021 4801 c-10 -6 -2 -9 22 -9 21 0 34 4 31 9 -7 11 -35 11 -53 0z"/>
<path d="M0 7365 c0 -30 6 -32 19 -6 8 14 7 20 -4 25 -11 4 -15 -2 -15 -19z"/>
<path d="M0 6264 l0 -1056 28 -27 c15 -16 38 -31 50 -35 12 -4 22 -11 22 -15
0 -4 12 -13 26 -19 14 -7 23 -16 19 -21 -3 -5 18 -17 47 -27 41 -13 48 -19 34
-24 -15 -5 -9 -9 27 -20 47 -12 103 -50 77 -50 -8 0 0 -14 18 -33 18 -18 32
-39 32 -46 0 -7 6 -11 14 -8 9 4 17 -2 21 -14 4 -10 15 -19 26 -19 11 0 24
-10 29 -22 5 -13 9 -17 9 -11 1 21 51 -7 51 -28 0 -10 13 -25 28 -33 16 -8 34
-22 41 -30 8 -9 24 -16 37 -16 13 0 28 -8 33 -19 6 -10 22 -22 35 -25 17 -4
23 -11 20 -21 -4 -11 1 -15 18 -15 13 0 29 -9 36 -20 7 -11 20 -20 29 -20 21
0 85 -49 78 -60 -3 -5 4 -14 15 -20 12 -7 20 -21 20 -38 1 -35 22 -62 47 -62
12 0 23 -8 26 -20 3 -12 14 -20 26 -20 14 0 21 -6 21 -20 0 -14 7 -20 24 -20
13 0 26 -3 28 -7 2 -5 31 -21 66 -38 35 -16 68 -35 74 -42 6 -7 19 -13 29 -13
11 0 19 -7 19 -15 0 -8 18 -22 40 -31 22 -9 40 -21 40 -26 0 -13 70 -98 82
-98 9 0 68 -39 78 -51 3 -4 21 -10 40 -14 25 -5 55 -29 107 -81 39 -41 77 -74
85 -74 7 0 22 -7 32 -15 11 -8 28 -15 38 -15 10 0 18 -4 18 -10 0 -5 6 -10 13
-10 8 0 24 -11 37 -25 13 -14 31 -25 41 -25 9 0 22 -6 28 -14 6 -8 25 -19 41
-26 17 -7 30 -18 30 -25 0 -8 12 -23 28 -34 15 -11 34 -27 42 -34 23 -22 60
-39 60 -28 0 5 14 -4 31 -20 17 -16 35 -29 40 -29 5 0 9 -7 9 -16 0 -8 4 -12
10 -9 5 3 18 -8 29 -25 16 -27 19 -29 26 -13 5 12 9 14 12 6 3 -7 11 -13 18
-13 8 0 19 -9 25 -20 6 -11 15 -20 21 -20 5 0 23 -16 40 -35 17 -19 37 -35 45
-35 8 0 14 -6 14 -14 0 -8 16 -20 36 -26 19 -7 51 -27 69 -46 19 -19 39 -34
45 -34 5 0 10 -4 10 -8 0 -5 18 -17 40 -27 22 -10 40 -24 40 -32 0 -7 3 -13 8
-13 4 0 20 -11 36 -25 16 -14 49 -35 73 -47 24 -12 43 -25 43 -29 0 -4 11 -10
24 -13 13 -3 26 -15 29 -27 4 -15 11 -20 22 -16 9 4 22 -2 32 -13 10 -11 23
-20 29 -20 6 0 17 -7 24 -15 7 -8 21 -15 31 -15 10 0 24 -9 32 -20 8 -11 28
-23 45 -26 17 -4 34 -14 37 -24 3 -9 16 -22 28 -27 13 -6 34 -27 47 -47 14
-20 29 -36 33 -36 11 0 67 -59 67 -71 0 -5 6 -9 12 -9 7 0 26 -15 43 -33 16
-18 47 -44 67 -57 21 -14 38 -28 38 -32 0 -5 5 -8 11 -8 10 0 53 -41 130 -126
10 -12 19 -26 19 -31 0 -5 14 -20 30 -33 17 -14 36 -30 43 -36 7 -6 24 -14 37
-18 14 -4 34 -11 45 -16 11 -5 40 -16 65 -25 25 -9 62 -32 84 -50 34 -31 63
-41 104 -36 6 1 12 -5 12 -14 0 -8 7 -15 16 -15 22 0 67 -38 71 -59 6 -38 23
-71 38 -71 10 0 15 -10 15 -30 0 -23 5 -30 19 -30 10 0 25 -9 33 -21 11 -17
25 -21 73 -22 33 -1 67 1 75 5 8 4 22 4 30 -1 12 -9 12 -12 -3 -29 -20 -21
-22 -32 -6 -32 15 0 39 -26 39 -42 0 -11 84 -58 104 -58 20 0 -14 135 -37 151
-6 4 -16 49 -23 100 -7 52 -22 112 -34 134 -11 21 -20 46 -20 55 0 9 -7 25
-15 36 -8 10 -15 34 -15 52 0 18 -7 49 -15 69 -8 20 -20 81 -25 137 -6 56 -14
128 -19 161 -4 33 -4 89 1 125 5 35 6 70 3 78 -2 7 1 33 7 57 9 34 9 49 0 67
-29 58 -40 110 -34 174 3 38 0 74 -6 87 -14 27 -41 151 -52 237 -11 81 -25
120 -45 120 -8 0 -15 5 -15 11 0 6 -7 8 -16 5 -8 -3 -12 -2 -9 4 3 5 -6 12
-20 16 -26 6 -32 18 -15 29 6 4 8 10 5 15 -8 13 6 40 21 40 8 0 14 -6 15 -12
0 -7 7 5 15 26 8 22 23 45 34 53 11 8 30 35 42 62 22 45 23 48 6 66 -13 13
-15 21 -7 26 8 5 8 8 0 13 -7 5 -21 -16 -38 -53 -26 -58 -53 -86 -38 -38 4 12
9 36 12 52 3 17 13 40 21 53 17 26 15 31 -17 34 -19 2 -27 -4 -37 -32 -11 -27
-13 -29 -9 -7 3 15 2 27 -2 27 -19 -1 -53 -40 -73 -83 -12 -26 -26 -47 -31
-47 -15 0 -24 33 -11 38 7 2 12 12 12 23 0 10 4 19 9 19 5 0 7 9 4 20 -3 11
-1 20 4 20 5 0 15 16 22 35 7 19 17 35 22 35 13 0 12 -5 -11 -42 -35 -58 -24
-74 16 -23 34 46 35 48 17 64 -26 25 -54 22 -87 -8 l-29 -26 22 32 c12 18 28
33 36 33 7 0 15 7 19 15 10 28 -54 8 -89 -28 -12 -12 -30 -27 -41 -34 -18 -11
-18 -11 3 -6 20 5 21 3 12 -37 -10 -46 -6 -61 13 -42 23 23 28 12 24 -45 -4
-42 -1 -62 10 -74 13 -15 13 -18 -1 -32 -19 -19 -19 -37 -1 -37 8 0 18 -9 21
-21 4 -11 16 -24 28 -29 18 -7 15 -9 -18 -10 l-40 -2 34 -15 c27 -11 31 -17
20 -24 -8 -5 -22 -9 -32 -9 -10 0 -20 -7 -23 -15 -4 -10 -20 -15 -45 -15 -38
0 -39 1 -39 35 0 22 -8 44 -20 57 -19 20 -20 21 -20 3 0 -33 -32 8 -35 44 -3
39 -10 47 -28 32 -12 -9 -18 -6 -32 15 -13 20 -19 23 -25 14 -6 -10 -15 -6
-34 14 -29 28 -42 32 -48 14 -3 -7 -12 -6 -30 6 -23 15 -27 15 -41 1 -16 -16
-87 -21 -87 -6 0 4 -28 14 -62 20 -35 7 -86 16 -114 22 -48 9 -92 38 -78 51 3
3 -5 13 -18 22 -55 39 -100 66 -109 66 -5 0 -15 4 -22 10 -7 5 -27 21 -44 36
-23 18 -33 34 -33 53 0 22 -7 30 -34 41 -30 11 -33 15 -23 32 10 15 9 21 -3
28 -9 6 -17 5 -22 -3 -5 -8 -9 -5 -14 8 -11 27 -55 75 -64 70 -5 -3 -14 10
-20 28 -9 23 -14 27 -17 15 -6 -25 -31 -11 -38 22 -3 16 -13 31 -21 34 -9 3
-12 10 -9 16 3 5 3 15 -1 22 -5 8 -11 6 -20 -6 -11 -16 -13 -16 -19 3 -3 11
-26 29 -50 41 -35 17 -45 27 -45 46 0 21 -4 24 -40 24 -29 0 -40 4 -40 15 0 8
-5 15 -11 15 -6 0 -8 8 -4 19 5 16 -3 24 -44 42 -38 18 -54 32 -67 61 -9 21
-21 38 -26 38 -4 0 -8 6 -8 14 0 7 -11 21 -25 30 -18 12 -25 25 -25 47 0 36
-60 104 -102 114 -15 4 -32 13 -39 21 -6 8 -20 14 -30 14 -11 0 -19 4 -19 10
0 5 -18 14 -40 20 -22 6 -40 14 -40 19 0 4 -18 14 -40 21 -36 12 -54 30 -30
30 19 0 10 29 -11 35 -23 8 -39 41 -48 100 -5 35 -10 40 -35 43 -16 2 -30 11
-33 21 -6 22 -43 47 -43 29 0 -7 -14 8 -30 34 -36 58 -50 67 -50 34 0 -24 -4
-26 -40 -26 -29 0 -40 4 -40 15 0 9 -7 27 -16 40 -9 13 -20 55 -24 92 -5 42
-15 72 -24 79 -9 6 -16 19 -16 28 0 9 -4 16 -10 16 -5 0 -10 7 -10 15 0 8 -9
23 -20 32 -11 10 -20 26 -20 36 0 10 -11 28 -24 40 -14 13 -26 40 -31 66 -4
25 -13 50 -19 57 -7 6 -25 27 -40 45 -25 29 -30 31 -49 19 -15 -9 -22 -10 -25
-1 -6 19 -29 12 -35 -10 -4 -14 -10 -18 -19 -13 -7 5 -20 7 -29 6 -9 -2 -22 4
-29 13 -7 8 -19 15 -26 15 -8 0 -14 7 -14 15 0 8 -4 15 -10 15 -5 0 -25 14
-45 31 -19 17 -56 39 -82 49 -33 12 -52 27 -65 50 -22 42 -38 59 -38 40 0 -27
-11 -1 -16 36 -6 45 -12 54 -24 34 -11 -17 -15 -13 -24 23 -5 20 -3 27 9 27
21 0 19 13 -5 35 -12 11 -20 31 -20 51 0 24 -10 43 -39 73 -22 23 -45 41 -53
41 -12 0 -55 33 -136 101 -12 10 -26 19 -31 19 -4 0 -16 18 -26 40 -18 39 -35
53 -35 28 0 -7 -11 5 -23 27 -15 27 -33 44 -55 51 -18 5 -30 13 -26 16 3 4 -8
14 -25 23 -17 8 -31 20 -31 25 0 15 -80 12 -80 -2 0 -7 -5 -5 -11 6 -6 10 -7
21 -3 25 5 3 10 23 11 44 2 37 1 37 -38 37 -39 0 -39 0 -19 20 27 27 26 33
-17 80 -40 43 -52 57 -68 82 -49 76 -67 98 -79 98 -8 0 -18 9 -21 20 -3 11
-13 20 -21 20 -8 0 -14 7 -14 15 0 24 -23 65 -36 65 -8 0 -11 6 -8 15 5 12 -3
15 -35 15 l-41 0 0 -1056z m4136 -2263 c-16 -25 -23 -47 -19 -58 6 -16 5 -16
-10 -4 -21 17 -22 40 -2 47 8 4 15 11 15 17 0 12 31 49 37 43 3 -2 -7 -22 -21
-45z m-619 -173 c-3 -8 -6 -5 -6 6 -1 11 2 17 5 13 3 -3 4 -12 1 -19z"/>
<path d="M4881 5964 c0 -11 3 -14 6 -6 3 7 2 16 -1 19 -3 4 -6 -2 -5 -13z"/>
<path d="M4885 5890 c3 -5 8 -10 11 -10 2 0 4 5 4 10 0 6 -5 10 -11 10 -5 0
-7 -4 -4 -10z"/>
<path d="M4909 5865 c-1 -5 0 -14 1 -20 1 -5 6 -30 10 -55 l8 -45 1 50 c0 28
-4 57 -9 65 -5 8 -10 11 -11 5z"/>
<path d="M4878 5840 c-7 -24 -3 -38 8 -28 3 4 4 17 2 30 l-3 23 -7 -25z"/>
<path d="M5238 5243 c7 -3 16 -2 19 1 4 3 -2 6 -13 5 -11 0 -14 -3 -6 -6z"/>
<path d="M5300 4990 c0 -12 17 -12 45 0 17 7 15 9 -12 9 -18 1 -33 -3 -33 -9z"/>
<path d="M5158 4813 c7 -3 16 -2 19 1 4 3 -2 6 -13 5 -11 0 -14 -3 -6 -6z"/>
<path d="M5230 4760 c0 -5 7 -10 15 -10 8 0 15 5 15 10 0 6 -7 10 -15 10 -8 0
-15 -4 -15 -10z"/>
<path d="M0 3176 l0 -1545 23 -36 c12 -20 37 -52 54 -72 18 -19 33 -44 33 -56
0 -48 20 -94 48 -108 15 -7 35 -22 46 -32 15 -15 27 -18 65 -12 25 4 48 11 49
16 2 5 9 9 16 9 7 0 17 5 23 11 22 22 108 46 131 38 12 -4 24 -4 27 1 8 13 77
-1 107 -22 42 -29 111 -26 181 9 31 16 54 32 51 36 -4 4 -1 13 6 22 20 24 96
20 130 -8 15 -12 37 -29 48 -37 12 -8 18 -17 13 -20 -5 -3 -11 -14 -13 -25 -2
-17 3 -21 37 -23 22 -2 42 -7 45 -11 7 -11 80 -1 80 11 0 7 -15 8 -40 4 -30
-5 -40 -3 -40 7 0 8 14 14 36 15 25 2 47 13 73 37 20 19 42 33 50 30 9 -4 12
1 8 15 -4 18 0 20 34 20 28 0 39 -4 39 -15 0 -8 8 -15 18 -15 9 0 34 -9 55
-20 25 -14 49 -19 75 -15 20 2 85 7 145 10 100 5 107 4 107 -13 0 -16 10 -20
61 -26 92 -9 99 -8 99 13 0 14 9 20 38 23 45 6 73 -1 71 -16 -3 -25 2 -33 26
-44 14 -6 25 -18 25 -27 0 -17 21 -20 36 -5 15 15 241 43 294 36 70 -8 79 -11
96 -32 8 -10 13 -14 10 -8 -3 7 1 17 10 25 13 10 16 9 21 -11 5 -20 8 -21 17
-8 11 15 25 18 143 34 57 7 217 -22 207 -38 -3 -4 6 -8 20 -8 31 0 42 3 39 11
-1 4 19 9 45 13 63 9 80 19 63 40 -12 14 -6 16 53 16 75 0 81 8 35 51 -35 33
-49 36 -49 13 0 -15 -9 -16 -61 -10 -34 3 -70 6 -80 6 -13 0 -19 7 -19 24 0
19 -7 25 -36 31 -24 4 -38 13 -41 26 -3 10 -14 19 -24 19 -11 0 -19 3 -19 8 0
12 -53 32 -87 32 -18 0 -33 5 -33 10 0 6 21 10 46 10 38 0 45 3 40 16 -3 9 -6
18 -6 20 0 2 -15 4 -32 4 -18 0 -50 5 -72 11 -21 6 -48 12 -59 15 -26 5 -35
14 -14 14 10 0 17 4 17 9 0 13 -55 58 -80 66 -11 3 -20 11 -20 16 0 5 -9 9
-20 9 -11 0 -20 -4 -20 -10 0 -13 -37 -13 -45 0 -3 5 -28 10 -56 10 l-49 0 0
40 c0 29 -4 40 -15 40 -9 0 -15 -9 -15 -25 0 -23 -4 -25 -45 -25 -36 0 -52 6
-71 25 -14 14 -31 25 -38 25 -21 0 -56 74 -56 118 0 33 4 42 23 48 12 4 25 11
28 16 8 13 74 -5 75 -20 1 -7 2 -18 3 -26 1 -10 24 -16 82 -21 54 -5 82 -12
86 -21 6 -16 63 -19 63 -4 0 6 20 10 45 10 25 0 45 -4 45 -10 0 -5 18 -10 40
-10 33 0 40 3 40 20 0 25 16 26 30 1 7 -14 6 -21 -3 -24 -18 -6 10 -37 34 -37
11 0 19 -7 19 -15 0 -8 12 -18 27 -21 15 -4 34 -12 41 -18 35 -27 72 -69 72
-82 0 -9 11 -14 29 -14 17 0 33 -4 36 -10 10 -15 35 -12 35 5 0 11 11 15 40
15 l40 0 0 -53 c0 -41 -4 -55 -20 -65 -24 -15 -26 -45 -3 -63 13 -11 17 -11
20 -1 3 6 21 12 41 12 41 0 76 18 54 27 -16 6 -15 78 2 92 19 16 168 2 182
-17 5 -7 17 -12 25 -10 21 4 99 -60 99 -81 0 -12 13 -22 39 -29 21 -7 44 -19
51 -27 11 -13 8 -14 -21 -10 -30 5 -31 4 -11 -5 38 -16 26 -53 -20 -64 -36 -9
-38 -12 -38 -47 0 -37 1 -38 43 -42 l42 -4 -42 -1 c-31 -1 -43 -6 -43 -17 0
-10 10 -15 31 -15 16 0 49 -4 72 -10 23 -5 64 -12 90 -15 38 -5 50 -11 59 -31
6 -14 19 -24 27 -22 9 1 22 -1 29 -5 7 -5 12 -3 12 4 0 9 3 9 14 0 7 -6 31
-13 53 -15 36 -3 81 -20 93 -36 3 -3 32 -15 65 -27 60 -20 122 -23 378 -15 88
2 110 17 136 88 12 35 103 167 138 202 7 7 13 20 13 27 0 8 8 20 18 27 9 7 24
27 34 43 14 26 14 37 4 77 -17 68 -27 75 -76 53 -22 -10 -45 -24 -50 -30 -22
-26 -79 -2 -93 38 -1 5 -22 10 -45 10 -23 0 -42 3 -42 7 0 4 -18 13 -40 20
-22 7 -40 17 -40 21 0 14 -55 69 -70 69 -23 0 -111 71 -138 110 -13 19 -28 36
-33 36 -22 3 -23 5 -10 13 11 7 7 13 -18 25 -17 9 -31 21 -31 26 0 19 -84 90
-106 90 -13 0 -26 4 -29 10 -11 18 -69 39 -126 45 -47 6 -58 11 -72 35 -17 28
-38 39 -119 61 -27 7 -48 19 -48 26 0 7 -18 22 -40 33 -22 11 -40 27 -40 35 0
8 -8 15 -17 15 -21 0 -90 23 -99 33 -4 4 -16 7 -26 7 -10 0 -18 4 -18 9 0 5
-21 19 -47 31 -60 28 -143 81 -143 91 0 4 8 13 18 19 13 8 8 10 -25 6 -38 -5
-43 -3 -43 15 0 11 -10 23 -23 28 -13 5 -31 17 -40 26 -10 9 -17 12 -17 6 0
-7 -6 -8 -17 -2 -10 5 -45 22 -78 38 -33 15 -77 45 -97 66 -21 20 -42 37 -47
37 -6 0 -14 6 -18 13 -10 17 -89 48 -106 42 -7 -3 -26 7 -42 23 -26 24 -55 43
-75 46 -17 3 -99 63 -100 72 0 6 -18 23 -40 38 -22 14 -40 31 -40 36 0 5 -13
16 -30 25 -17 9 -30 22 -30 30 0 20 -31 54 -44 49 -6 -2 -25 8 -42 23 -17 16
-39 30 -50 32 -19 3 -74 57 -74 73 0 4 -7 8 -15 8 -8 0 -16 7 -16 15 -3 32 -4
36 -19 45 -8 5 -30 10 -47 10 -18 0 -33 4 -33 10 0 5 -29 24 -64 41 -36 18
-64 37 -63 42 3 16 -51 39 -95 41 -26 2 -45 9 -54 20 -7 10 -17 16 -21 13 -14
-9 -74 25 -69 38 2 7 -4 19 -15 28 -10 9 -19 26 -19 37 0 22 -50 80 -69 80 -6
0 -11 6 -11 14 0 7 -8 16 -17 20 -35 12 -78 43 -87 62 -9 19 -69 64 -86 64 -9
0 -25 39 -22 53 1 4 -7 7 -18 7 -11 0 -20 6 -20 14 0 8 -10 18 -23 22 -12 4
-24 10 -27 14 -3 4 -30 22 -60 38 -44 25 -55 36 -56 57 -1 36 -15 46 -71 52
-26 3 -53 9 -58 14 -6 4 -28 9 -48 11 -20 1 -37 6 -37 10 0 4 -16 8 -35 8 -19
0 -35 3 -35 8 0 4 -10 12 -22 17 -13 6 -24 20 -26 33 -2 12 -7 22 -12 22 -5 0
-12 9 -15 20 -3 11 -11 20 -17 20 -5 0 -23 9 -38 20 -27 19 -29 19 -33 3 -4
-17 -5 -17 -6 0 0 9 -7 17 -14 17 -15 0 -137 116 -137 131 0 5 -10 9 -22 9
-29 0 -87 20 -118 41 -14 9 -35 19 -47 23 -13 4 -23 15 -23 26 0 10 -14 28
-30 40 -17 12 -37 37 -45 56 -12 29 -18 34 -39 28 -13 -3 -27 -1 -30 5 -4 6
-16 16 -27 21 -19 11 -19 -7 -19 -1534z m210 -63 c19 -3 41 -10 48 -16 8 -6
17 -6 26 2 17 14 29 -9 19 -35 -6 -15 -8 -15 -20 2 -13 17 -14 17 -28 -2 -8
-10 -15 -27 -15 -36 0 -14 -8 -18 -34 -18 -19 0 -41 -3 -49 -6 -9 -3 -23 6
-36 25 -21 29 -21 31 -4 66 14 29 21 35 38 30 11 -3 36 -8 55 -12z m297 -106
c-6 -20 -27 -19 -27 2 0 14 5 19 15 14 9 -3 14 -10 12 -16z m-27 -132 c0 -11
-11 -15 -40 -15 -29 0 -40 4 -40 15 0 11 11 15 40 15 29 0 40 -4 40 -15z m237
-122 c-3 -10 -5 -4 -5 12 0 17 2 24 5 18 2 -7 2 -21 0 -30z m28 -113 c-3 -5
-10 -10 -16 -10 -5 0 -9 5 -9 10 0 6 7 10 16 10 8 0 12 -4 9 -10z m295 -135
c0 -8 -7 -15 -15 -15 -16 0 -20 12 -8 23 11 12 23 8 23 -8z m320 1 c0 -8 5
-16 10 -18 16 -5 39 -78 40 -124 0 -43 -13 -61 -61 -81 -23 -10 -30 -8 -50 13
-12 13 -27 24 -33 24 -19 0 -42 73 -38 120 3 37 9 49 30 62 35 21 102 23 102
4z m-634 -172 c-5 -20 -13 -24 -46 -24 -33 0 -40 3 -40 20 0 17 7 20 40 20 38
0 40 1 41 33 2 31 2 32 6 3 3 -15 2 -39 -1 -52z m1170 44 c24 -17 44 -35 44
-40 0 -4 14 -8 30 -8 26 0 30 -4 30 -28 0 -15 5 -33 12 -40 9 -9 9 -12 0 -12
-7 0 -12 -16 -12 -40 0 -29 -4 -40 -15 -40 -11 0 -15 -11 -15 -40 0 -45 10
-42 -127 -44 -74 -1 -77 0 -83 24 -4 17 -8 21 -14 12 -11 -17 -26 -5 -26 21 0
22 -72 94 -108 109 -15 6 -14 8 5 14 l22 6 -20 17 c-21 17 -21 17 20 29 22 7
41 17 41 22 0 5 18 15 40 21 22 7 48 20 57 30 27 27 69 23 119 -13z m424 -199
c0 -17 -4 -20 -22 -15 -13 3 -31 6 -40 6 -10 0 -18 7 -18 15 0 11 11 15 40 15
34 0 40 -3 40 -21z m-110 -19 c-20 -13 -50 -13 -50 0 0 6 15 10 33 10 24 0 28
-3 17 -10z m9 -64 c26 -15 21 -20 -26 -31 -21 -4 -33 -3 -33 4 0 6 -8 12 -17
12 -17 1 -17 2 0 6 9 2 17 9 17 14 0 13 31 11 59 -5z m319 -363 c-2 -10 -10
-18 -18 -18 -8 0 -16 8 -18 18 -2 12 3 17 18 17 15 0 20 -5 18 -17z m99 -119
c-3 -3 -12 -4 -19 -1 -8 3 -5 6 6 6 11 1 17 -2 13 -5z m-1577 -44 c0 -22 -4
-40 -10 -40 -5 0 -10 18 -10 40 0 22 5 40 10 40 6 0 10 -18 10 -40z"/>
<path d="M3905 4669 c-81 -10 -167 -42 -230 -83 -48 -32 -165 -140 -165 -152
0 -3 10 -2 22 1 17 6 20 4 15 -9 -4 -10 -3 -15 3 -11 6 3 14 -5 20 -19 5 -14
24 -35 42 -45 18 -11 43 -30 56 -43 12 -12 22 -17 22 -10 0 6 5 12 11 12 6 0
33 16 59 35 26 19 50 35 54 35 14 0 5 -19 -12 -24 -19 -6 -125 -106 -114 -106
4 0 20 -18 36 -39 16 -22 34 -38 40 -37 6 2 8 1 4 -1 -18 -10 -5 -25 36 -44
25 -11 48 -28 51 -39 7 -22 24 -27 26 -7 1 6 5 -6 9 -28 l7 -40 2 47 c0 26 5
49 10 52 5 3 12 22 15 42 4 19 10 42 13 50 4 11 -2 13 -28 9 -23 -3 -27 -2
-14 3 45 17 74 36 80 50 3 8 4 16 3 18 -2 1 -34 -12 -71 -30 -37 -18 -67 -29
-67 -25 0 5 19 18 43 29 40 19 58 43 95 124 3 4 -5 5 -17 2 -56 -16 -66 -17
-51 -7 8 5 31 13 51 16 37 6 79 37 79 57 0 17 -57 2 -140 -38 -41 -19 -68 -28
-59 -19 9 9 54 32 100 50 46 19 85 39 87 45 5 13 -6 13 -63 -5 -27 -8 -51 -12
-53 -10 -5 5 52 29 91 39 15 3 27 13 27 23 0 13 -8 15 -44 10 -44 -6 -126 -51
-200 -111 -20 -16 -39 -26 -43 -22 -3 3 -4 7 -2 9 108 81 146 106 204 133 38
19 75 34 82 34 14 0 18 48 5 66 -11 16 -60 22 -127 13z"/>
<path d="M4000 4378 c-43 -45 -63 -103 -28 -82 7 5 15 9 18 9 13 2 70 36 70
43 -1 24 -14 52 -26 52 -7 0 -23 -10 -34 -22z"/>
<path d="M4009 4291 c-13 -11 -21 -22 -18 -25 7 -8 75 20 84 34 11 18 -42 11
-66 -9z"/>
<path d="M4018 4254 c-54 -25 -58 -29 -73 -79 -17 -59 -20 -139 -5 -130 5 3 7
12 3 20 -4 11 -1 13 12 9 13 -5 16 -3 13 7 -8 21 34 97 82 152 23 26 38 47 33
47 -4 0 -34 -12 -65 -26z"/>
<path d="M4048 4208 c-29 -37 -68 -108 -68 -124 0 -6 88 53 117 79 23 21 21
47 -5 47 -13 0 -12 3 3 20 16 17 16 20 2 20 -9 0 -31 -19 -49 -42z"/>
<path d="M4325 4150 c-3 -6 1 -7 9 -4 18 7 21 14 7 14 -6 0 -13 -4 -16 -10z"/>
<path d="M4074 4128 c-43 -32 -117 -109 -111 -114 3 -3 18 7 34 23 16 15 51
47 78 70 51 44 50 60 -1 21z"/>
<path d="M4121 4116 c-10 -12 -8 -13 8 -9 12 3 21 9 21 14 0 14 -16 11 -29 -5z"/>
<path d="M6466 4081 c-4 -7 -5 -15 -2 -18 9 -9 19 4 14 18 -4 11 -6 11 -12 0z"/>
<path d="M6496 4074 c-4 -11 -1 -14 11 -12 9 2 18 9 21 16 6 18 -25 15 -32 -4z"/>
<path d="M3200 4060 c0 -13 11 -13 30 0 12 8 11 10 -7 10 -13 0 -23 -4 -23
-10z"/>
<path d="M3860 4046 c0 -9 5 -16 10 -16 6 0 10 4 10 9 0 6 -4 13 -10 16 -5 3
-10 -1 -10 -9z"/>
<path d="M6440 4010 c0 -5 4 -10 9 -10 6 0 13 5 16 10 3 6 -1 10 -9 10 -9 0
-16 -4 -16 -10z"/>
<path d="M3991 3974 c0 -11 3 -14 6 -6 3 7 2 16 -1 19 -3 4 -6 -2 -5 -13z"/>
<path d="M4614 3926 c-8 -31 -1 -92 22 -186 23 -98 27 -101 35 -25 10 110 10
205 -1 205 -5 0 -10 8 -10 18 0 14 -2 15 -10 2 -9 -13 -11 -13 -19 -1 -8 12
-11 9 -17 -13z"/>
<path d="M3992 3750 c0 -14 2 -19 5 -12 2 6 2 18 0 25 -3 6 -5 1 -5 -13z"/>
<path d="M5531 3434 c0 -11 3 -14 6 -6 3 7 2 16 -1 19 -3 4 -6 -2 -5 -13z"/>
<path d="M2221 1931 c-10 -6 -10 -10 -1 -16 13 -8 24 -1 19 14 -3 6 -10 7 -18
2z"/>
<path d="M2160 1879 c0 -5 5 -7 10 -4 6 3 10 8 10 11 0 2 -4 4 -10 4 -5 0 -10
-5 -10 -11z"/>
<path d="M2960 1540 c0 -5 7 -10 16 -10 8 0 12 5 9 10 -3 6 -10 10 -16 10 -5
0 -9 -4 -9 -10z"/>
<path d="M3128 1533 c7 -3 16 -2 19 1 4 3 -2 6 -13 5 -11 0 -14 -3 -6 -6z"/>
<path d="M3290 1355 c0 -8 5 -15 10 -15 6 0 10 7 10 15 0 8 -4 15 -10 15 -5 0
-10 -7 -10 -15z"/>
<path d="M6583 1143 c-13 -2 -23 -11 -23 -18 0 -15 -108 -125 -123 -125 -5 0
-15 -8 -22 -17 -11 -15 -16 -16 -38 -4 -23 12 -30 11 -62 -8 -34 -20 -38 -20
-58 -5 -22 16 -22 16 5 10 29 -7 58 1 58 16 0 5 -15 8 -32 6 -27 -2 -34 1 -36
18 -2 17 -8 21 -25 16 -12 -3 -25 -10 -29 -16 -11 -16 -10 -86 2 -86 5 0 14
-9 20 -21 17 -31 -13 -73 -47 -64 -19 4 -26 1 -30 -15 -3 -11 -10 -20 -15 -20
-5 0 -7 -8 -3 -19 7 -22 -4 -53 -16 -45 -5 3 -9 0 -9 -6 0 -6 -4 -8 -10 -5
-13 8 -13 -8 1 -39 9 -20 9 -29 -1 -41 -7 -8 -8 -15 -3 -15 5 0 17 -43 27 -95
14 -74 17 -144 17 -320 l-1 -225 332 2 333 3 13 55 c19 76 21 579 3 670 -8 36
-13 99 -12 142 1 72 -1 80 -34 130 -20 29 -38 63 -41 74 -5 20 -90 76 -110 73
-5 -1 -19 -4 -31 -6z"/>
<path d="M6100 886 c0 -2 7 -6 15 -10 8 -3 15 -1 15 4 0 6 -7 10 -15 10 -8 0
-15 -2 -15 -4z"/>
<path d="M4446 871 c-3 -5 1 -12 10 -15 25 -10 34 -7 34 9 0 16 -35 21 -44 6z"/>
<path d="M6104 834 c0 -21 3 -30 8 -22 10 16 10 45 1 51 -5 3 -8 -10 -9 -29z"/>
<path d="M3680 514 c0 -17 6 -24 20 -24 13 0 20 7 20 19 0 10 -9 21 -20 24
-16 4 -20 0 -20 -19z"/>
<path d="M4620 333 c-30 -4 -72 -24 -82 -38 -19 -26 19 -74 59 -75 12 0 25 -5
28 -11 7 -10 42 29 38 41 -1 3 5 13 14 22 28 31 -6 68 -57 61z"/>
<path d="M7352 90 c3 -25 33 -36 33 -12 0 6 -4 12 -9 11 -5 0 -13 5 -18 13 -6
9 -8 6 -6 -12z"/>
</g>
</svg>
